<?xml version="1.0" encoding="utf-8"?>
<!-- Generator: $$$/GeneralStr/196=Adobe Illustrator 27.6.0, SVG Export Plug-In . SVG Version: 6.00 Build 0)  -->
<svg version="1.1" id="Livello_1" xmlns="http://www.w3.org/2000/svg" xmlns:xlink="http://www.w3.org/1999/xlink" x="0px" y="0px"
	 viewBox="0 0 755.7 1173.5" style="enable-background:new 0 0 755.7 1173.5;" xml:space="preserve">
<style type="text/css">
	.st0{fill:none;stroke:#000000;stroke-width:0.25;stroke-miterlimit:10;}
	.st1{fill:#FFFFFF;stroke:#000000;stroke-miterlimit:10;}
	.st2{font-family:'IBMPlexMono-Medium';}
	.st3{font-size:15px;}
	.st4{font-family:'IBMPlexSans-Medium';}
</style>
<path class="st0" d="M25.6,786.2c161.2,0,161.2-661.1,322.5-661.1"/>
<path class="st0" d="M25.6,786.2c161.2,0,161.2-466.5,322.5-466.5"/>
<path class="st0" d="M25.6,786.2c161.2,0,161.2-326.8,322.5-326.8"/>
<path class="st0" d="M25.6,786.2c161.2,0,161.2-181.3,322.5-181.3"/>
<path class="st0" d="M25.6,786.2c161.2,0,161.2-39,322.5-39"/>
<path class="st0" d="M25.6,786.2c161.2,0,161.2,54.1,322.5,54.1"/>
<path class="st0" d="M25.6,786.2c161.2,0,161.2,124.2,322.5,124.2"/>
<path class="st0" d="M25.6,786.2c161.2,0,161.2,193.3,322.5,193.3"/>
<path class="st0" d="M25.6,786.2c161.2,0,161.2,262.1,322.5,262.1"/>
<path class="st0" d="M25.6,786.2c161.2,0,161.2,311.5,322.5,311.5"/>
<path class="st0" d="M25.6,786.2c161.2,0,161.2,350.3,322.5,350.3"/>
<path class="st0" d="M25.6,786.2c161.2,0,161.2,379.1,322.5,379.1"/>
<path class="st0" d="M348.1,125.1c161.2,0,161.2-112.7,322.5-112.7"/>
<path class="st0" d="M348.1,125.1c161.2,0,161.2-80.2,322.5-80.2"/>
<path class="st0" d="M348.1,125.1c161.2,0,161.2-52.5,322.5-52.5"/>
<path class="st0" d="M348.1,125.1c161.2,0,161.2-28.4,322.5-28.4"/>
<path class="st0" d="M348.1,125.1c161.2,0,161.2-5.8,322.5-5.8"/>
<path class="st0" d="M348.1,125.1c161.2,0,161.2,16.4,322.5,16.4"/>
<path class="st0" d="M348.1,125.1c161.2,0,161.2,37,322.5,37"/>
<path class="st0" d="M348.1,125.1c161.2,0,161.2,56.2,322.5,56.2"/>
<path class="st0" d="M348.1,125.1c161.2,0,161.2,75.4,322.5,75.4"/>
<path class="st0" d="M348.1,125.1c161.2,0,161.2,94.6,322.5,94.6"/>
<path class="st0" d="M348.1,319.7c161.2,0,161.2-77.5,322.5-77.5"/>
<path class="st0" d="M348.1,319.7c161.2,0,161.2-53,322.5-53"/>
<path class="st0" d="M348.1,319.7c161.2,0,161.2-30.3,322.5-30.3"/>
<path class="st0" d="M348.1,319.7c161.2,0,161.2-8.9,322.5-8.9"/>
<path class="st0" d="M348.1,319.7c161.2,0,161.2,12,322.5,12"/>
<path class="st0" d="M348.1,319.7c161.2,0,161.2,32.8,322.5,32.8"/>
<path class="st0" d="M348.1,319.7c161.2,0,161.2,52.9,322.5,52.9"/>
<path class="st0" d="M348.1,319.7c161.2,0,161.2,72,322.5,72"/>
<path class="st0" d="M348.1,459.4c161.2,0,161.2-45.2,322.5-45.2"/>
<path class="st0" d="M348.1,459.4c161.2,0,161.2-20.7,322.5-20.7"/>
<path class="st0" d="M348.1,459.4c161.2,0,161.2,1.4,322.5,1.4"/>
<path class="st0" d="M348.1,459.4c161.2,0,161.2,22.2,322.5,22.2"/>
<path class="st0" d="M348.1,459.4c161.2,0,161.2,42.2,322.5,42.2"/>
<path class="st0" d="M348.1,604.8c161.2,0,161.2-81.5,322.5-81.5"/>
<path class="st0" d="M348.1,604.8c161.2,0,161.2-59,322.5-59"/>
<path class="st0" d="M348.1,604.8c161.2,0,161.2-38.2,322.5-38.2"/>
<path class="st0" d="M348.1,604.8c161.2,0,161.2-18.2,322.5-18.2"/>
<path class="st0" d="M348.1,604.8c161.2,0,161.2,1,322.5,1"/>
<path class="st0" d="M348.1,604.8c161.2,0,161.2,20.2,322.5,20.2"/>
<path class="st0" d="M348.1,604.8c161.2,0,161.2,39.4,322.5,39.4"/>
<path class="st0" d="M348.1,604.8c161.2,0,161.2,58.6,322.5,58.6"/>
<path class="st0" d="M348.1,604.8c161.2,0,161.2,77.7,322.5,77.7"/>
<path class="st0" d="M348.1,747.2c161.2,0,161.2-43.4,322.5-43.4"/>
<path class="st0" d="M348.1,747.2c161.2,0,161.2-20.7,322.5-20.7"/>
<path class="st0" d="M348.1,747.2c161.2,0,161.2,0.8,322.5,0.8"/>
<path class="st0" d="M348.1,747.2c161.2,0,161.2,21.6,322.5,21.6"/>
<path class="st0" d="M348.1,747.2c161.2,0,161.2,41.7,322.5,41.7"/>
<path class="st0" d="M348.1,840.3c161.2,0,161.2-30.3,322.5-30.3"/>
<path class="st0" d="M348.1,840.3c161.2,0,161.2-9.1,322.5-9.1"/>
<path class="st0" d="M348.1,840.3c161.2,0,161.2,10.1,322.5,10.1"/>
<path class="st0" d="M348.1,840.3c161.2,0,161.2,29.3,322.5,29.3"/>
<path class="st0" d="M348.1,910.4c161.2,0,161.2-20.2,322.5-20.2"/>
<path class="st0" d="M348.1,910.4c161.2,0,161.2,0.5,322.5,0.5"/>
<path class="st0" d="M348.1,910.4c161.2,0,161.2,19.7,322.5,19.7"/>
<path class="st0" d="M348.1,979.5c161.2,0,161.2-29.4,322.5-29.4"/>
<path class="st0" d="M348.1,979.5c161.2,0,161.2-9.4,322.5-9.4"/>
<path class="st0" d="M348.1,979.5c161.2,0,161.2,9.8,322.5,9.8"/>
<path class="st0" d="M348.1,979.5c161.2,0,161.2,29,322.5,29"/>
<path class="st0" d="M348.1,1048.2c161.2,0,161.2-19.7,322.5-19.7"/>
<path class="st0" d="M348.1,1048.2c161.2,0,161.2,0.3,322.5,0.3"/>
<path class="st0" d="M348.1,1048.2c161.2,0,161.2,19.5,322.5,19.5"/>
<path class="st0" d="M348.1,1097.7c161.2,0,161.2-10,322.5-10"/>
<path class="st0" d="M348.1,1097.7c161.2,0,161.2,10,322.5,10"/>
<path class="st0" d="M348.1,1136.5c161.2,0,161.2-9.6,322.5-9.6"/>
<path class="st0" d="M348.1,1136.5c161.2,0,161.2,9.6,322.5,9.6"/>
<path class="st0" d="M348.1,1165.3c161.2,0,161.2,0,322.5,0"/>
<circle class="st1" cx="25.6" cy="786.2" r="25"/>
<circle class="st1" cx="348.1" cy="125.1" r="15.5"/>
<text transform="matrix(1 0 0 1 352.2207 108.0018)" class="st2 st3">countryside</text>
<circle class="st1" cx="348.1" cy="319.7" r="9.6"/>
<text transform="matrix(1 0 0 1 352.2204 307.5706)" class="st2 st3">mountain</text>
<circle class="st1" cx="348.1" cy="459.4" r="8.2"/>
<text transform="matrix(1 0 0 1 352.2206 449.9466)" class="st2 st3">savannah</text>
<circle class="st1" cx="348.1" cy="604.8" r="7.9"/>
<text transform="matrix(1 0 0 1 352.2206 595.7953)" class="st2 st3">jungle</text>
<circle class="st1" cx="348.1" cy="747.2" r="7.1"/>
<text transform="matrix(1 0 0 1 352.2207 739.0218)" class="st2 st3">meadow</text>
<circle class="st1" cx="348.1" cy="840.3" r="5.4"/>
<text transform="matrix(1 0 0 1 352.2202 835.0391)" class="st2 st3">bodies of water</text>
<circle class="st1" cx="348.1" cy="910.4" r="4.6"/>
<text transform="matrix(1 0 0 1 352.2206 905.1399)" class="st2 st3">woods</text>
<circle class="st1" cx="348.1" cy="979.5" r="4.6"/>
<text transform="matrix(1 0 0 1 352.2206 974.2308)" class="st2 st3">imaginary world</text>
<circle class="st1" cx="348.1" cy="1048.2" r="4.1"/>
<text transform="matrix(1 0 0 1 352.2205 1042.9692)" class="st2 st3">forest</text>
<circle class="st1" cx="348.1" cy="1097.7" r="3.5"/>
<text transform="matrix(1 0 0 1 352.2206 1092.4554)" class="st2 st3">steppe</text>
<circle class="st1" cx="348.1" cy="1136.5" r="2.9"/>
<text transform="matrix(1 0 0 1 352.2205 1131.2377)" class="st2 st3">desert</text>
<circle class="st1" cx="348.1" cy="1165.3" r="2"/>
<text transform="matrix(1 0 0 1 352.2202 1160.0114)" class="st2 st3">land of ice</text>
<circle class="st1" cx="670.6" cy="12.3" r="10"/>
<text transform="matrix(1 0 0 1 683.3381 16.8733)" class="st4 st3">horse</text>
<circle class="st1" cx="670.6" cy="44.9" r="7.6"/>
<text transform="matrix(1 0 0 1 683.338 49.4369)" class="st4 st3">cat</text>
<circle class="st1" cx="670.6" cy="72.5" r="5"/>
<text transform="matrix(1 0 0 1 683.3381 77.0646)" class="st4 st3">dog</text>
<circle class="st1" cx="670.6" cy="96.6" r="4.1"/>
<text transform="matrix(1 0 0 1 683.3384 101.1829)" class="st4 st3">rooster</text>
<circle class="st1" cx="670.6" cy="119.3" r="3.5"/>
<text transform="matrix(1 0 0 1 683.3384 123.8555)" class="st4 st3">donkey</text>
<circle class="st1" cx="670.6" cy="141.4" r="3.5"/>
<text transform="matrix(1 0 0 1 683.3384 145.9881)" class="st4 st3">pig</text>
<circle class="st1" cx="670.6" cy="162.1" r="2"/>
<text transform="matrix(1 0 0 1 683.3383 166.6456)" class="st4 st3">dove</text>
<circle class="st1" cx="670.6" cy="181.3" r="2"/>
<text transform="matrix(1 0 0 1 683.3383 185.8281)" class="st4 st3">hen</text>
<circle class="st1" cx="670.6" cy="200.5" r="2"/>
<text transform="matrix(1 0 0 1 683.3383 205.0105)" class="st4 st3">mouse</text>
<circle class="st1" cx="670.6" cy="219.6" r="2"/>
<text transform="matrix(1 0 0 1 683.3383 224.193)" class="st4 st3">turkey</text>
<circle class="st1" cx="670.6" cy="242.1" r="5.4"/>
<text transform="matrix(1 0 0 1 683.3383 246.6916)" class="st4 st3">bull</text>
<circle class="st1" cx="670.6" cy="266.7" r="4.1"/>
<text transform="matrix(1 0 0 1 683.3384 271.2054)" class="st4 st3">sheep</text>
<circle class="st1" cx="670.6" cy="289.3" r="3.5"/>
<text transform="matrix(1 0 0 1 683.3384 293.8779)" class="st4 st3">cow</text>
<circle class="st1" cx="670.6" cy="310.8" r="2.9"/>
<text transform="matrix(1 0 0 1 683.3381 315.3702)" class="st4 st3">billy goat</text>
<circle class="st1" cx="670.6" cy="331.7" r="2.9"/>
<text transform="matrix(1 0 0 1 683.3381 336.2219)" class="st4 st3">goat</text>
<circle class="st1" cx="670.6" cy="352.5" r="2.9"/>
<text transform="matrix(1 0 0 1 683.3381 357.0737)" class="st4 st3">wolf</text>
<circle class="st1" cx="670.6" cy="372.5" r="2"/>
<text transform="matrix(1 0 0 1 683.3383 377.0905)" class="st4 st3">bear</text>
<circle class="st1" cx="670.6" cy="391.7" r="2"/>
<text transform="matrix(1 0 0 1 683.3383 396.2729)" class="st4 st3">lamb</text>
<circle class="st1" cx="670.6" cy="414.2" r="5.4"/>
<text transform="matrix(1 0 0 1 683.3383 418.7717)" class="st4 st3">elephant</text>
<circle class="st1" cx="670.6" cy="438.7" r="4.1"/>
<text transform="matrix(1 0 0 1 683.3384 443.2853)" class="st4 st3">lion</text>
<circle class="st1" cx="670.6" cy="460.8" r="2.9"/>
<text transform="matrix(1 0 0 1 683.3381 465.3175)" class="st4 st3">giraffe</text>
<circle class="st1" cx="670.6" cy="481.6" r="2.9"/>
<text transform="matrix(1 0 0 1 683.3381 486.1692)" class="st4 st3">rhinoceros</text>
<circle class="st1" cx="670.6" cy="501.6" r="2"/>
<text transform="matrix(1 0 0 1 683.3383 506.1863)" class="st4 st3">bison</text>
<circle class="st1" cx="670.6" cy="523.3" r="4.6"/>
<text transform="matrix(1 0 0 1 683.3389 527.8595)" class="st4 st3">snake</text>
<circle class="st1" cx="670.6" cy="545.8" r="2.9"/>
<text transform="matrix(1 0 0 1 683.3381 550.3673)" class="st4 st3">frog</text>
<circle class="st1" cx="670.6" cy="566.7" r="2.9"/>
<text transform="matrix(1 0 0 1 683.3381 571.219)" class="st4 st3">monkey</text>
<circle class="st1" cx="670.6" cy="586.7" r="2"/>
<text transform="matrix(1 0 0 1 683.3383 591.2361)" class="st4 st3">baboon</text>
<circle class="st1" cx="670.6" cy="605.9" r="2"/>
<text transform="matrix(1 0 0 1 683.3383 610.4186)" class="st4 st3">cobra</text>
<circle class="st1" cx="670.6" cy="625" r="2"/>
<text transform="matrix(1 0 0 1 683.3383 629.6011)" class="st4 st3">crocodile</text>
<circle class="st1" cx="670.6" cy="644.2" r="2"/>
<text transform="matrix(1 0 0 1 683.3383 648.7835)" class="st4 st3">iguana</text>
<circle class="st1" cx="670.6" cy="663.4" r="2"/>
<text transform="matrix(1 0 0 1 683.7983 667.9659)" class="st4 st3">jaguar</text>
<circle class="st1" cx="670.6" cy="682.6" r="2"/>
<text transform="matrix(1 0 0 1 683.3383 687.1484)" class="st4 st3">spider</text>
<circle class="st1" cx="670.6" cy="703.8" r="4.1"/>
<text transform="matrix(1 0 0 1 683.3384 708.3459)" class="st4 st3">pigeon</text>
<circle class="st1" cx="670.6" cy="726.5" r="3.5"/>
<text transform="matrix(1 0 0 1 683.3384 731.0184)" class="st4 st3">butterfly</text>
<circle class="st1" cx="670.6" cy="748" r="2.9"/>
<text transform="matrix(1 0 0 1 683.3381 752.5106)" class="st4 st3">peacock</text>
<circle class="st1" cx="670.6" cy="768.8" r="2.9"/>
<text transform="matrix(1 0 0 1 683.3381 773.3625)" class="st4 st3">stork</text>
<circle class="st1" cx="670.6" cy="788.8" r="2"/>
<text transform="matrix(1 0 0 1 683.3383 793.3796)" class="st4 st3">bee</text>
<circle class="st1" cx="670.6" cy="810" r="4.1"/>
<text transform="matrix(1 0 0 1 683.3384 814.577)" class="st4 st3">fish</text>
<circle class="st1" cx="670.6" cy="831.2" r="2"/>
<text transform="matrix(1 0 0 1 683.3383 835.7745)" class="st4 st3">octopus</text>
<circle class="st1" cx="670.6" cy="850.4" r="2"/>
<text transform="matrix(1 0 0 1 683.3383 854.9569)" class="st4 st3">seagull</text>
<circle class="st1" cx="670.6" cy="869.6" r="2"/>
<text transform="matrix(1 0 0 1 683.3383 874.1393)" class="st4 st3">whale</text>
<circle class="st1" cx="670.6" cy="890.2" r="3.5"/>
<text transform="matrix(1 0 0 1 683.3384 894.7969)" class="st4 st3">owl</text>
<circle class="st1" cx="670.6" cy="910.9" r="2"/>
<text transform="matrix(1 0 0 1 683.3383 915.4544)" class="st4 st3">canary</text>
<circle class="st1" cx="670.6" cy="930.1" r="2"/>
<text transform="matrix(1 0 0 1 683.3383 934.6369)" class="st4 st3">fox</text>
<circle class="st1" cx="670.6" cy="950.1" r="2.9"/>
<text transform="matrix(1 0 0 1 683.3381 954.654)" class="st4 st3">dragon</text>
<circle class="st1" cx="670.6" cy="970.1" r="2"/>
<text transform="matrix(1 0 0 1 683.3383 974.6711)" class="st4 st3">centaur</text>
<circle class="st1" cx="670.6" cy="989.3" r="2"/>
<text transform="matrix(1 0 0 1 683.3383 993.8536)" class="st4 st3">chimera</text>
<circle class="st1" cx="670.6" cy="1008.5" r="2"/>
<text transform="matrix(1 0 0 1 683.3383 1013.036)" class="st4 st3">minotaur</text>
<circle class="st1" cx="670.6" cy="1028.5" r="2.9"/>
<text transform="matrix(1 0 0 1 683.3381 1033.0531)" class="st4 st3">sparrow</text>
<circle class="st1" cx="670.6" cy="1048.5" r="2"/>
<text transform="matrix(1 0 0 1 683.3383 1053.0702)" class="st4 st3">parrot</text>
<circle class="st1" cx="670.6" cy="1067.7" r="2"/>
<text transform="matrix(1 0 0 1 683.3383 1072.2526)" class="st4 st3">tortoise</text>
<circle class="st1" cx="670.6" cy="1087.7" r="2.9"/>
<text transform="matrix(1 0 0 1 683.3381 1092.2697)" class="st4 st3">dinosaur</text>
<circle class="st1" cx="670.6" cy="1107.7" r="2"/>
<text transform="matrix(1 0 0 1 683.3383 1112.2867)" class="st4 st3">kangaroo</text>
<circle class="st1" cx="670.6" cy="1126.9" r="2"/>
<text transform="matrix(1 0 0 1 683.3383 1131.4692)" class="st4 st3">camel</text>
<circle class="st1" cx="670.6" cy="1146.1" r="2"/>
<text transform="matrix(1 0 0 1 683.3383 1150.6517)" class="st4 st3">scorpion</text>
<circle class="st1" cx="670.6" cy="1165.3" r="2"/>
<text transform="matrix(1 0 0 1 683.3383 1169.8341)" class="st4 st3">penguin</text>
</svg>
