<svg width="12" height="12" viewBox="0 0 12 12" fill="none" xmlns="http://www.w3.org/2000/svg">
<path id="Vector" fill-rule="evenodd" clip-rule="evenodd" d="M6.00683 7.61709L10.048 11.6583C10.2624 11.8727 10.5533 11.9932 10.8566 11.9932C11.1598 11.9932 11.4507 11.8727 11.6651 11.6583C11.8795 11.4438 12 11.153 12 10.8497C12 10.5465 11.8795 10.2556 11.6651 10.0412L7.62239 6.00001L11.6643 1.95883C11.7705 1.85266 11.8546 1.72661 11.9121 1.5879C11.9695 1.44919 11.999 1.30053 11.999 1.15041C11.9989 1.00028 11.9693 0.851634 11.9118 0.712951C11.8544 0.574267 11.7701 0.448264 11.6639 0.342135C11.5578 0.236006 11.4317 0.15183 11.293 0.0944126C11.1543 0.0369952 11.0056 0.00746093 10.8555 0.00749631C10.7054 0.00753169 10.5567 0.0371358 10.4181 0.0946186C10.2794 0.152101 10.1534 0.236337 10.0472 0.342516L6.00683 4.38369L1.96566 0.342516C1.86026 0.233292 1.73417 0.146151 1.59474 0.0861781C1.45531 0.0262055 1.30533 -0.00539803 1.15355 -0.006788C1.00177 -0.00817798 0.85124 0.0206732 0.710733 0.0780821C0.570226 0.135491 0.442559 0.220308 0.335182 0.327584C0.227805 0.43486 0.142868 0.562447 0.0853262 0.7029C0.0277848 0.843353 -0.00120828 0.993859 3.85728e-05 1.14564C0.00128543 1.29741 0.0327471 1.44742 0.0925883 1.58691C0.152429 1.7264 0.239451 1.85258 0.348577 1.95807L4.39128 6.00001L0.349339 10.042C0.240214 10.1474 0.153192 10.2736 0.0933506 10.4131C0.0335095 10.5526 0.00204743 10.7026 0.000800572 10.8544C-0.000446285 11.0062 0.0285468 11.1567 0.0860882 11.2971C0.14363 11.4376 0.228567 11.5652 0.335944 11.6724C0.443321 11.7797 0.570988 11.8645 0.711495 11.9219C0.852002 11.9794 1.00254 12.0082 1.15431 12.0068C1.30609 12.0054 1.45607 11.9738 1.5955 11.9138C1.73493 11.8539 1.86102 11.7667 1.96642 11.6575L6.00683 7.61709Z" fill="black" style="fill:black;fill-opacity:1;"/>
</svg>
