<svg width="16" height="21" viewBox="0 0 16 21" fill="none" xmlns="http://www.w3.org/2000/svg">
<path id="Vector" d="M15.4867 19.4994L15.4867 1.49943C15.4861 1.31718 15.4358 1.13855 15.3413 0.982749C15.2468 0.826949 15.1115 0.699884 14.9501 0.61523C14.7887 0.530576 14.6073 0.49154 14.4254 0.502323C14.2435 0.513105 14.0679 0.573299 13.9177 0.676425L0.917677 9.67643C0.378677 10.0494 0.378677 10.9474 0.917677 11.3214L13.9177 20.3214C14.0676 20.4256 14.2432 20.4867 14.4255 20.4981C14.6077 20.5094 14.7896 20.4706 14.9513 20.3859C15.113 20.3012 15.2484 20.1737 15.3428 20.0175C15.4372 19.8612 15.487 19.682 15.4867 19.4994Z" fill="black" style="fill:black;fill-opacity:1;"/>
</svg>
