<?xml version="1.0" encoding="utf-8"?>
<!-- Generator: Adobe Illustrator 28.2.0, SVG Export Plug-In . SVG Version: 6.00 Build 0)  -->
<svg version="1.1" id="Livello_1" xmlns="http://www.w3.org/2000/svg" xmlns:xlink="http://www.w3.org/1999/xlink" x="0px" y="0px"
	 viewBox="0 0 2254.2 1705.6" style="enable-background:new 0 0 2254.2 1705.6;" xml:space="preserve">
<style type="text/css">
	.st0{fill:#BC7444;}
	.st1{fill:#63E0C8;}
	.st2{fill:#6BDD62;}
	.st3{fill:#4082E2;}
	.st4{fill:#48A4FF;}
	.st5{fill:#FC83FF;}
	.st6{fill:#965AE2;}
	.st7{fill:#3A9B55;}
	.st8{fill:#EDE715;}
	.st9{fill:#FF954D;}
	.st10{fill:#FF4D6F;}
	.st11{fill:none;stroke:#CCCBCB;stroke-dasharray:0,0,19.89,19.89;}
	.st12{fill:none;stroke:#CCCBCB;stroke-dasharray:0,0,20.06,20.06;}
	.st13{fill:none;stroke:#CCCBCB;stroke-dasharray:0,0,19.95,19.95;}
	.st14{fill:none;stroke:#CCCBCB;stroke-dasharray:0,0,20.35,20.35;}
	.st15{fill:none;stroke:#CCCBCB;stroke-dasharray:0,0,20.12,20.12;}
	.st16{fill:none;stroke:#CCCBCB;stroke-dasharray:0,0,19.86,19.86;}
	.st17{fill:none;stroke:#CCCBCB;stroke-dasharray:0,0,20.13,20.13;}
	.st18{fill:none;stroke:#CCCBCB;stroke-dasharray:0,0,19.48,19.48;}
	.st19{fill:none;stroke:#CCCBCB;stroke-dasharray:0,0,20.04,20.04;}
	.st20{fill:none;stroke:#CCCBCB;stroke-dasharray:0,0,20.16,20.16;}
	.st21{fill:none;stroke:#CCCBCB;stroke-dasharray:0,0,20.38,20.38;}
	.st22{fill:none;stroke:#CCCBCB;stroke-dasharray:0,0,20.59,20.59;}
	.st23{fill:#AFAFAF;}
</style>
<g id="mountain">
	<g id="billy_goat">
		<path id="p_702.2872481792738" class="st0" d="M1047.5,683.6c-15.6,0-28.3-12.7-28.3-28.3s12.7-28.3,28.3-28.3
			s28.3,12.7,28.3,28.3S1063.1,683.6,1047.5,683.6z"/>
		<path id="p_702.2872481792738-2" class="st0" d="M1006.7,634.7c-15.6,0-28.3-12.7-28.3-28.3s12.7-28.3,28.3-28.3
			s28.3,12.7,28.3,28.3S1022.3,634.7,1006.7,634.7z"/>
	</g>
	<g id="wolf">
		<g id="https:_aiap.it_imgcontenuti_Animaghi_wolf.png">
			<path id="p_729.072283505995" class="st0" d="M1170,695.7c-15.6,0-28.3-12.7-28.3-28.3s12.7-28.3,28.3-28.3s28.3,12.7,28.3,28.3
				S1185.6,695.7,1170,695.7z"/>
		</g>
		<g id="https:_aiap.it_imgcontenuti_Albe_Steiner_006.png">
			<path id="p_746.2621355112217" class="st0" d="M1239.6,695.7c-15.6,0-28.3-12.7-28.3-28.3s12.7-28.3,28.3-28.3
				s28.3,12.7,28.3,28.3S1255.2,695.7,1239.6,695.7z"/>
		</g>
	</g>
	<g id="bear">
		<path id="p_737.2181853217883" class="st0" d="M1024.7,927.9c-15.6,0-28.3-12.7-28.3-28.3s12.7-28.3,28.3-28.3
			s28.3,12.7,28.3,28.3S1040.3,927.9,1024.7,927.9z"/>
	</g>
	<g id="sheep">
		<g id="https:_aiap.it_imgcontenuti_Animaghi_sheep.png">
			<path id="p_659.0566179200705" class="st0" d="M1003.1,439.4c-15.6,0-28.3-12.7-28.3-28.3s12.7-28.3,28.3-28.3
				s28.3,12.7,28.3,28.3S1018.7,439.4,1003.1,439.4z"/>
		</g>
		<g id="https:_aiap.it_imgcontenuti_2_Il_Dramma_giugno1950.png">
			<path id="p_676.2464699252972" class="st0" d="M1100.8,408.4c0,15.6-12.7,28.3-28.3,28.3s-28.3-12.7-28.3-28.3
				s12.7-28.3,28.3-28.3S1100.8,392.8,1100.8,408.4z"/>
		</g>
		<g id="https:_aiap.it_imgcontenuti_disegno-I076.png">
			<path id="p_682.5383924465051" class="st0" d="M1037.9,501.5c-15.6,0-28.3-12.7-28.3-28.3s12.7-28.3,28.3-28.3
				s28.3,12.7,28.3,28.3S1053.6,501.5,1037.9,501.5z"/>
		</g>
		<g id="https:_aiap.it_imgcontenuti_Santagostino_Morgagni_19___031.png">
			<path id="p_652.7646953988626" class="st0" d="M1036.5,378.8c-15.6,0-28.3-12.7-28.3-28.3s12.7-28.3,28.3-28.3
				s28.3,12.7,28.3,28.3S1052.1,378.8,1036.5,378.8z"/>
		</g>
	</g>
	<g id="goat">
		<g id="https:_aiap.it_imgcontenuti_LanostraRai1-1960_copia1_.jpeg">
			<path id="p_777.4455881353407" class="st0" d="M1132.9,834.3c-15.6,0-28.3-12.7-28.3-28.3s12.7-28.3,28.3-28.3
				s28.3,12.7,28.3,28.3S1148.5,834.3,1132.9,834.3z"/>
		</g>
		<g id="https:_aiap.it_imgcontenuti_DSCN5191_copia1_.png">
			<path id="p_794.6354401405673" class="st0" d="M1197.1,834.3c-15.6,0-28.3-12.7-28.3-28.3s12.7-28.3,28.3-28.3
				s28.3,12.7,28.3,28.3S1212.7,834.3,1197.1,834.3z"/>
		</g>
	</g>
	<g id="lamb">
		<g id="https:_aiap.it_imgcontenuti_LanostraRai4-1960.jpeg">
			<path id="p_711.956924343833" class="st0" d="M1201.2,543c-15.6,0-28.3-12.7-28.3-28.3c0-15.6,12.7-28.3,28.3-28.3
				s28.3,12.7,28.3,28.3C1229.4,530.3,1216.8,543,1201.2,543z"/>
		</g>
		<g id="https:_aiap.it_imgcontenuti_Santagostino_Morgagni_19___032.png">
			<path id="p_729.1467763490597" class="st0" d="M1270.8,543c-15.6,0-28.3-12.7-28.3-28.3c0-15.6,12.7-28.3,28.3-28.3
				s28.3,12.7,28.3,28.3C1299.1,530.3,1286.4,543,1270.8,543z"/>
		</g>
	</g>
	<g id="cow">
		<g id="https:_aiap.it_imgcontenuti_Fointments_012.png">
			<path id="p_621.3417288766545" class="st0" d="M773.6,498.2c-15.6,0-28.3-12.7-28.3-28.3s12.7-28.3,28.3-28.3
				s28.3,12.7,28.3,28.3S789.2,498.2,773.6,498.2z"/>
		</g>
		<g id="https:_aiap.it_imgcontenuti_TM_1968_060.png">
			<path id="p_638.5315808818813" class="st0" d="M841.3,496.5c-15.6,0-28.3-12.7-28.3-28.3s12.7-28.3,28.3-28.3
				s28.3,12.7,28.3,28.3S856.9,496.5,841.3,496.5z"/>
		</g>
		<g id="https:_aiap.it_imgcontenuti_Note_fotografiche_10_194201.png">
			<path id="p_644.8235034030891" class="st0" d="M808.4,552.6c-15.6,0-28.3-12.7-28.3-28.3c0-15.6,12.7-28.3,28.3-28.3
				s28.3,12.7,28.3,28.3C836.7,539.9,824,552.6,808.4,552.6z"/>
		</g>
	</g>
	<g id="bull">
		<g id="https:_aiap.it_imgcontenuti_sc00037112_copia1_.png">
			<path id="p_696.838875491568" class="st0" d="M852.8,763.6c-15.6,0-28.3-12.7-28.3-28.3s12.7-28.3,28.3-28.3s28.3,12.7,28.3,28.3
				S868.5,763.6,852.8,763.6z"/>
		</g>
		<g id="https:_aiap.it_imgcontenuti_LanostraRai5-1960.jpeg">
			<path id="p_714.0287274967948" class="st0" d="M918.8,757.8c-15.6,0-28.3-12.7-28.3-28.3s12.7-28.3,28.3-28.3
				s28.3,12.7,28.3,28.3S934.4,757.8,918.8,757.8z"/>
		</g>
		<g id="https:_aiap.it_imgcontenuti_disegno-F073.png">
			<path id="p_720.3206500180025" class="st0" d="M892.1,821c-15.6,0-28.3-12.7-28.3-28.3s12.7-28.3,28.3-28.3s28.3,12.7,28.3,28.3
				S907.7,821,892.1,821z"/>
		</g>
		<g id="https:_aiap.it_imgcontenuti_pintori011.jpeg">
			<path id="p_690.5469529703602" class="st0" d="M892.1,694.5c-15.6,0-28.3-12.7-28.3-28.3s12.7-28.3,28.3-28.3
				s28.3,12.7,28.3,28.3S907.7,694.5,892.1,694.5z"/>
		</g>
		<g id="https:_aiap.it_imgcontenuti_1980_Lehmann_Gliittiti.jpg">
			<path id="p_673.3571009651333" class="st0" d="M828.6,701.2c-15.6,0-28.3-12.7-28.3-28.3s12.7-28.3,28.3-28.3
				s28.3,12.7,28.3,28.3S844.2,701.2,828.6,701.2z"/>
		</g>
		<g id="https:_aiap.it_imgcontenuti_sc000896d4_copia1_.png">
			<path id="p_754.3905785272144" class="st0" d="M825.2,828.3c-15.6,0-28.3-12.7-28.3-28.3s12.7-28.3,28.3-28.3
				s28.3,12.7,28.3,28.3S840.8,828.3,825.2,828.3z"/>
		</g>
	</g>
</g>
<g id="jungle">
	<g id="frog">
		<g id="https:_aiap.it_imgcontenuti_Silvio_Coppola_3.png">
			<path id="p_516.8559942444065" class="st1" d="M730.1,1434.6c-15.6,0-28.3-12.7-28.3-28.3s12.7-28.3,28.3-28.3
				s28.3,12.7,28.3,28.3S745.8,1434.6,730.1,1434.6z"/>
		</g>
		<g id="https:_aiap.it_imgcontenuti_DSCN5170.png">
			<path id="p_534.0458462496333" class="st1" d="M794.5,1434.6c-15.6,0-28.3-12.7-28.3-28.3s12.7-28.3,28.3-28.3
				s28.3,12.7,28.3,28.3S810.1,1434.6,794.5,1434.6z"/>
		</g>
	</g>
	<g id="iguana">
		<path id="p_575.1564804561652" class="st1" d="M915.5,1649.1c-15.6,0-28.3-12.7-28.3-28.3s12.7-28.3,28.3-28.3
			s28.3,12.7,28.3,28.3S931.1,1649.1,915.5,1649.1z"/>
	</g>
	<g id="spider">
		<path id="p_519.7202473698225" class="st1" d="M888.3,1215.7c-15.6,0-28.3-12.7-28.3-28.3s12.7-28.3,28.3-28.3
			s28.3,12.7,28.3,28.3S904,1215.7,888.3,1215.7z"/>
	</g>
	<g id="monkey">
		<path id="p_486.53221570914604" class="st1" d="M756.2,1294.6c-15.6,0-28.3-12.7-28.3-28.3s12.7-28.3,28.3-28.3
			s28.3,12.7,28.3,28.3S771.8,1294.6,756.2,1294.6z"/>
	</g>
	<g id="jaguar">
		<path id="p_608.3445121168417" class="st1" d="M1068.2,1590.7c-15.6,0-28.3-12.7-28.3-28.3s12.7-28.3,28.3-28.3
			s28.3,12.7,28.3,28.3S1083.9,1590.7,1068.2,1590.7z"/>
	</g>
	<g id="crocodile">
		<path id="p_556.8963931234786" class="st1" d="M784.5,1584.1c-15.6,0-28.3-12.7-28.3-28.3s12.7-28.3,28.3-28.3
			s28.3,12.7,28.3,28.3S800.1,1584.1,784.5,1584.1z"/>
	</g>
	<g id="cobra">
		<path id="p_537.9803347025091" class="st1" d="M1023.1,1269.4c-15.6,0-28.3-12.7-28.3-28.3s12.7-28.3,28.3-28.3
			s28.3,12.7,28.3,28.3S1038.7,1269.4,1023.1,1269.4L1023.1,1269.4z"/>
	</g>
	<g id="baboon">
		<path id="p_619.2262141826146" class="st1" d="M1109.2,1409.5c-15.6,0-28.3-12.7-28.3-28.3s12.7-28.3,28.3-28.3
			s28.3,12.7,28.3,28.3S1124.8,1409.5,1109.2,1409.5z"/>
	</g>
	<g id="snake">
		<g id="https:_aiap.it_imgcontenuti_La-vouivre001.png">
			<path id="p_560.8308815763545" class="st1" d="M912.9,1451.8c-15.6,0-28.3-12.7-28.3-28.3s12.7-28.3,28.3-28.3
				s28.3,12.7,28.3,28.3S928.5,1451.8,912.9,1451.8z"/>
		</g>
		<g id="https:_aiap.it_imgcontenuti_1972_aprile_Salgari_Imisteridellajiunglanera.jpg">
			<path id="p_578.0207335815812" class="st1" d="M980.4,1453.8c-15.6,0-28.3-12.7-28.3-28.3s12.7-28.3,28.3-28.3
				s28.3,12.7,28.3,28.3S996,1453.8,980.4,1453.8z"/>
		</g>
		<g id="https:_aiap.it_imgcontenuti_il-club-del-vizio.png">
			<path id="p_855.3116868404926" class="st1" d="M943.8,1509.3c-15.6,0-28.3-12.7-28.3-28.3s12.7-28.3,28.3-28.3
				s28.3,12.7,28.3,28.3S959.4,1509.3,943.8,1509.3z"/>
		</g>
		<g id="https:_aiap.it_imgcontenuti_Crepax099.png">
			<path id="p_872.5015388457192" class="st1" d="M947.9,1396.5c-15.6,0-28.3-12.7-28.3-28.3s12.7-28.3,28.3-28.3
				s28.3,12.7,28.3,28.3S963.5,1396.5,947.9,1396.5z"/>
		</g>
	</g>
</g>
<g id="meadow">
	<g id="pigeon">
		<g id="https:_aiap.it_imgcontenuti_disegno-D098.png">
			<path id="p_456.88260339932555" class="st2" d="M536.4,1093c-15.6,0-28.3-12.7-28.3-28.3s12.7-28.3,28.3-28.3
				s28.3,12.7,28.3,28.3S552,1093,536.4,1093z"/>
		</g>
		<g id="https:_aiap.it_imgcontenuti_sc0001f8d8_copia1_.png">
			<path id="p_474.0724554045523" class="st2" d="M629.4,1062c0,15.6-12.7,28.3-28.3,28.3s-28.3-12.7-28.3-28.3s12.7-28.3,28.3-28.3
				S629.4,1046.4,629.4,1062z"/>
		</g>
		<g id="https:_aiap.it_imgcontenuti_N32-.png">
			<path id="p_480.36437792576015" class="st2" d="M575.7,1148.1c-15.6,0-28.3-12.7-28.3-28.3s12.7-28.3,28.3-28.3
				s28.3,12.7,28.3,28.3S591.3,1148.1,575.7,1148.1z"/>
		</g>
	</g>
	<g id="peacock">
		<path id="p_419.38580258582795" class="st2" d="M524.2,964.5c-15.6,0-28.3-12.7-28.3-28.3s12.7-28.3,28.3-28.3
			s28.3,12.7,28.3,28.3S539.8,964.5,524.2,964.5z"/>
	</g>
	<g id="butterfly">
		<g id="https:_aiap.it_imgcontenuti_Locatelli_024_copia1_.png">
			<path id="p_527.2367585473654" class="st2" d="M384.7,994.7c-15.6,0-28.3-12.7-28.3-28.3c0-15.6,12.7-28.3,28.3-28.3
				s28.3,12.7,28.3,28.3S400.3,994.7,384.7,994.7z"/>
		</g>
		<g id="https:_aiap.it_imgcontenuti_2_Il_Dramma_giugno1951_Rai_2.png">
			<path id="p_361.2471691578916" class="st2" d="M355.7,1051.9c-15.6,0-28.3-12.7-28.3-28.3s12.7-28.3,28.3-28.3
				s28.3,12.7,28.3,28.3S371.4,1051.9,355.7,1051.9z"/>
		</g>
		<g id="https:_aiap.it_imgcontenuti_la_radio_005.png">
			<path id="p_378.43702116311835" class="st2" d="M419.2,1048.6c-15.6,0-28.3-12.7-28.3-28.3s12.7-28.3,28.3-28.3
				s28.3,12.7,28.3,28.3S434.8,1048.6,419.2,1048.6z"/>
		</g>
	</g>
	<g id="bee">
		<path id="p_498.52576348847566" class="st2" d="M510.4,1239.6c-15.6,0-28.3-12.7-28.3-28.3s12.7-28.3,28.3-28.3
			s28.3,12.7,28.3,28.3S526,1239.6,510.4,1239.6L510.4,1239.6z"/>
	</g>
	<g id="stork">
		<g id="https:_aiap.it_imgcontenuti_7_Il_Dramma_febbraio1952.png">
			<path id="p_505.94738515473733" class="st2" d="M423.7,1169.2c-15.6,0-28.3-12.7-28.3-28.3s12.7-28.3,28.3-28.3
				s28.3,12.7,28.3,28.3S439.3,1169.2,423.7,1169.2z"/>
		</g>
		<g id="https:_aiap.it_imgcontenuti_Tutto-su_istinto-e-appr_013.png">
			<path id="p_626.4313518077417" class="st2" d="M361.6,1168.8c-15.6,0-28.3-12.7-28.3-28.3s12.7-28.3,28.3-28.3
				s28.3,12.7,28.3,28.3S377.2,1168.8,361.6,1168.8z"/>
		</g>
	</g>
</g>
<g id="land_of_ice">
	<g id="penguin">
		<g id="https:_aiap.it_imgcontenuti_disegno-Q2188.png">
			<path id="p_596.9103755639566" class="st3" d="M1949,597.6c-15.6,0-28.3-12.7-28.3-28.3s12.7-28.3,28.3-28.3s28.3,12.7,28.3,28.3
				S1964.6,597.6,1949,597.6z"/>
		</g>
	</g>
</g>
<g id="water">
	<g id="whale">
		<path id="p_522.8114125401765" class="st4" d="M624.6,266.9c-15.6,0-28.3-12.7-28.3-28.3s12.7-28.3,28.3-28.3s28.3,12.7,28.3,28.3
			S640.3,266.9,624.6,266.9z"/>
	</g>
	<g id="seagull">
		<path id="p_636.2353551785853" class="st4" d="M423.4,295.2c-15.6,0-28.3-12.7-28.3-28.3s12.7-28.3,28.3-28.3s28.3,12.7,28.3,28.3
			S439,295.2,423.4,295.2z"/>
	</g>
	<g id="octopus">
		<path id="p_663.0203905053065" class="st4" d="M517.7,199.3c-15.6,0-28.3-12.7-28.3-28.3s12.7-28.3,28.3-28.3S546,155.4,546,171
			S533.3,199.3,517.7,199.3z"/>
	</g>
	<g id="fish">
		<g id="https:_aiap.it_imgcontenuti_DSC03217.png">
			<path id="p_680.4941477117044" class="st4" d="M518.5,372.5c-15.6,0-28.3-12.7-28.3-28.3s12.7-28.3,28.3-28.3
				s28.3,12.7,28.3,28.3S534.1,372.5,518.5,372.5z"/>
		</g>
		<g id="https:_aiap.it_imgcontenuti_sc0001f8d8_copia1_.png-2">
			<path id="p_697.6839997169311" class="st4" d="M586.2,378.4c-15.6,0-28.3-12.7-28.3-28.3s12.7-28.3,28.3-28.3
				s28.3,12.7,28.3,28.3S601.8,378.4,586.2,378.4z"/>
		</g>
		<g id="https:_aiap.it_imgcontenuti_img361.png">
			<path id="p_703.975922238139" class="st4" d="M586,412.1c0,15.6-12.7,28.3-28.3,28.3s-28.3-12.7-28.3-28.3s12.7-28.3,28.3-28.3
				S586,396.5,586,412.1z"/>
		</g>
		<g id="https:_aiap.it_imgcontenuti_0b4c6c32f6be0641be75d9dd6559d4ec.png">
			<path id="p_674.2022251904965" class="st4" d="M490,430.9c-15.6,0-28.3-12.7-28.3-28.3s12.7-28.3,28.3-28.3s28.3,12.7,28.3,28.3
				S505.7,430.9,490,430.9L490,430.9z"/>
		</g>
	</g>
</g>
<g id="imaginary">
	<g id="dragon">
		<g id="https:_aiap.it_imgcontenuti_lelu001.png">
			<path id="p_507.66646306304557" class="st5" d="M101.5,857.9c-15.6,0-28.3-12.7-28.3-28.3s12.7-28.3,28.3-28.3
				s28.3,12.7,28.3,28.3S117.2,857.9,101.5,857.9z"/>
		</g>
		<g id="https:_aiap.it_imgcontenuti_milano_003.png">
			<path id="p_524.8563150682724" class="st5" d="M101.5,791c-15.6,0-28.3-12.7-28.3-28.3s12.7-28.3,28.3-28.3s28.3,12.7,28.3,28.3
				S117.2,791,101.5,791z"/>
		</g>
	</g>
	<g id="minotauro">
		<path id="p_551.6413503949935" class="st5" d="M263.6,756.2c-15.6,0-28.3-12.7-28.3-28.3s12.7-28.3,28.3-28.3s28.3,12.7,28.3,28.3
			S279.2,756.2,263.6,756.2z"/>
	</g>
	<g id="centaur">
		<path id="p_566.2941953492373" class="st5" d="M235.3,869.4c-15.6,0-28.3-12.7-28.3-28.3s12.7-28.3,28.3-28.3s28.3,12.7,28.3,28.3
			S250.9,869.4,235.3,869.4z"/>
	</g>
	<g id="chimera">
		<path id="p_516.710413252479" class="st5" d="M179.1,685c-15.6,0-28.3-12.7-28.3-28.3s12.7-28.3,28.3-28.3s28.3,12.7,28.3,28.3
			S194.7,685,179.1,685L179.1,685z"/>
	</g>
</g>
<g id="forest">
	<g id="tortoise">
		<path id="p_419.08416822429666" class="st6" d="M66.3,1392.2c-15.6,0-28.3-12.7-28.3-28.3s12.7-28.3,28.3-28.3
			s28.3,12.7,28.3,28.3S82,1392.2,66.3,1392.2z"/>
	</g>
	<g id="sparrow">
		<g id="https:_aiap.it_imgcontenuti_Pirelli_003.png">
			<path id="p_657.6892386216346" class="st6" d="M154.1,1285.7c-15.6,0-28.3-12.7-28.3-28.3s12.7-28.3,28.3-28.3
				s28.3,12.7,28.3,28.3S169.7,1285.7,154.1,1285.7z"/>
		</g>
		<g id="https:_aiap.it_imgcontenuti_disegno-C114.png">
			<path id="p_445.86920355101785" class="st6" d="M201.3,1330.3c-15.6,0-28.3-12.7-28.3-28.3s12.7-28.3,28.3-28.3
				s28.3,12.7,28.3,28.3S216.9,1330.3,201.3,1330.3L201.3,1330.3z"/>
		</g>
	</g>
	<g id="parrot">
		<path id="p_455.67320692186144" class="st6" d="M154.6,1453.1c-15.6,0-28.3-12.7-28.3-28.3s12.7-28.3,28.3-28.3
			s28.3,12.7,28.3,28.3S170.3,1453.1,154.6,1453.1z"/>
	</g>
</g>
<g id="woods">
	<g id="howl">
		<g id="https:_aiap.it_imgcontenuti_DSCN6838.png">
			<path id="p_376.404607283353" class="st7" d="M351.5,1520.2c-15.6,0-28.3-12.7-28.3-28.3s12.7-28.3,28.3-28.3
				s28.3,12.7,28.3,28.3S367.1,1520.2,351.5,1520.2z"/>
		</g>
		<g id="https:_aiap.it_imgcontenuti_DSC02705.png">
			<path id="p_393.5944592885798" class="st7" d="M393.1,1473c-15.6,0-28.3-12.7-28.3-28.3s12.7-28.3,28.3-28.3s28.3,12.7,28.3,28.3
				S408.7,1473,393.1,1473z"/>
		</g>
	</g>
	<g id="fox">
		<path id="p_435.0323395695447" class="st7" d="M430.5,1632.2c-15.6,0-28.3-12.7-28.3-28.3s12.7-28.3,28.3-28.3
			s28.3,12.7,28.3,28.3S446.1,1632.2,430.5,1632.2z"/>
	</g>
	<path id="canary" class="st7" d="M520.2,1535c-15.6,0-28.3-12.7-28.3-28.3s12.7-28.3,28.3-28.3s28.3,12.7,28.3,28.3
		S535.8,1535,520.2,1535z"/>
</g>
<g id="desert">
	<g id="camel">
		<g id="https:_aiap.it_imgcontenuti_Tartarino_058.png">
			<path id="p_546.0191762421586" class="st8" d="M1240.1,227.4c-15.6,0-28.3-12.7-28.3-28.3s12.7-28.3,28.3-28.3
				s28.3,12.7,28.3,28.3S1255.8,227.4,1240.1,227.4z"/>
		</g>
	</g>
	<g id="scorpio">
		<g id="https:_aiap.it_imgcontenuti_LanostraRai11-1960.jpeg">
			<path id="p_849.385698943477" class="st8" d="M1205,139c-15.6,0-28.3-12.7-28.3-28.3s12.7-28.3,28.3-28.3s28.3,12.7,28.3,28.3
				S1220.6,139,1205,139L1205,139z"/>
		</g>
	</g>
</g>
<g id="savannah">
	<g id="elephant">
		<g id="https:_aiap.it_imgcontenuti_Locatelli_024.png">
			<path id="p_992.4515024266628" class="st9" d="M1751.9,240.6c-12.4,9.5-30.1,7.3-39.7-5.1s-7.3-30.1,5.1-39.7
				c12.4-9.6,30.1-7.3,39.7,5.1C1766.6,213.3,1764.3,231.1,1751.9,240.6L1751.9,240.6z"/>
		</g>
		<g id="https:_aiap.it_imgcontenuti_1978Carroll_SylvieeBruno.jpg">
			<path id="p_1009.6413544318896" class="st9" d="M1702.7,286.3c-12.4,9.5-30.1,7.3-39.7-5.1s-7.3-30.1,5.1-39.7s30.1-7.3,39.7,5.1
				S1715.1,276.7,1702.7,286.3z"/>
		</g>
		<g id="https:_aiap.it_imgcontenuti_1972_dicembre_Salgari_Ilredelmare.jpg">
			<path id="p_1015.9332769530973" class="st9" d="M1726.3,350.4c-12.4,9.5-30.1,7.3-39.7-5.1s-7.3-30.1,5.1-39.7s30.1-7.3,39.7,5.1
				S1738.7,340.8,1726.3,350.4z"/>
		</g>
		<g id="https:_aiap.it_imgcontenuti_img127.png">
			<path id="p_986.159579905455" class="st9" d="M1642.9,253.6c-12.4,9.5-30.1,7.3-39.7-5.1s-7.3-30.1,5.1-39.7
				c12.4-9.6,30.1-7.3,39.7,5.1C1657.5,226.2,1655.2,244,1642.9,253.6z"/>
		</g>
		<g id="https:_aiap.it_imgcontenuti_Miscela_elephant_Morgagni_19--_002_copia3_.png">
			<path id="p_968.9697279002281" class="st9" d="M1792.6,368.3c-12.4,9.5-30.1,7.3-39.7-5.1s-7.3-30.1,5.1-39.7s30.1-7.3,39.7,5.1
				S1805,358.8,1792.6,368.3z"/>
		</g>
		<g id="https:_aiap.it_imgcontenuti_img070_copia1_.png">
			<path id="p_1003.3494319106816" class="st9" d="M1692.7,212.6c-12.4,9.5-30.1,7.3-39.7-5.1s-7.3-30.1,5.1-39.7
				c12.4-9.6,30.1-7.3,39.7,5.1S1705.1,203,1692.7,212.6L1692.7,212.6z"/>
		</g>
		<g id="https:_aiap.it_imgcontenuti_DSCN6825.png">
			<path id="p_1033.123128958324" class="st9" d="M1773.4,302.4c-12.4,9.5-30.1,7.3-39.7-5.1s-7.3-30.1,5.1-39.7s30.1-7.3,39.7,5.1
				S1785.8,292.8,1773.4,302.4z"/>
		</g>
		<g id="https:_aiap.it_imgcontenuti_Tutto-su-Zoo-Klinz-015.png">
			<path id="p_937.1966638445069" class="st9" d="M1753.9,408c-9.1,12.7-26.8,15.5-39.5,6.4s-15.5-26.8-6.4-39.5
				c9.1-12.7,26.8-15.5,39.5-6.4S1763.1,395.3,1753.9,408z"/>
		</g>
	</g>
	<g id="rinoceronte">
		<path id="p_962.6711209350028" class="st9" d="M1685.8,101.4c-15.6,0-28.3-12.7-28.3-28.3s12.7-28.3,28.3-28.3
			s28.3,12.7,28.3,28.3S1701.4,101.4,1685.8,101.4z"/>
	</g>
	<g id="bison">
		<path id="p_962.6711209350028-2" class="st9" d="M1516.5,146c-15.6,0-28.3-12.7-28.3-28.3s12.7-28.3,28.3-28.3
			s28.3,12.7,28.3,28.3S1532.2,146,1516.5,146L1516.5,146z"/>
	</g>
	<g id="lion">
		<path id="p_912.3767030171804" class="st9" d="M1416.4,248.7c5-14.8,21-22.8,35.8-17.8c14.8,5,22.8,21,17.8,35.9
			c-5,14.8-21,22.8-35.8,17.8C1419.3,279.5,1411.4,263.5,1416.4,248.7"/>
		<g id="https:_aiap.it_imgcontenuti_milano_mese_021.png">
			<path id="p_929.5665550224071" class="st9" d="M1498.7,306.3c-14.8-5-22.8-21-17.8-35.9c5-14.8,21-22.8,35.8-17.8
				c14.8,5,22.8,21,17.8,35.9C1529.5,303.3,1513.5,311.3,1498.7,306.3z"/>
		</g>
		<g id="https:_aiap.it_imgcontenuti_DSCN6808.png">
			<path id="p_420.379494615301" class="st9" d="M1429.5,312.9c5-14.8,21-22.8,35.8-17.8c14.8,5,22.8,21,17.8,35.9
				c-5,14.8-21,22.8-35.8,17.8S1424.5,327.7,1429.5,312.9z"/>
		</g>
	</g>
	<g id="giraffe">
		<g id="https:_aiap.it_imgcontenuti_milano_mese_021.png-2">
			<path id="p_929.5665550224071-2" class="st9" d="M1586.1,424.8c0,15.6-12.7,28.3-28.3,28.3s-28.3-12.7-28.3-28.3
				s12.7-28.3,28.3-28.3S1586.1,409.2,1586.1,424.8z"/>
		</g>
		<g id="https:_aiap.it_imgcontenuti_DSCN6808.png-2">
			<path id="p_420.379494615301-2" class="st9" d="M1614.4,488.3c-15.6,0-28.3-12.7-28.3-28.3c0-15.6,12.7-28.3,28.3-28.3
				s28.3,12.7,28.3,28.3C1642.7,475.6,1630.1,488.3,1614.4,488.3z"/>
		</g>
	</g>
</g>
<g id="countryside">
	<g id="dog">
		<g id="https:_aiap.it_imgcontenuti_Animaghi_Pechinese.png">
			<path id="p_707.8941762530962" class="st10" d="M1441.6,1075.5c-15.6,0-28.3-12.7-28.3-28.3s12.7-28.3,28.3-28.3
				s28.3,12.7,28.3,28.3S1457.2,1075.5,1441.6,1075.5z"/>
		</g>
		<g id="https:_aiap.it_imgcontenuti_disegno-H021.png">
			<path id="p_725.084028258323" class="st10" d="M1510.1,1081.2c-15.6,0-28.3-12.7-28.3-28.3s12.7-28.3,28.3-28.3
				s28.3,12.7,28.3,28.3S1525.7,1081.2,1510.1,1081.2z"/>
		</g>
		<g id="https:_aiap.it_imgcontenuti_animal-farm.png">
			<path id="p_731.3759507795309" class="st10" d="M1469.9,1137.8c-15.6,0-28.3-12.7-28.3-28.3s12.7-28.3,28.3-28.3
				s28.3,12.7,28.3,28.3S1485.5,1137.8,1469.9,1137.8z"/>
		</g>
		<g id="https:_aiap.it_imgcontenuti_Noorda_Vignelli_anni_di_cani_2.png">
			<path id="p_701.6022537318884" class="st10" d="M1481.8,1019.3c-15.6,0-28.3-12.7-28.3-28.3s12.7-28.3,28.3-28.3
				s28.3,12.7,28.3,28.3S1497.4,1019.3,1481.8,1019.3z"/>
		</g>
		<g id="https:_aiap.it_imgcontenuti_Crepax151.png">
			<path id="p_684.4124017266616" class="st10" d="M1416.5,1013.3c-15.6,0-28.3-12.7-28.3-28.3s12.7-28.3,28.3-28.3
				s28.3,12.7,28.3,28.3S1432.1,1013.3,1416.5,1013.3z"/>
		</g>
		<g id="https:_aiap.it_imgcontenuti_IMG3_0003_copia2_.jpg">
			<path id="p_718.7921057371151" class="st10" d="M1550.8,1027.8c-15.6,0-28.3-12.7-28.3-28.3s12.7-28.3,28.3-28.3
				s28.3,12.7,28.3,28.3S1566.4,1027.8,1550.8,1027.8z"/>
		</g>
	</g>
	<g id="cat">
		<g id="https:_aiap.it_imgcontenuti_Animaghi_cat.png">
			<path id="p_780.3873077175002" class="st10" d="M1452.5,1399c-15.3-3.2-25.1-18.2-21.9-33.5s18.2-25.1,33.5-21.9
				s25.1,18.2,21.9,33.5S1467.8,1402.2,1452.5,1399z"/>
		</g>
		<g id="https:_aiap.it_imgcontenuti_unnamed_copia10_.jpg">
			<path id="p_797.577159722727" class="st10" d="M1520.8,1428.7c-15.3-3.2-25.1-18.2-21.9-33.5s18.2-25.1,33.5-21.9
				s25.1,18.2,21.9,33.5S1536.1,1431.8,1520.8,1428.7z"/>
		</g>
		<g id="https:_aiap.it_imgcontenuti_disegno-H021.png-2">
			<path id="p_803.8690822439348" class="st10" d="M1472.2,1473c-15.3-3.2-25.1-18.2-21.9-33.5s18.2-25.1,33.5-21.9
				s25.1,18.2,21.9,33.5S1487.5,1476.2,1472.2,1473z"/>
		</g>
		<g id="https:_aiap.it_imgcontenuti_disegno-S111.png">
			<path id="p_774.0953851962923" class="st10" d="M1514.2,1362.2c-15.3-3.2-25.1-18.2-21.9-33.5s18.2-25.1,33.5-21.9
				s25.1,18.2,21.9,33.5S1529.5,1365.4,1514.2,1362.2z"/>
		</g>
		<g id="https:_aiap.it_imgcontenuti_DSCN6902_copia1_.png">
			<path id="p_756.9055331910655" class="st10" d="M1452.5,1334.5c-15.3-3.2-25.1-18.2-21.9-33.5s18.2-25.1,33.5-21.9
				s25.1,18.2,21.9,33.5S1467.8,1337.7,1452.5,1334.5z"/>
		</g>
		<g id="https:_aiap.it_imgcontenuti_disegno-P108.png">
			<path id="p_791.2852372015192" class="st10" d="M1577.4,1376.7c-15.3-3.2-25.1-18.2-21.9-33.5s18.2-25.1,33.5-21.9
				s25.1,18.2,21.9,33.5S1592.7,1379.9,1577.4,1376.7z"/>
		</g>
		<g id="https:_aiap.it_imgcontenuti_DSCN6812_copia1_.png">
			<path id="p_821.0589342491616" class="st10" d="M1549.1,1492.7c-15.3-3.2-25.1-18.2-21.9-33.5s18.2-25.1,33.5-21.9
				s25.1,18.2,21.9,33.5S1564.4,1495.8,1549.1,1492.7z"/>
		</g>
		<g id="https:_aiap.it_imgcontenuti_DSC04357.png">
			<path id="p_786.6792302387081" class="st10" d="M1407.6,1452.6c-15.3-3.2-25.1-18.2-21.9-33.5s18.2-25.1,33.5-21.9
				s25.1,18.2,21.9,33.5S1422.8,1455.8,1407.6,1452.6z"/>
		</g>
		<g id="https:_aiap.it_imgcontenuti_disegno-Q109.png">
			<path id="p_763.1974557122734" class="st10" d="M1390.7,1366.8c-15.3-3.2-25.1-18.2-21.9-33.5s18.2-25.1,33.5-21.9
				s25.1,18.2,21.9,33.5S1406,1370,1390.7,1366.8z"/>
		</g>
		<g id="https:_aiap.it_imgcontenuti_S04_8756.JPG">
			<path id="p_814.7670117279537" class="st10" d="M1593.8,1439.7c-15.3-3.2-25.1-18.2-21.9-33.5s18.2-25.1,33.5-21.9
				s25.1,18.2,21.9,33.5S1609.1,1442.9,1593.8,1439.7z"/>
		</g>
		<g id="https:_aiap.it_imgcontenuti_DSCN5636.png">
			<path id="p_838.2487862543884" class="st10" d="M1622.1,1498.2c-15.3-3.2-25.1-18.2-21.9-33.5s18.2-25.1,33.5-21.9
				s25.1,18.2,21.9,33.5S1637.4,1501.3,1622.1,1498.2z"/>
		</g>
		<g id="https:_aiap.it_imgcontenuti_DSC04308.png">
			<path id="p_769.4893782334813" class="st10" d="M1569.3,1556.7c-15.3-3.2-25.1-18.2-21.9-33.5s18.2-25.1,33.5-21.9
				s25.1,18.2,21.9,33.5S1584.6,1559.8,1569.3,1556.7z"/>
		</g>
		<g id="https:_aiap.it_imgcontenuti_Note_fotografiche_04_194101.png">
			<path id="p_767.8034626750845" class="st10" d="M1549.1,1305.6c-15.3-3.2-25.1-18.2-21.9-33.5s18.2-25.1,33.5-21.9
				s25.1,18.2,21.9,33.5S1564.4,1308.8,1549.1,1305.6z"/>
		</g>
		<g id="https:_aiap.it_imgcontenuti_scope341.png">
			<path id="p_810.1610047651427" class="st10" d="M1500.5,1537.9c-15.3-3.2-25.1-18.2-21.9-33.5s18.2-25.1,33.5-21.9
				s25.1,18.2,21.9,33.5S1515.8,1541.1,1500.5,1537.9z"/>
		</g>
	</g>
	<g id="rooster">
		<g id="https:_aiap.it_imgcontenuti_2_Il_Dramma_luglio1949_illustration.png">
			<path id="p_785.600801988288" class="st10" d="M1665.5,1184.3c-15.6,0-28.3-12.7-28.3-28.3s12.7-28.3,28.3-28.3
				s28.3,12.7,28.3,28.3S1681.2,1184.3,1665.5,1184.3z"/>
		</g>
		<g id="https:_aiap.it_imgcontenuti_Mimmo_Castellano_017.png">
			<path id="p_802.7906539935148" class="st10" d="M1733.1,1191.1c-15.6,0-28.3-12.7-28.3-28.3s12.7-28.3,28.3-28.3
				s28.3,12.7,28.3,28.3S1748.7,1191.1,1733.1,1191.1z"/>
		</g>
		<g id="https:_aiap.it_imgcontenuti_disegno-L077.png">
			<path id="p_809.0825765147226" class="st10" d="M1693.8,1243c-15.6,0-28.3-12.7-28.3-28.3s12.7-28.3,28.3-28.3
				s28.3,12.7,28.3,28.3S1709.4,1243,1693.8,1243z"/>
		</g>
		<g id="https:_aiap.it_imgcontenuti_3_Il_Dramma_marzo1949.png">
			<path id="p_779.3088794670801" class="st10" d="M1700.5,1135.1c-15.4-2.3-26.1-16.8-23.7-32.2c2.3-15.4,16.8-26.1,32.2-23.7
				c15.4,2.3,26.1,16.8,23.7,32.2C1730.4,1126.8,1716,1137.4,1700.5,1135.1z"/>
		</g>
	</g>
	<g id="donkey">
		<g id="https:_aiap.it_imgcontenuti_animal-farm.png-2">
			<path id="p_677.9869736510456" class="st10" d="M1479.9,846.6c-12.9,8.7-30.5,5.3-39.3-7.6c-8.7-12.9-5.3-30.5,7.6-39.3
				s30.5-5.3,39.3,7.6C1496.2,820.3,1492.8,837.8,1479.9,846.6z"/>
		</g>
		<g id="https:_aiap.it_imgcontenuti_Il_colore_016.png">
			<path id="p_701.4687481774803" class="st10" d="M1538.3,874.9c-12.9,8.7-30.5,5.3-39.3-7.6c-8.7-12.9-5.3-30.5,7.6-39.3
				s30.5-5.3,39.3,7.6C1554.6,848.6,1551.2,866.1,1538.3,874.9z"/>
		</g>
	</g>
	<g id="mouse">
		<path id="p_841.6155908051204" class="st10" d="M1757.5,1627.1c-15.6,0-28.3-12.7-28.3-28.3s12.7-28.3,28.3-28.3
			s28.3,12.7,28.3,28.3S1773.1,1627.1,1757.5,1627.1z"/>
	</g>
	<g id="canary-2">
		<path id="p_715.5614250114867" class="st10" d="M1785.8,1369.9c-15.6,0-28.3-12.7-28.3-28.3s12.7-28.3,28.3-28.3
			s28.3,12.7,28.3,28.3S1801.4,1369.9,1785.8,1369.9z"/>
	</g>
	<g id="dove">
		<path id="p_743.729157100902" class="st10" d="M1327.8,1210.2c-15.6,0-28.3-12.7-28.3-28.3s12.7-28.3,28.3-28.3
			s28.3,12.7,28.3,28.3S1343.4,1210.2,1327.8,1210.2z"/>
	</g>
	<g id="peacock-2">
		<path id="p_739.9128481693415" class="st10" d="M1711.5,975.4c-15.6,0-28.3-12.7-28.3-28.3s12.7-28.3,28.3-28.3
			s28.3,12.7,28.3,28.3S1727.1,975.4,1711.5,975.4z"/>
	</g>
	<g id="hen">
		<path id="p_853.1184251939384" class="st10" d="M1882.7,1536.4c-15.6,0-28.3-12.7-28.3-28.3s12.7-28.3,28.3-28.3
			s28.3,12.7,28.3,28.3S1898.3,1536.4,1882.7,1536.4z"/>
	</g>
	<g id="pig">
		<g id="https:_aiap.it_imgcontenuti_Photography_Italiana002.png">
			<path id="p_677.9003689947375" class="st10" d="M1840.2,819c-15.6,0-28.3-12.7-28.3-28.3s12.7-28.3,28.3-28.3
				s28.3,12.7,28.3,28.3S1855.8,819,1840.2,819z"/>
		</g>
		<g id="https:_aiap.it_imgcontenuti_DSCN6962.PNG">
			<path id="p_538.9622331517205" class="st10" d="M1811.9,876.4c-15.6,0-28.3-12.7-28.3-28.3s12.7-28.3,28.3-28.3
				s28.3,12.7,28.3,28.3S1827.5,876.4,1811.9,876.4z"/>
		</g>
		<g id="https:_aiap.it_imgcontenuti_disegno-C070.png">
			<path id="p_556.1520851569472" class="st10" d="M1879.1,876.4c-15.6,0-28.3-12.7-28.3-28.3s12.7-28.3,28.3-28.3
				s28.3,12.7,28.3,28.3S1894.7,876.4,1879.1,876.4z"/>
		</g>
	</g>
	<g id="cavalli">
		<g id="https:_aiap.it_imgcontenuti_Pierluigi_Cerri_ipd_006.png">
			<path id="p_425.90687825393906" class="st10" d="M1992.8,1189.7c-15.6,0-28.3-12.7-28.3-28.3s12.7-28.3,28.3-28.3
				s28.3,12.7,28.3,28.3S2008.4,1189.7,1992.8,1189.7z"/>
		</g>
		<g id="https:_aiap.it_imgcontenuti_DSCN6823.png">
			<path id="p_443.0967302591658" class="st10" d="M2060.3,1189.7c-15.6,0-28.3-12.7-28.3-28.3s12.7-28.3,28.3-28.3
				c15.6,0,28.3,12.7,28.3,28.3S2075.9,1189.7,2060.3,1189.7z"/>
		</g>
		<g id="https:_aiap.it_imgcontenuti_DSC02220_copia1_.png">
			<path id="p_449.38865278037366" class="st10" d="M2026.2,1253.6c-15.6,0-28.3-12.7-28.3-28.3s12.7-28.3,28.3-28.3
				s28.3,12.7,28.3,28.3S2041.9,1253.6,2026.2,1253.6z"/>
		</g>
		<g id="https:_aiap.it_imgcontenuti_Egizio_003.png">
			<path id="p_419.6149557327312" class="st10" d="M2032,1126.6c-15.6,0-28.3-12.7-28.3-28.3s12.7-28.3,28.3-28.3
				s28.3,12.7,28.3,28.3S2047.6,1126.6,2032,1126.6z"/>
		</g>
		<g id="https:_aiap.it_imgcontenuti_3_Il_Dramma_luglio1950.png">
			<path id="p_402.4251037275044" class="st10" d="M1959.9,1126.6c-15.6,0-28.3-12.7-28.3-28.3s12.7-28.3,28.3-28.3
				s28.3,12.7,28.3,28.3S1975.6,1126.6,1959.9,1126.6z"/>
		</g>
		<g id="https:_aiap.it_imgcontenuti_sc0002cee5_copia1_.png">
			<path id="p_436.80480773795796" class="st10" d="M2105.9,1126.6c-15.6,0-28.3-12.7-28.3-28.3s12.7-28.3,28.3-28.3
				s28.3,12.7,28.3,28.3S2121.5,1126.6,2105.9,1126.6z"/>
		</g>
		<g id="https:_aiap.it_imgcontenuti_sc00072b08_copia1_.png">
			<path id="p_466.57850478560044" class="st10" d="M2095.7,1253.6c-15.6,0-28.3-12.7-28.3-28.3s12.7-28.3,28.3-28.3
				s28.3,12.7,28.3,28.3S2111.3,1253.6,2095.7,1253.6z"/>
		</g>
		<g id="https:_aiap.it_imgcontenuti_sc00010595_copia1_.png">
			<path id="p_432.1988007751469" class="st10" d="M1953.5,1253.6c-15.6,0-28.3-12.7-28.3-28.3s12.7-28.3,28.3-28.3
				s28.3,12.7,28.3,28.3S1969.2,1253.6,1953.5,1253.6z"/>
		</g>
		<g id="https:_aiap.it_imgcontenuti_6_Il_Dramma_aprile1951.png">
			<path id="p_408.7170262487123" class="st10" d="M1925.2,1189.7c-15.6,0-28.3-12.7-28.3-28.3s12.7-28.3,28.3-28.3
				s28.3,12.7,28.3,28.3S1940.9,1189.7,1925.2,1189.7z"/>
		</g>
		<g id="https:_aiap.it_imgcontenuti_Ferenc_Pinter_005_copia1_.png">
			<path id="p_460.28658226439256" class="st10" d="M2124,1189.7c-15.6,0-28.3-12.7-28.3-28.3s12.7-28.3,28.3-28.3
				s28.3,12.7,28.3,28.3S2139.6,1189.7,2124,1189.7z"/>
		</g>
		<g id="https:_aiap.it_imgcontenuti_1991_RobertvanGulik_Idelitti.jpg">
			<path id="p_483.76835679082717" class="st10" d="M2178,1242.7c-15.6,0-28.3-12.7-28.3-28.3s12.7-28.3,28.3-28.3
				s28.3,12.7,28.3,28.3S2193.7,1242.7,2178,1242.7z"/>
		</g>
		<g id="https:_aiap.it_imgcontenuti_9_Il_Dramma_novembre1952.png">
			<path id="p_415.00894876992015" class="st10" d="M1885.6,1252.7c-15.6,0-28.3-12.7-28.3-28.3s12.7-28.3,28.3-28.3
				s28.3,12.7,28.3,28.3S1901.2,1252.7,1885.6,1252.7z"/>
		</g>
		<g id="https:_aiap.it_imgcontenuti_Crepax039.png">
			<path id="p_413.3230332115233" class="st10" d="M2063.9,1070.1c-15.6,0-28.3-12.7-28.3-28.3s12.7-28.3,28.3-28.3
				s28.3,12.7,28.3,28.3S2079.5,1070.1,2063.9,1070.1z"/>
		</g>
		<g id="https:_aiap.it_imgcontenuti_6_Il_Dramma_agosto1951.png">
			<path id="p_455.68057530158154" class="st10" d="M1988.9,1312.6c-15.6,0-28.3-12.7-28.3-28.3s12.7-28.3,28.3-28.3
				s28.3,12.7,28.3,28.3S2004.6,1312.6,1988.9,1312.6z"/>
		</g>
		<g id="https:_aiap.it_imgcontenuti_Crepax184.png">
			<path id="p_396.13318120629657" class="st10" d="M1992.8,1070.1c-15.6,0-28.3-12.7-28.3-28.3s12.7-28.3,28.3-28.3
				s28.3,12.7,28.3,28.3S2008.4,1070.1,1992.8,1070.1z"/>
		</g>
		<g id="https:_aiap.it_imgcontenuti_Crepax_121_219.png">
			<path id="p_472.87042730680827" class="st10" d="M2067.4,1312.6c-15.6,0-28.3-12.7-28.3-28.3s12.7-28.3,28.3-28.3
				s28.3,12.7,28.3,28.3S2083.1,1312.6,2067.4,1312.6z"/>
		</g>
		<g id="https:_aiap.it_imgcontenuti_Crepax_114.png">
			<path id="p_385.23525172227767" class="st10" d="M1886,1126.6c-15.6,0-28.3-12.7-28.3-28.3s12.7-28.3,28.3-28.3
				s28.3,12.7,28.3,28.3S1901.6,1126.6,1886,1126.6z"/>
		</g>
		<g id="https:_aiap.it_imgcontenuti_Il_horse_008.png">
			<path id="p_389.8412586850887" class="st10" d="M2026.2,1009.5c-15.6,0-28.3-12.7-28.3-28.3s12.7-28.3,28.3-28.3
				s28.3,12.7,28.3,28.3S2041.9,1009.5,2026.2,1009.5z"/>
		</g>
		<g id="https:_aiap.it_imgcontenuti_DSC05082.png">
			<path id="p_479.16234982801615" class="st10" d="M2032,1370.2c-15.6,0-28.3-12.7-28.3-28.3s12.7-28.3,28.3-28.3
				s28.3,12.7,28.3,28.3S2047.6,1370.2,2032,1370.2z"/>
		</g>
		<g id="https:_aiap.it_imgcontenuti_DSC05137_copia1_.png">
			<path id="p_453.9946597431847" class="st10" d="M2178,1126.6c-15.6,0-28.3-12.7-28.3-28.3s12.7-28.3,28.3-28.3
				s28.3,12.7,28.3,28.3S2193.7,1126.6,2178,1126.6z"/>
		</g>
		<g id="https:_aiap.it_imgcontenuti_Il_lion_013.png">
			<path id="p_490.06027931203505" class="st10" d="M2145.9,1302.2c-15.6,0-28.3-12.7-28.3-28.3s12.7-28.3,28.3-28.3
				s28.3,12.7,28.3,28.3S2161.5,1302.2,2145.9,1302.2z"/>
		</g>
		<g id="https:_aiap.it_imgcontenuti_domus_lupi_710_1989.png">
			<path id="p_378.9433292010698" class="st10" d="M1921.7,1070.1c-15.6,0-28.3-12.7-28.3-28.3s12.7-28.3,28.3-28.3
				s28.3,12.7,28.3,28.3S1937.3,1070.1,1921.7,1070.1z"/>
		</g>
		<g id="https:_aiap.it_imgcontenuti_dante271.png">
			<path id="p_430.5128852167501" class="st10" d="M2135.2,1070.1c-15.6,0-28.3-12.7-28.3-28.3s12.7-28.3,28.3-28.3
				s28.3,12.7,28.3,28.3S2150.8,1070.1,2135.2,1070.1z"/>
		</g>
	</g>
</g>
<g id="cerchi">
	<g id="p_611.9318946820123">
		<circle class="st11" cx="912.9" cy="1395.7" r="291.2"/>
	</g>
	<g id="p_786.455036205925">
		<circle class="st12" cx="1015.8" cy="622.4" r="351.2"/>
	</g>
	<g id="p_616.9935410307183">
		<circle class="st13" cx="513.8" cy="682.2" r="114.3"/>
	</g>
	<g id="p_566.0049455135253">
		<path class="st14" d="M186.2,935.1c-96.6,0-174.9-78.3-174.9-174.9c0-96.6,78.3-174.9,174.9-174.9h0
			c96.6,0,174.9,78.3,174.9,174.9C361.2,856.8,282.9,935.1,186.2,935.1L186.2,935.1L186.2,935.1z"/>
	</g>
	<g id="p_436.01269943925655">
		<path class="st15" d="M430.5,1661.3c-81.4,0-147.3-65.9-147.3-147.3c0-81.3,65.9-147.3,147.3-147.3h0.1
			c81.4,0,147.3,65.9,147.3,147.3C577.8,1595.3,511.9,1661.3,430.5,1661.3L430.5,1661.3z"/>
	</g>
	<g id="p_713.5711055596333">
		<circle class="st16" cx="521.4" cy="293.7" r="195.9"/>
	</g>
	<g id="p_540.5115363013831">
		<path class="st17" d="M473.9,1284.8c-116.8,0-211.5-94.7-211.5-211.4c0-116.8,94.6-211.5,211.4-211.5h0
			c116.8,0,211.5,94.7,211.5,211.4C685.3,1190.1,590.7,1284.8,473.9,1284.8L473.9,1284.8L473.9,1284.8z"/>
	</g>
	<g id="p_858.9808822649713">
		<circle class="st18" cx="1222.1" cy="156.7" r="99.2"/>
	</g>
	<g id="p_857.9918453771572">
		<circle class="st19" cx="1731.1" cy="1182" r="523.1"/>
	</g>
	<g id="p_1018.1198616809575">
		<circle class="st20" cx="1615.3" cy="263" r="263"/>
	</g>
	<g id="p_465.26839024335584">
		<circle class="st21" cx="143.2" cy="1338.8" r="142.7"/>
	</g>
	<g id="p_606.5055588854509">
		<circle class="st22" cx="1949" cy="569.3" r="72.1"/>
	</g>
</g>
<g id="steppe">
	<g id="kangaroo">
		<path id="p_607.398357709224" class="st23" d="M513.8,763.2c-15.6,0-28.3-12.7-28.3-28.3s12.7-28.3,28.3-28.3s28.3,12.7,28.3,28.3
			S529.4,763.2,513.8,763.2z"/>
	</g>
	<g id="dinosaur">
		<g id="https:_aiap.it_imgcontenuti_Crepax_028.png">
			<path id="p_481.52211704248725" class="st23" d="M484.9,667.5c-15.6,0-28.3-12.7-28.3-28.3s12.7-28.3,28.3-28.3
				s28.3,12.7,28.3,28.3S500.5,667.5,484.9,667.5L484.9,667.5z"/>
		</g>
		<g id="https:_aiap.it_imgcontenuti_DSCN6819.png">
			<path id="p_956.3515903491283" class="st23" d="M550.1,669c-15.6,0-28.3-12.7-28.3-28.3s12.7-28.3,28.3-28.3s28.3,12.7,28.3,28.3
				S565.7,669,550.1,669z"/>
		</g>
	</g>
</g>
</svg>
