<?xml version="1.0" encoding="utf-8"?>
<!-- Generator: $$$/GeneralStr/196=Adobe Illustrator 27.6.0, SVG Export Plug-In . SVG Version: 6.00 Build 0)  -->
<svg version="1.1" id="Livello_1" xmlns="http://www.w3.org/2000/svg" xmlns:xlink="http://www.w3.org/1999/xlink" x="0px" y="0px"
	 viewBox="0 0 666.9 582.3" style="enable-background:new 0 0 666.9 582.3;" xml:space="preserve">
<style type="text/css">
	.st0{fill:#FFFFFF;stroke:#1D1D1B;stroke-miterlimit:10;}
	.st1{fill:#EFEFEF;stroke:#1D1D1B;stroke-miterlimit:10;}
	.st2{fill:#AFAFAF;stroke:#1D1D1B;stroke-miterlimit:10;}
	.st3{enable-background:new    ;}
	.st4{font-family:'IBMPlexSans-Bold';}
	.st5{font-size:18px;}
	.st6{fill:#FFFFFF;}
</style>
<g id="Livello_3">
	<g>
		<path class="st0" d="M375.9,116.7l41.9-87.1C379.8,11.3,338.2,1.5,296,0.9v96.7C323.7,98.2,350.9,104.7,375.9,116.7z"/>
		<path class="st0" d="M417.9,29.6L376,116.7c71.6,34.5,114.8,109.3,108.9,188.6l96.4,7.2C590.1,193.6,525.3,81.4,417.9,29.6
			L417.9,29.6z"/>
		<path class="st0" d="M472,361.5l90,35.3c10.6-27,17.1-55.4,19.2-84.3l-96.4-7.2C483.4,324.6,479.1,343.5,472,361.5L472,361.5z"/>
		<path class="st0" d="M400.9,450.6l54.4,79.9c48.2-32.8,85.3-79.4,106.6-133.7l-90-35.3C457.8,397.7,433,428.7,400.9,450.6
			L400.9,450.6z"/>
		<path class="st0" d="M375.9,465.1l41.9,87.1c13-6.3,25.6-13.5,37.5-21.7l-54.5-79.9C393,456.1,384.6,460.9,375.9,465.1
			L375.9,465.1z"/>
		<path class="st0" d="M349,475.6l28.5,92.4c13.8-4.3,27.3-9.6,40.3-15.8l-41.9-87.1C367.2,469.3,358.2,472.8,349,475.6L349,475.6z"
			/>
		<path class="st0" d="M263.2,482.1l-14.4,95.6c43.1,6.5,87.1,3.2,128.7-9.6L349,475.6C321.3,484.2,291.9,486.4,263.2,482.1
			L263.2,482.1z"/>
		<path class="st0" d="M208.2,465.1l-41.9,87.1c26.1,12.6,54,21.2,82.6,25.5l14.4-95.6C244.1,479.2,225.6,473.5,208.2,465.1
			L208.2,465.1z"/>
		<path class="st0" d="M164.9,436.5l-65.3,71.3c20.1,17.8,42.5,32.8,66.7,44.4l41.9-87.1C192.5,457.5,177.9,447.9,164.9,436.5
			L164.9,436.5z"/>
		<path class="st0" d="M140.9,411.4l-75.6,60.3c8.3,10.4,17.2,20.1,26.9,29.3l65.3-71.3C151.6,424,146,417.9,140.9,411.4z"/>
		<path class="st0" d="M112.1,361.5l-90,35.3c10.6,27,25.2,52.2,43.2,74.9l75.6-60.3C128.8,396.3,119.1,379.5,112.1,361.5
			L112.1,361.5z"/>
		<path class="st0" d="M103.5,333.9L9.3,355.4c3.2,14.1,7.5,28,12.8,41.4l90-35.3C108.5,352.5,105.7,343.3,103.5,333.9L103.5,333.9z
			"/>
		<path class="st0" d="M99.2,305.3l-96.4,7.2c1.1,14.4,3.2,28.8,6.5,42.9l94.2-21.5C101.4,324.5,100,315,99.2,305.3L99.2,305.3z"/>
		<path class="st0" d="M99.2,276.4l-96.4-7.2c-1.1,14.4-1.1,28.9,0,43.3l96.4-7.2C98.5,295.7,98.5,286.1,99.2,276.4z"/>
		<path class="st0" d="M103.5,247.9L9.3,226.4c-3.2,14.1-5.4,28.4-6.5,42.9l96.4,7.2C100,266.8,101.4,257.3,103.5,247.9L103.5,247.9
			z"/>
		<path class="st0" d="M112.1,220.3l-90-35.3c-5.3,13.5-9.6,27.3-12.8,41.4l94.2,21.5C105.7,238.5,108.5,229.2,112.1,220.3
			L112.1,220.3z"/>
		<path class="st0" d="M160.5,149.2L94.8,78.3C62.8,107.9,38,144.4,22.1,185l90,35.3C122.7,193.2,139.2,168.9,160.5,149.2
			L160.5,149.2z"/>
		<path class="st0" d="M183.1,131.2l-54.4-79.9c-11.9,8.2-23.3,17.2-33.9,27l65.7,70.9C167.6,142.6,175.2,136.6,183.1,131.2
			L183.1,131.2z"/>
		<path class="st0" d="M208.2,116.7l-41.9-87.1c-13,6.3-25.6,13.5-37.5,21.7l54.5,79.9C191.1,125.7,199.5,120.9,208.2,116.7
			L208.2,116.7z"/>
		<path class="st0" d="M263.2,99.7L248.8,4.1c-28.6,4.3-56.5,12.9-82.6,25.5l41.9,87.1C225.6,108.3,244.1,102.6,263.2,99.7
			L263.2,99.7z"/>
		<path class="st0" d="M286,97.7V1c-12.4,0.3-24.9,1.3-37.2,3.2l14.4,95.6C270.8,98.6,278.4,97.9,286,97.7L286,97.7z"/>
	</g>
</g>
<g id="Livello_6">
	<path class="st1" d="M296,97.6v96.7c23,0.9,44.9,10,61.8,25.7c39.1,36.3,41.4,97.5,5.1,136.6c-35.1,37.9-93.5,41.2-132.7,8.5
		l-65.4,71.3c35.2,30.7,80.3,47.7,127.2,47.7c106.8,0,193.3-86.6,193.3-193.3S400.9,99.7,296,97.6L296,97.6z"/>
	<path class="st2" d="M195.4,290.9c0-51.3,40-93.3,90.6-96.5V97.7c-51.6,1.6-100.5,23.8-135.7,61.7c-71.7,77.2-68.1,197.4,7.2,270.3
		l65.4-71.3C205.3,340.4,195.4,316.2,195.4,290.9L195.4,290.9z"/>
</g>
<g>
	<g class="st3">
		<path d="M344,87.7l-2.6,0.3l-0.8,3.3l2.2,1.4l-0.2,1l-7.5-4.7l0.3-1.3l8.8-1L344,87.7z M336.2,88.5L336.2,88.5l3.6,2.3l0.6-2.8
			L336.2,88.5z"/>
		<path d="M344.5,85.4l-6-1.4l0.2-0.9l1,0.2l0,0c-0.6-0.4-0.9-1.1-0.7-2c0.3-1.2,1.3-1.8,2.8-1.5l3.9,0.9l-0.2,0.9l-3.7-0.8
			c-1.1-0.2-1.7,0.1-1.9,1c-0.2,0.7,0,1.6,0.8,1.7l4.2,1L344.5,85.4z"/>
		<path d="M345.9,74.7L345.9,74.7c0.7,0.6,0.9,1.2,0.7,2.1c-0.3,1.5-1.8,2.2-3.7,1.7s-2.9-1.7-2.6-3.2c0.2-0.8,0.7-1.4,1.5-1.5l0,0
			l-3.6-0.8l0.2-0.9l8.7,2l-0.2,0.9L345.9,74.7z M345,74.4l-2.2-0.5c-0.7-0.2-1.3,0.4-1.5,1.3c-0.2,1.1,0.3,1.9,1.4,2.1l1,0.2
			c1.1,0.2,1.9-0.2,2.2-1.3C346.1,75.4,345.8,74.6,345,74.4z"/>
	</g>
	<g class="st3">
		<path d="M347.6,71.9l-6-1.4l0.2-0.9l1.1,0.3v-0.1c-0.5-0.3-0.9-1-0.7-2l0.1-0.4l0.9,0.2l-0.1,0.5c-0.2,1,0.1,1.7,0.6,1.8l4.1,0.9
			L347.6,71.9z"/>
	</g>
	<g class="st3">
		<path d="M345.4,67.5c-1.9-0.4-2.9-1.8-2.5-3.4s1.8-2.3,3.5-1.9l0.4,0.1l-1,4.3l0.3,0.1c1,0.2,2-0.2,2.2-1.4
			c0.2-0.8-0.1-1.4-0.7-1.9l0.6-0.6c0.7,0.6,1.1,1.6,0.8,2.7C348.8,67.1,347.4,67.9,345.4,67.5z M345.1,66.4L345.1,66.4l0.8-3.3
			h-0.1c-1.1-0.2-1.9,0.2-2.1,1.2C343.5,65.2,344.1,66.1,345.1,66.4z"/>
		<path d="M351,56.9c-0.2,0.7-0.6,0.9-1.2,0.8v0.1c0.7,0.4,0.9,1.2,0.7,2c-0.3,1.3-1.2,1.9-2.3,1.6c-1.1-0.3-1.6-1.2-1.2-3l0.3-1.2
			l-0.6-0.1c-0.9-0.2-1.4,0.2-1.6,1.1c-0.2,0.7,0.1,1.3,0.6,1.7l-0.7,0.4c-0.6-0.5-0.9-1.3-0.7-2.4c0.3-1.4,1.3-2.1,2.6-1.9l3.3,0.8
			l0.2-0.7l0.8,0.2L351,56.9z M349,57.6l-1-0.2l-0.3,1.2c-0.2,1.1,0,1.6,0.6,1.8l0.2,0.1c0.6,0.1,1-0.3,1.2-1
			C350,58.5,349.6,57.7,349,57.6z"/>
	</g>
	<g class="st3">
		<path d="M352.3,51.2l-0.2,1l-8.2-1.9l0.7-3.3c0.3-1.4,1.4-2.1,2.8-1.8c1.2,0.3,1.9,1,1.9,2.1l4-1l-0.3,1.1l-3.9,1l-0.4,1.9
			L352.3,51.2z M348.5,47.9c0.2-0.8-0.1-1.3-0.9-1.5l-0.6-0.1c-0.7-0.2-1.3,0.2-1.5,1l-0.5,2.3l2.9,0.7L348.5,47.9z"/>
	</g>
	<g class="st3">
		<path d="M354.8,40.5c-0.2,0.7-0.6,0.9-1.2,0.8v0.1c0.7,0.4,0.9,1.2,0.7,2c-0.3,1.3-1.2,1.9-2.3,1.6c-1.1-0.3-1.6-1.2-1.2-3
			l0.3-1.2l-0.6-0.1c-0.9-0.2-1.4,0.2-1.6,1.1c-0.2,0.7,0.1,1.3,0.6,1.7l-0.7,0.4c-0.6-0.5-0.9-1.3-0.7-2.4c0.3-1.4,1.3-2.1,2.6-1.9
			l3.3,0.8l0.2-0.7l0.8,0.2L354.8,40.5z M352.8,41.2l-1-0.2l-0.3,1.2c-0.2,1.1,0,1.6,0.6,1.8l0.2,0.1c0.6,0.1,1-0.3,1.2-1
			C353.7,42.1,353.4,41.4,352.8,41.2z"/>
		<path d="M355.1,34.7L355.1,34.7c0.5,0.4,1,1,0.7,2c-0.3,1.2-1.3,1.8-2.8,1.5l-3.9-0.9l0.2-0.9l3.7,0.8c1.1,0.2,1.7-0.1,1.9-1
			c0.2-0.7,0-1.5-0.8-1.7l-4.2-1l0.2-0.9l6,1.4l-0.2,0.9L355.1,34.7z"/>
		<path d="M353.6,31.8c-1.9-0.4-2.9-1.7-2.5-3.4c0.3-1.2,1-1.8,1.9-1.9l0.2,0.9c-0.7,0.1-1.2,0.5-1.3,1.2c-0.3,1.1,0.4,1.9,1.4,2.1
			l1,0.2c1.1,0.2,1.9-0.2,2.2-1.3c0.2-0.8-0.1-1.4-0.7-1.9l0.6-0.6c0.8,0.6,1.2,1.5,0.9,2.6C357,31.5,355.5,32.2,353.6,31.8z"/>
		<path d="M349.4,24.2l0.2-0.9l3.6,0.8l0,0c-0.6-0.4-0.9-1.1-0.7-2c0.3-1.2,1.3-1.8,2.8-1.5l3.9,0.9l-0.2,0.9l-3.7-0.8
			c-1.1-0.2-1.7,0.1-1.9,1c-0.2,0.7,0,1.6,0.8,1.7l4.2,1l-0.2,0.9L349.4,24.2z"/>
	</g>
</g>
<g>
	<g class="st3">
		<path d="M510.7,334.1L510.7,334.1c-0.4,0.7-1.4,1.1-2.6,0.8c-2-0.5-3.1-2.3-2.4-5c0.6-2.7,2.3-3.9,4.4-3.4
			c1.5,0.3,2.3,1.3,2.6,2.5l-0.9,0.3c-0.2-1-0.8-1.7-1.8-1.9c-1.4-0.3-2.7,0.5-3,2.1l-0.3,1.3c-0.4,1.6,0.3,2.9,1.9,3.3
			c1.1,0.3,2.2-0.1,2.5-1.3l0.2-0.8l-1.8-0.4l0.2-0.9l2.8,0.6l-1,4.2l-0.9-0.2L510.7,334.1z"/>
		<path d="M514.5,329.9l0.9,0.2l-1.4,6l-0.9-0.2L514.5,329.9z M514.9,328v-0.2c0.1-0.3,0.3-0.5,0.7-0.4s0.5,0.3,0.5,0.7v0.2
			c-0.1,0.3-0.3,0.5-0.7,0.4S514.8,328.3,514.9,328z"/>
		<path d="M520.5,337.6c-0.7-0.2-0.9-0.6-0.8-1.2h-0.1c-0.4,0.7-1.2,0.9-2,0.7c-1.3-0.3-1.9-1.2-1.6-2.3c0.3-1.1,1.2-1.6,3-1.2
			l1.2,0.3l0.1-0.6c0.2-0.9-0.2-1.4-1.1-1.6c-0.7-0.2-1.3,0.1-1.7,0.6l-0.4-0.7c0.5-0.6,1.3-0.9,2.4-0.7c1.4,0.3,2.1,1.3,1.9,2.6
			l-0.8,3.3l0.7,0.2l-0.2,0.8L520.5,337.6z M519.8,335.6l0.2-1l-1.2-0.3c-1.1-0.2-1.6,0-1.8,0.6l-0.1,0.2c-0.1,0.6,0.3,1,1,1.2
			C518.8,336.6,519.6,336.3,519.8,335.6z"/>
		<path d="M522.3,338.1l1.4-6l0.9,0.2l-0.2,1l0,0c0.4-0.6,1.1-0.9,2-0.7c1.2,0.3,1.8,1.3,1.5,2.8l-0.9,3.9l-0.9-0.2l0.8-3.7
			c0.2-1.1-0.1-1.7-1-1.9c-0.7-0.2-1.6,0-1.7,0.8l-1,4.2L522.3,338.1z"/>
		<path d="M529.2,336.5c0.4-1.9,1.7-2.9,3.4-2.5c1.2,0.3,1.8,1,1.9,1.9l-0.9,0.2c-0.1-0.7-0.5-1.2-1.2-1.3c-1.1-0.3-1.9,0.4-2.1,1.4
			l-0.2,1c-0.2,1.1,0.2,1.9,1.3,2.2c0.8,0.2,1.4-0.1,1.9-0.7l0.6,0.6c-0.6,0.8-1.5,1.2-2.6,0.9C529.5,339.8,528.8,338.4,529.2,336.5
			z"/>
		<path d="M539.2,341.9c-0.7-0.2-0.9-0.6-0.8-1.2h-0.1c-0.4,0.7-1.2,0.9-2,0.7c-1.3-0.3-1.9-1.2-1.6-2.3c0.3-1.1,1.2-1.6,3-1.2
			l1.2,0.3l0.1-0.6c0.2-0.9-0.2-1.4-1.1-1.6c-0.7-0.2-1.3,0.1-1.7,0.6l-0.4-0.7c0.5-0.6,1.3-0.9,2.4-0.7c1.4,0.3,2.1,1.3,1.9,2.6
			l-0.8,3.3l0.7,0.2l-0.2,0.8L539.2,341.9z M538.5,339.9l0.2-1l-1.2-0.3c-1.1-0.2-1.6,0-1.8,0.6l-0.1,0.2c-0.1,0.6,0.3,1,1,1.2
			C537.6,340.9,538.4,340.5,538.5,339.9z"/>
		<path d="M541.1,342.3l1.4-6l0.9,0.2l-0.3,1.1h0.1c0.3-0.5,1-0.9,2-0.7l0.4,0.1l-0.2,0.9l-0.5-0.1c-1-0.2-1.7,0.1-1.8,0.6l-0.9,4.1
			L541.1,342.3z"/>
		<path d="M546.4,343.6c-0.6-0.1-0.9-0.6-0.8-1.2l1.8-7.7l0.9,0.2l-1.8,7.8l0.9,0.2l-0.2,0.8L546.4,343.6z"/>
		<path d="M548.8,340.9c0.4-1.9,1.8-2.9,3.4-2.5c1.6,0.4,2.4,1.9,2,3.8s-1.8,2.9-3.4,2.5C549.2,344.3,548.4,342.9,548.8,340.9z
			 M553.2,342.4l0.2-0.9c0.3-1.3-0.3-2.1-1.3-2.3c-1-0.2-1.9,0.2-2.2,1.5l-0.2,0.9c-0.3,1.3,0.3,2.1,1.3,2.3
			C552,344.1,552.9,343.7,553.2,342.4z"/>
	</g>
	<g class="st3">
		<path d="M504.4,348.7l0.2-0.8l1.1,0.3l1.5-6.5l-1.1-0.3l0.2-0.8l3.3,0.7l-0.2,0.8l-1.1-0.3l-1.5,6.5l1.1,0.3l-0.2,0.8L504.4,348.7
			z"/>
		<path d="M510.3,350.1c-0.6-0.1-0.9-0.6-0.8-1.2l1.8-7.7l0.9,0.2l-1.8,7.8l0.9,0.2l-0.2,0.8L510.3,350.1z"/>
		<path d="M513.9,344.6l0.9,0.2l-1.4,6l-0.9-0.2L513.9,344.6z M514.2,342.6v-0.2c0.1-0.3,0.3-0.5,0.7-0.4s0.5,0.3,0.5,0.7v0.2
			c-0.1,0.3-0.3,0.5-0.7,0.4S514.2,342.9,514.2,342.6z"/>
		<path d="M516.8,345.2l0.9,0.2l-0.2,1l0,0c0.5-0.7,1.2-0.9,2-0.7c1.5,0.3,2.2,1.8,1.7,3.7c-0.4,1.9-1.7,2.9-3.2,2.6
			c-0.8-0.2-1.3-0.7-1.5-1.5l0,0l-0.8,3.3l-0.9-0.2L516.8,345.2z M520.2,349.7l0.2-1c0.2-1.1-0.2-1.9-1.3-2.2
			c-0.9-0.2-1.7,0.1-1.8,0.8l-0.5,2.2c-0.2,0.8,0.4,1.4,1.3,1.6C519.1,351.4,520,350.8,520.2,349.7z"/>
	</g>
	<g class="st3">
		<path d="M522.2,352.8l1.4-6l0.9,0.2l-0.3,1.1h0.1c0.3-0.5,1-0.9,2-0.7l0.4,0.1l-0.2,0.9l-0.5-0.1c-1-0.2-1.7,0.1-1.8,0.6l-0.9,4.1
			L522.2,352.8z"/>
	</g>
	<g class="st3">
		<path d="M530.9,354.8c-0.7-0.2-0.9-0.6-0.8-1.2H530c-0.4,0.7-1.2,0.9-2,0.7c-1.3-0.3-1.9-1.2-1.6-2.3c0.3-1.1,1.2-1.6,3-1.2
			l1.2,0.3l0.1-0.6c0.2-0.9-0.2-1.4-1.1-1.6c-0.7-0.2-1.3,0.1-1.7,0.6l-0.4-0.7c0.5-0.6,1.3-0.9,2.4-0.7c1.4,0.3,2.1,1.3,1.9,2.6
			L531,354l0.7,0.2l-0.2,0.8L530.9,354.8z M530.2,352.8l0.2-1l-1.2-0.3c-1.1-0.2-1.6,0-1.8,0.6l-0.1,0.2c-0.1,0.6,0.3,1,1,1.2
			C529.2,353.7,530,353.4,530.2,352.8z"/>
		<path d="M532.7,355.2l1.4-6l0.9,0.2l-0.2,1l0,0c0.4-0.6,1.1-0.9,2-0.7c1.2,0.3,1.8,1.3,1.5,2.8l-0.9,3.9l-0.9-0.2l0.8-3.7
			c0.2-1.1-0.1-1.7-1-1.9c-0.7-0.2-1.6,0-1.7,0.8l-1,4.2L532.7,355.2z"/>
		<path d="M543.4,356.6L543.4,356.6c-0.6,0.7-1.2,0.9-2.1,0.7c-1.5-0.3-2.2-1.8-1.7-3.7c0.4-1.9,1.7-2.9,3.2-2.6
			c0.8,0.2,1.4,0.7,1.5,1.5l0,0l0.8-3.6l0.9,0.2l-2,8.7l-0.9-0.2L543.4,356.6z M543.7,355.7l0.5-2.2c0.2-0.7-0.4-1.3-1.3-1.5
			c-1.1-0.2-1.9,0.3-2.1,1.4l-0.2,1c-0.2,1.1,0.2,2,1.3,2.2C542.7,356.7,543.5,356.5,543.7,355.7z"/>
		<path d="M547.5,352.2l0.9,0.2l-1.4,6l-0.9-0.2L547.5,352.2z M547.9,350.3v-0.2c0.1-0.3,0.3-0.5,0.7-0.4s0.5,0.3,0.5,0.7v0.2
			c-0.1,0.3-0.3,0.5-0.7,0.4S547.8,350.6,547.9,350.3z"/>
	</g>
</g>
<g>
	<g class="st3">
		<path d="M457.1,416.2l1.1,0.8l-0.9,5l0,0l4.7-2l1,0.8l-5.2,6.5l-0.8-0.6l4.4-5.5l0,0l-1.4,0.7l-3.8,1.6l0.7-4.1l0.3-1.5l0,0
			l-4.4,5.5l-0.8-0.6L457.1,416.2z"/>
		<path d="M463,431.6c-0.6-0.4-0.5-1-0.2-1.5l0,0c-0.7,0.4-1.4,0.3-2.1-0.2c-1-0.8-1.2-1.9-0.5-2.8s1.8-0.9,3.2,0.2l1,0.8l0.4-0.5
			c0.5-0.7,0.5-1.4-0.3-2c-0.6-0.5-1.2-0.5-1.8-0.3l-0.1-0.8c0.7-0.3,1.6-0.3,2.5,0.4c1.2,0.9,1.4,2.1,0.6,3.1l-2.1,2.7l0.6,0.4
			l-0.5,0.7L463,431.6z M463.2,429.5l0.6-0.8l-1-0.8c-0.9-0.7-1.4-0.7-1.8-0.3l-0.2,0.2c-0.4,0.5-0.2,1,0.4,1.5
			C462,429.9,462.8,430,463.2,429.5z"/>
	</g>
	<g class="st3">
		<path d="M464.5,432.8l3.9-4.8l0.8,0.6l-0.7,0.9l0,0c0.5-0.3,1.3-0.4,2.1,0.2l0.3,0.2l-0.6,0.8l-0.4-0.4c-0.8-0.6-1.6-0.7-1.9-0.2
			l-2.6,3.3L464.5,432.8z"/>
	</g>
	<g class="st3">
		<path d="M469.4,432.8c1.2-1.5,2.8-1.9,4.2-0.8c1,0.8,1.2,1.7,0.9,2.6l-0.9-0.2c0.2-0.6,0-1.3-0.6-1.7c-0.9-0.7-1.8-0.5-2.5,0.4
			l-0.7,0.8c-0.7,0.8-0.7,1.8,0.2,2.5c0.6,0.5,1.3,0.5,2,0.2l0.3,0.8c-0.9,0.4-1.8,0.4-2.8-0.3C468.2,435.9,468.2,434.3,469.4,432.8
			z"/>
	</g>
	<g class="st3">
		<path d="M474.1,436.5c1.2-1.5,2.9-1.8,4.2-0.8c1.3,1,1.4,2.7,0.2,4.3c-1.2,1.5-2.9,1.8-4.2,0.8C473,439.7,472.9,438,474.1,436.5z
			 M477.4,439.7l0.6-0.7c0.8-1,0.6-2-0.2-2.6c-0.8-0.6-1.8-0.6-2.6,0.4l-0.6,0.7c-0.8,1-0.6,2,0.2,2.6S476.6,440.7,477.4,439.7z"/>
	</g>
	<g class="st3">
		<path d="M481.5,446.4l3-8.3l0.8,0.7l-1.6,4.2l-1.2,3l0,0l2.7-1.9l3.7-2.4l0.8,0.7l-7.4,4.8L481.5,446.4z"/>
	</g>
	<g class="st3">
		<path d="M487,446.8c1.2-1.5,2.9-1.8,4.2-0.8c1.3,1,1.4,2.7,0.2,4.3c-1.2,1.5-2.9,1.8-4.2,0.8C485.9,450,485.8,448.3,487,446.8z
			 M490.3,450l0.6-0.7c0.8-1,0.6-2-0.2-2.6c-0.8-0.6-1.8-0.6-2.6,0.4l-0.6,0.7c-0.8,1-0.6,2,0.2,2.6S489.5,451,490.3,450z"/>
		<path d="M491.5,454.3c-0.5-0.4-0.5-1-0.2-1.4l4.9-6.2l0.8,0.6l-5,6.3l0.7,0.6l-0.5,0.7L491.5,454.3z"/>
		<path d="M497.1,450.9l0.8,0.6l-0.6,0.8l0,0c0.7-0.4,1.5-0.3,2.1,0.2c1.2,1,1.2,2.6,0,4.1s-2.8,1.9-4,1c-0.7-0.5-0.9-1.2-0.7-2l0,0
			l-2.1,2.7l-0.8-0.6L497.1,450.9z M498.2,456.4l0.7-0.8c0.7-0.9,0.6-1.9-0.2-2.5c-0.7-0.5-1.6-0.6-2-0.1l-1.4,1.8
			c-0.5,0.6-0.2,1.4,0.5,2C496.5,457.4,497.5,457.2,498.2,456.4z"/>
		<path d="M502.2,462.9c-0.6-0.4-0.5-1-0.2-1.5l0,0c-0.7,0.4-1.4,0.3-2.1-0.2c-1-0.8-1.2-1.9-0.5-2.8s1.8-0.9,3.2,0.2l1,0.8l0.4-0.5
			c0.5-0.7,0.5-1.4-0.3-2c-0.6-0.5-1.2-0.5-1.8-0.3l-0.1-0.8c0.7-0.3,1.6-0.3,2.5,0.4c1.2,0.9,1.4,2.1,0.6,3.1l-2.1,2.7l0.6,0.4
			l-0.5,0.7L502.2,462.9z M502.4,460.7l0.6-0.8l-1-0.8c-0.9-0.7-1.4-0.7-1.8-0.3L500,459c-0.4,0.5-0.2,1,0.4,1.5
			C501.2,461.2,502,461.2,502.4,460.7z"/>
		<path d="M504.7,464.9c-0.5-0.4-0.5-1-0.2-1.4l2.7-3.4l-0.8-0.6l0.5-0.7l0.5,0.4c0.3,0.3,0.5,0.2,0.8-0.1l0.7-0.9l0.7,0.5l-1.1,1.3
			l1.1,0.8l-0.5,0.7l-1.1-0.8l-2.8,3.5l1,0.8l-0.5,0.7L504.7,464.9z"/>
		<path d="M510.8,461.8l0.8,0.6l-3.9,4.8l-0.8-0.6L510.8,461.8z M512,460.2l0.1-0.1c0.2-0.3,0.5-0.3,0.8-0.1
			c0.3,0.3,0.3,0.5,0.1,0.8l-0.1,0.1c-0.2,0.3-0.5,0.3-0.8,0.1S511.8,460.5,512,460.2z"/>
	</g>
</g>
<g>
	<g class="st3">
		<path d="M392.2,470.7l7.2-4.2l1.7,2.9c0.8,1.3,0.4,2.5-0.9,3.2s-2.5,0.5-3.2-0.8l-1.2-2l-3.1,1.8L392.2,470.7z M396.6,469.3l1.2,2
			c0.4,0.7,1,0.9,1.7,0.5l0.5-0.3c0.7-0.4,0.8-1,0.4-1.7l-1.2-2L396.6,469.3z"/>
		<path d="M401.1,473.8l0.5,0.8l-5.4,3.1l-0.5-0.8L401.1,473.8z M402.8,472.7l0.1-0.1c0.3-0.2,0.6-0.1,0.8,0.2s0.1,0.6-0.2,0.8
			l-0.1,0.1c-0.3,0.2-0.6,0.1-0.8-0.2C402.4,473.2,402.5,472.9,402.8,472.7z"/>
		<path d="M399.7,477.6c1.7-1,3.4-0.7,4.2,0.8c0.8,1.4,0.2,3-1.3,3.8l-0.4,0.2l-2.2-3.9l-0.2,0.1c-0.9,0.5-1.3,1.5-0.7,2.5
			c0.4,0.7,1,1,1.8,0.9l-0.1,0.8c-0.9,0.1-1.9-0.4-2.4-1.4C397.5,480.1,398,478.6,399.7,477.6z M400.7,478.2L400.7,478.2l1.6,3
			l0.1-0.1c0.9-0.5,1.2-1.5,0.8-2.3C402.7,477.9,401.7,477.6,400.7,478.2z"/>
		<path d="M400.6,485.2l5.4-3.1l0.5,0.8l-1,0.6v0.1c0.6-0.1,1.4,0.1,1.9,1l0.2,0.3l-0.8,0.5l-0.3-0.5c-0.5-0.9-1.2-1.2-1.7-0.9
			l-3.8,2L400.6,485.2z"/>
		<path d="M403.3,489.9c-0.3-0.6-0.1-1.1,0.4-1.4l6.8-3.9l0.5,0.8l-7,4l0.5,0.8l-0.7,0.4L403.3,489.9z"/>
		<path d="M407.2,494.7L407.2,494.7c-0.7,0-1.4-0.1-1.9-1c-0.6-1.1-0.3-2.2,1-3l3.4-2l0.5,0.8l-3.3,1.9c-1,0.6-1.2,1.3-0.7,2.1
			c0.4,0.7,1.1,1.1,1.8,0.7l3.7-2.1l0.5,0.8l-5.4,3.1l-0.5-0.8L407.2,494.7z"/>
		<path d="M413.2,494.7l0.5,0.8l-5.4,3.1l-0.5-0.8L413.2,494.7z M414.8,493.6l0.1-0.1c0.3-0.2,0.6-0.1,0.8,0.2s0.1,0.6-0.2,0.8
			l-0.1,0.1c-0.3,0.2-0.6,0.1-0.8-0.2C414.5,494,414.6,493.7,414.8,493.6z"/>
		<path d="M408.2,503.5c-1-1.7-0.9-2.6,0-3.1c0.6-0.3,1.1-0.2,1.5,0.3l0.1-0.1c0-0.4,0.1-0.7,0.5-0.9c0.5-0.3,1-0.1,1.5,0.4l0,0
			c-0.1-0.8,0.3-1.5,1.1-2c1.1-0.6,2.3-0.3,3,0.9c0.2,0.4,0.3,0.8,0.4,1.1l0.1-0.1c0.4-0.2,0.8-0.2,1.1,0.2l0.5,0.8l-0.7,0.4l-0.6-1
			l-0.3,0.2c-0.1,0.6-0.5,1.1-1,1.4c-1.1,0.6-2.3,0.3-3-1c-0.1-0.2-0.2-0.4-0.2-0.5c-0.3-0.3-0.7-0.6-1-0.4s-0.2,0.6,0.1,1.1
			l0.7,1.1c0.8,1.3,0.6,2.2-0.3,2.7C410.2,505.9,409.2,505.3,408.2,503.5z M410.9,503l-1-1.8c-0.4-0.3-0.7-0.3-1-0.1
			c-0.5,0.3-0.7,0.8-0.2,1.7l0.4,0.8c0.5,0.9,1.1,1.3,1.7,1C411.2,504.2,411.4,503.8,410.9,503z M414.6,501.4l0.3-0.2
			c0.7-0.4,0.8-1,0.4-1.8c-0.4-0.7-1-1-1.7-0.6l-0.3,0.2c-0.7,0.4-0.8,1-0.4,1.8C413.3,501.5,413.8,501.8,414.6,501.4z"/>
		<path d="M417.8,502.8l0.5,0.8l-5.4,3.1l-0.5-0.8L417.8,502.8z M419.5,501.7l0.1-0.1c0.3-0.2,0.6-0.1,0.8,0.2
			c0.2,0.4,0.1,0.6-0.2,0.8l-0.1,0.1c-0.3,0.2-0.6,0.1-0.8-0.2S419.2,501.8,419.5,501.7z"/>
		<path d="M418.8,508.5c2.4-1.4,4.4-1.1,5.5,0.7c0.7,1.2,0.6,2.4-0.1,3.4l-0.8-0.5c0.6-0.7,0.7-1.6,0.2-2.5
			c-0.7-1.2-2.1-1.4-3.6-0.6l-1.1,0.6c-1.5,0.9-2,2.1-1.2,3.4c0.5,0.9,1.4,1.3,2.4,1.1v0.9c-1.3,0.1-2.4-0.4-3.1-1.6
			C415.7,511.8,416.4,509.9,418.8,508.5z"/>
		<path d="M421.6,515.4c1.7-1,3.4-0.7,4.2,0.8c0.8,1.4,0.2,3-1.3,3.8l-0.4,0.2l-2.2-3.9l-0.2,0.1c-0.9,0.5-1.3,1.5-0.7,2.5
			c0.4,0.7,1,1,1.8,0.9l-0.1,0.8c-0.9,0.1-1.9-0.4-2.4-1.4C419.3,518,419.9,516.4,421.6,515.4z M422.6,516L422.6,516l1.6,3l0.1-0.1
			c0.9-0.5,1.2-1.5,0.8-2.3C424.6,515.7,423.5,515.5,422.6,516z"/>
		<path d="M422.4,523.1l5.4-3.1l0.5,0.8l-1,0.6v0.1c0.6-0.1,1.4,0.1,1.9,1l0.2,0.3l-0.8,0.5l-0.3-0.5c-0.5-0.9-1.2-1.2-1.7-0.9
			L423,524L422.4,523.1z"/>
		<path d="M424.6,526.9l5.4-3.1l0.5,0.8l-1,0.6v0.1c0.6-0.1,1.4,0.1,1.9,1l0.2,0.3l-0.8,0.5l-0.3-0.5c-0.5-0.9-1.2-1.2-1.7-0.9
			l-3.6,2.1L424.6,526.9z"/>
		<path d="M432.2,527.6l0.5,0.8l-5.4,3.1l-0.5-0.8L432.2,527.6z M433.8,526.5l0.1-0.1c0.3-0.2,0.6-0.1,0.8,0.2s0.1,0.6-0.2,0.8
			l-0.1,0.1c-0.3,0.2-0.6,0.1-0.8-0.2C433.5,526.9,433.6,526.7,433.8,526.5z"/>
	</g>
</g>
<g>
	<g class="st3">
		<path d="M363.3,484l7.8-3.1l1.8,4.6l-0.8,0.3l-1.5-3.7l-2.6,1l1.3,3.4l-0.8,0.3l-1.3-3.4l-3.5,1.4L363.3,484z"/>
	</g>
	<g class="st3">
		<path d="M368.3,488.3c1.8-0.7,3.4-0.2,4,1.4c0.6,1.5-0.2,3-1.8,3.6l-0.4,0.2l-1.6-4.1l-0.3,0.1c-1,0.4-1.5,1.3-1.1,2.4
			c0.3,0.7,0.9,1.1,1.6,1.2l-0.2,0.8c-0.9-0.1-1.8-0.7-2.2-1.8C365.7,490.5,366.5,489,368.3,488.3z M369.2,489L369.2,489l1.2,3.2
			h0.1c1-0.4,1.5-1.3,1.1-2.2C371.2,489,370.2,488.6,369.2,489z"/>
	</g>
	<g class="st3">
		<path d="M368,496l5.8-2.3l0.4,0.9L373,495v0.1c0.6,0,1.3,0.3,1.7,1.2l0.1,0.3L374,497l-0.2-0.5c-0.4-1-1-1.4-1.6-1.2l-3.9,1.5
			L368,496z"/>
	</g>
	<g class="st3">
		<path d="M372.3,498.5c1.8-0.7,3.4-0.2,4,1.4c0.6,1.5-0.2,3-1.8,3.6l-0.4,0.2l-1.6-4.1l-0.3,0.1c-1,0.4-1.5,1.3-1.1,2.4
			c0.3,0.7,0.9,1.1,1.6,1.2l-0.2,0.8c-0.9-0.1-1.8-0.7-2.2-1.8C369.7,500.7,370.5,499.2,372.3,498.5z M373.2,499.2L373.2,499.2
			l1.2,3.2h0.1c1-0.4,1.5-1.3,1.1-2.2C375.2,499.2,374.2,498.8,373.2,499.2z"/>
		<path d="M372,506.1l5.8-2.3l0.4,0.9l-0.9,0.4l0,0c0.8,0,1.4,0.3,1.7,1.2c0.5,1.2,0,2.2-1.4,2.8l-3.7,1.5l-0.4-0.9l3.5-1.4
			c1-0.4,1.4-1.1,1-1.9c-0.3-0.7-0.9-1.3-1.6-1l-4,1.6L372,506.1z"/>
		<path d="M377.2,510.9c1.8-0.7,3.4-0.2,4,1.4c0.4,1.1,0.2,2-0.5,2.7l-0.7-0.6c0.5-0.4,0.7-1.1,0.4-1.8c-0.4-1.1-1.4-1.3-2.4-0.9
			l-1,0.4c-1,0.4-1.5,1.2-1.1,2.3c0.3,0.7,0.8,1.1,1.6,1.2l-0.2,0.8c-1,0-1.8-0.6-2.2-1.7C374.5,513.1,375.3,511.7,377.2,510.9z"/>
		<path d="M377.8,520.8l7.8-3.1l1.2,3.1c0.5,1.4,0,2.5-1.4,3.1s-2.5,0.1-3.1-1.3l-0.8-2.2l-3.3,1.3L377.8,520.8z M382.3,520.1
			l0.8,2.2c0.3,0.7,0.9,1,1.6,0.7l0.6-0.2c0.7-0.3,0.9-0.9,0.7-1.6l-0.9-2.2L382.3,520.1z"/>
		<path d="M386.1,525.3l0.4,0.9l-5.8,2.3l-0.4-0.9L386.1,525.3z M387.9,524.4l0.1-0.1c0.3-0.1,0.6,0,0.7,0.4s0,0.6-0.3,0.7l-0.1,0.1
			c-0.3,0.1-0.6,0-0.7-0.3C387.5,524.8,387.6,524.5,387.9,524.4z"/>
		<path d="M381.5,530.3l5.8-2.3l0.4,0.9l-0.9,0.4l0,0c0.8,0,1.4,0.3,1.7,1.2c0.5,1.2,0,2.2-1.4,2.8l-3.7,1.5l-0.4-0.9l3.5-1.4
			c1-0.4,1.4-1.1,1-1.9c-0.3-0.7-0.9-1.3-1.6-1l-4,1.6L381.5,530.3z"/>
	</g>
	<g class="st3">
		<path d="M384.5,537.9c-0.2-0.6,0-1.1,0.6-1.3l4-1.6l-0.4-0.9l0.8-0.3l0.2,0.5c0.1,0.4,0.3,0.4,0.7,0.3l1.1-0.4l0.3,0.8l-1.6,0.6
			l0.5,1.3l-0.8,0.3l-0.5-1.3l-4.2,1.6l0.5,1.2l-0.8,0.3L384.5,537.9z"/>
	</g>
	<g class="st3">
		<path d="M388.2,539c1.8-0.7,3.4-0.2,4,1.4c0.6,1.5-0.2,3-1.8,3.6l-0.4,0.2l-1.6-4.1l-0.3,0.1c-1,0.4-1.5,1.3-1.1,2.4
			c0.3,0.7,0.9,1.1,1.6,1.2l-0.2,0.8c-0.9-0.1-1.8-0.7-2.2-1.8C385.6,541.2,386.4,539.7,388.2,539z M389.1,539.7L389.1,539.7
			l1.2,3.2h0.1c1-0.4,1.5-1.3,1.1-2.2C391.1,539.7,390.1,539.3,389.1,539.7z M392.9,540.2v-0.7l2.3,0.2l-0.1,1L392.9,540.2z"/>
		<path d="M387.9,546.7l5.8-2.3l0.4,0.9l-1.1,0.4v0.1c0.6,0,1.3,0.3,1.7,1.2l0.1,0.3l-0.9,0.4l-0.2-0.5c-0.4-1-1-1.4-1.6-1.2
			l-3.9,1.5L387.9,546.7z"/>
	</g>
</g>
<g>
	<g class="st3">
		<path d="M304.8,515l2.4-1l-0.3-3.4l-2.5-0.7l-0.1-1l8.6,2.3l0.1,1.3l-8.1,3.5L304.8,515z M312,511.9L312,511.9l-4.2-1.2l0.2,2.9
			L312,511.9z"/>
		<path d="M305,517.3l6.2-0.5l0.1,1l-1,0.1l0,0c0.7,0.2,1.2,0.7,1.3,1.7c0.1,1.3-0.7,2.1-2.2,2.2l-4,0.3l-0.1-1l3.8-0.3
			c1.1-0.1,1.6-0.6,1.6-1.5c-0.1-0.8-0.5-1.5-1.3-1.4l-4.3,0.3L305,517.3z"/>
		<path d="M311.7,523.6l0.1,1l-6.2,0.5l-0.1-1L311.7,523.6z M313.7,523.4h0.2c0.3,0,0.6,0.1,0.6,0.5s-0.2,0.6-0.5,0.6h-0.2
			c-0.3,0-0.6-0.1-0.6-0.5C313.1,523.6,313.3,523.4,313.7,523.4z"/>
		<path d="M305.8,528.5c0-0.7,0.3-1,0.9-1.1l4.3-0.3l-0.1-1l0.8-0.1v0.6c0,0.4,0.2,0.5,0.6,0.5l1.1-0.1l0.1,0.9l-1.7,0.1l0.1,1.4
			l-0.8,0.1l-0.1-1.4l-4.5,0.3l0.1,1.3l-0.8,0.1V528.5z"/>
		<path d="M306.4,535.8c-0.1-0.7,0.4-1,0.9-1.1v-0.1c-0.8-0.2-1.2-0.8-1.3-1.7c-0.1-1.3,0.6-2.1,1.7-2.2c1.2-0.1,1.9,0.7,2,2.5
			l0.1,1.2h0.6c0.9-0.1,1.3-0.6,1.2-1.6c-0.1-0.7-0.5-1.2-1-1.5l0.5-0.6c0.7,0.3,1.3,1,1.4,2.1c0.1,1.5-0.6,2.4-1.9,2.5l-3.4,0.3
			l0.1,0.7l-0.8,0.1L306.4,535.8z M308.1,534.5l1-0.1l-0.1-1.3c-0.1-1.1-0.5-1.6-1.1-1.5h-0.3c-0.6,0-0.9,0.5-0.9,1.3
			C306.9,533.9,307.5,534.6,308.1,534.5z"/>
		<path d="M311,542.5l-1.4-1.1l-2.8,0.2l-0.1-1l8.3-0.6l0.1,1l-4.4,0.3l0,0l1.5,1.1l3.2,2.3l0.1,1.2l-3.8-2.8l-4.5,3.7l-0.1-1.2
			L311,542.5z"/>
		<path d="M307.4,549.1c0-0.7,0.3-1,0.9-1.1l7.9-0.6l0.1,1l-8,0.6l0.1,0.9l-0.8,0.1L307.4,549.1z"/>
		<path d="M313.7,550.9l0.1,1l-6.2,0.5l-0.1-1L313.7,550.9z M315.7,550.6h0.2c0.3,0,0.6,0.1,0.6,0.5s-0.2,0.6-0.5,0.6h-0.2
			c-0.3,0-0.6-0.1-0.6-0.5C315.2,550.9,315.4,550.7,315.7,550.6z"/>
		<path d="M307.8,554.3l6.2-0.5l0.1,1l-1,0.1l0,0c0.7,0.2,1.2,0.7,1.3,1.7c0.1,1.3-0.7,2.1-2.2,2.2l-4,0.3l-0.1-1l3.8-0.3
			c1.1-0.1,1.6-0.6,1.6-1.5c-0.1-0.8-0.5-1.5-1.3-1.4l-4.3,0.3L307.8,554.3z"/>
		<path d="M308.2,560.5l0.8-0.1l4.8,3.2l-0.3-3.4l0.8-0.1l0.3,4.6l-0.7,0.1l-4.9-3.2l0.3,3.7l-0.8,0.1L308.2,560.5z"/>
	</g>
</g>
<g>
	<g class="st3">
		<path d="M215,557.5L215,557.5c0.7,0.5,1,1.4,0.6,2.7c-0.6,2-2.5,2.9-5.2,2c-2.7-0.8-3.7-2.6-3.1-4.7c0.4-1.4,1.5-2.2,2.7-2.4
			l0.2,0.9c-1,0.1-1.7,0.7-2,1.7c-0.4,1.4,0.3,2.7,1.9,3.2l1.3,0.4c1.6,0.5,2.9-0.1,3.4-1.7c0.3-1.1,0.1-2.2-1.1-2.6l-0.8-0.2
			l-0.5,1.8l-0.8-0.3l0.8-2.7l4.1,1.3l-0.3,0.9L215,557.5z"/>
		<path d="M209.1,552.9H209c-0.3-0.1-0.5-0.3-0.3-0.7c0.1-0.4,0.4-0.5,0.7-0.4h0.1c0.3,0.1,0.5,0.3,0.3,0.7
			C209.7,552.8,209.4,553,209.1,552.9z M211.1,553.3l0.3-0.9l5.9,1.8l-0.3,0.9L211.1,553.3z"/>
	</g>
	<g class="st3">
		<path d="M214.8,551.8c-1.9-0.6-2.8-2-2.3-3.6s2-2.3,3.9-1.7s2.8,2,2.3,3.6C218.2,551.7,216.7,552.4,214.8,551.8z M216.5,547.6
			l-0.8-0.3c-1.2-0.4-2.1,0.1-2.4,1.1s0.1,1.9,1.3,2.3l0.8,0.3c1.2,0.4,2.1-0.1,2.4-1.1C218.2,548.9,217.8,548,216.5,547.6z"/>
	</g>
	<g class="st3">
		<path d="M220.2,544.7l-6.6,0.3l0.3-0.9l3.3-0.1h2.2v-0.1l-1.8-1.3l-2.6-2l0.3-0.9l5.3,3.9L220.2,544.7z"/>
	</g>
	<g class="st3">
		<path d="M222.8,536.1c-0.2,0.7-0.7,0.8-1.3,0.7v0.1c0.6,0.5,0.8,1.2,0.6,2c-0.4,1.2-1.3,1.8-2.4,1.4c-1.1-0.3-1.5-1.3-1-3.1
			l0.4-1.2l-0.6-0.2c-0.8-0.3-1.4,0.1-1.7,1c-0.2,0.7,0,1.3,0.4,1.8l-0.7,0.4c-0.5-0.5-0.8-1.4-0.5-2.5c0.4-1.4,1.4-2,2.7-1.7l3.3,1
			l0.2-0.7l0.8,0.2L222.8,536.1z M220.8,536.7l-1-0.3l-0.4,1.2c-0.3,1-0.1,1.6,0.4,1.8l0.2,0.1c0.6,0.2,1.1-0.2,1.3-0.9
			C221.7,537.7,221.4,536.9,220.8,536.7z"/>
		<path d="M223.4,534.3l-5.9-1.8l0.3-0.9l1,0.3l0,0c-0.6-0.5-0.9-1.1-0.6-2c0.4-1.2,1.4-1.7,2.9-1.3l3.8,1.2l-0.3,0.9l-3.6-1.1
			c-1.1-0.3-1.7,0-2,0.8c-0.2,0.7-0.1,1.6,0.7,1.8l4.1,1.3L223.4,534.3z"/>
		<path d="M225.4,527.8l-5.9-1.8l0.3-0.9l1,0.3l0,0c-0.6-0.5-0.9-1.1-0.6-2c0.4-1.2,1.4-1.7,2.9-1.3l3.8,1.2l-0.3,0.9l-3.6-1.1
			c-1.1-0.3-1.7,0-2,0.8c-0.2,0.7-0.1,1.6,0.7,1.8l4.1,1.3L225.4,527.8z"/>
		<path d="M219.6,519h-0.1c-0.3-0.1-0.5-0.3-0.3-0.7c0.1-0.4,0.4-0.5,0.7-0.4h0.1c0.3,0.1,0.5,0.3,0.3,0.7S219.9,519.1,219.6,519z
			 M221.5,519.5l0.3-0.9l5.9,1.8l-0.3,0.9L221.5,519.5z"/>
		<path d="M229.2,515.6l-8-2.5l1-3.2c0.4-1.4,1.6-2,3-1.5c1.4,0.4,2,1.5,1.6,2.9l-0.7,2.2l3.4,1.1L229.2,515.6z M225.2,513.3
			l0.7-2.2c0.2-0.8,0-1.3-0.8-1.6l-0.6-0.2c-0.7-0.2-1.3,0.1-1.5,0.8l-0.7,2.2L225.2,513.3z"/>
		<path d="M223.4,506.5h-0.1c-0.3-0.1-0.5-0.3-0.3-0.7c0.1-0.4,0.4-0.5,0.7-0.4h0.1c0.3,0.1,0.5,0.3,0.3,0.7
			C224,506.4,223.8,506.5,223.4,506.5z M225.4,506.9l0.3-0.9l5.9,1.8l-0.3,0.9L225.4,506.9z"/>
		<path d="M232.2,505.9l-5.9-1.8l0.3-0.9l1,0.3l0,0c-0.6-0.5-0.9-1.1-0.6-2c0.4-1.2,1.4-1.7,2.9-1.3l3.8,1.2l-0.3,0.9l-3.6-1.1
			c-1.1-0.3-1.7,0-2,0.8c-0.2,0.7-0.1,1.6,0.7,1.8l4.1,1.3L232.2,505.9z"/>
	</g>
	<g class="st3">
		<path d="M234.6,498.1c-0.2,0.6-0.7,0.9-1.3,0.7l-4.1-1.3l-0.3,1l-0.8-0.2l0.2-0.6c0.1-0.4,0-0.6-0.4-0.7l-1.1-0.3l0.3-0.8l1.6,0.5
			l0.4-1.3l0.8,0.2l-0.4,1.3l4.3,1.3l0.4-1.2l0.8,0.2L234.6,498.1z"/>
	</g>
	<g class="st3">
		<path d="M232.3,494.9c-1.9-0.6-2.8-2-2.3-3.6s2-2.3,3.9-1.7c1.9,0.6,2.8,2,2.3,3.6S234.2,495.5,232.3,494.9z M234.1,490.7
			l-0.8-0.3c-1.2-0.4-2.1,0.1-2.4,1.1c-0.3,1,0.1,1.9,1.3,2.3l0.8,0.3c1.2,0.4,2.1-0.1,2.4-1.1S235.3,491.1,234.1,490.7z"/>
		<path d="M237.4,489l-5.9-1.8l0.3-0.9l1.1,0.3v-0.1c-0.5-0.4-0.9-1.1-0.6-2l0.1-0.4l0.9,0.3l-0.2,0.5c-0.3,1-0.1,1.7,0.5,1.9l4,1.2
			L237.4,489z"/>
		<path d="M230.8,482.5h-0.1c-0.3-0.1-0.5-0.3-0.3-0.7s0.4-0.5,0.7-0.4h0.1c0.3,0.1,0.5,0.3,0.3,0.7S231.1,482.6,230.8,482.5z
			 M232.8,483l0.3-0.9l5.9,1.8l-0.3,0.9L232.8,483z"/>
	</g>
</g>
<g>
	<g class="st3">
		<path d="M140.5,517l-2.5-0.7l-1.9,2.8l1.6,2.1l-0.6,0.8l-5.3-7.1l0.7-1.1l8.6,2.3L140.5,517z M133,514.9L133,514.9l2.5,3.5
			l1.6-2.4L133,514.9z"/>
		<path d="M142.4,514.2c-0.4,0.5-0.9,0.6-1.4,0.3l-6.5-4.4l0.5-0.8l6.6,4.5l0.5-0.8l0.7,0.5L142.4,514.2z"/>
		<path d="M136.3,507.4l0.5-0.8l3.1,2.1l0,0c-0.5-0.7-0.4-1.4,0.1-2.1c0.9-1.3,2.5-1.4,4.1-0.3s2.1,2.6,1.3,3.9
			c-0.5,0.7-1.1,1-2,0.8l0,0l0.8,0.6l-0.5,0.8L136.3,507.4z M144,507.4l-0.9-0.6c-0.9-0.6-1.9-0.5-2.5,0.4c-0.5,0.7-0.5,1.6,0.1,2
			l1.9,1.3c0.7,0.5,1.4,0.1,1.9-0.6C145.1,509,144.9,508,144,507.4z"/>
		<path d="M144.8,505.2c-1.6-1.1-2.1-2.7-1.1-4.1c0.9-1.4,2.6-1.5,4-0.5l0.4,0.3l-2.5,3.7l0.2,0.2c0.9,0.6,1.9,0.5,2.6-0.5
			c0.4-0.6,0.5-1.4,0.1-2l0.8-0.3c0.5,0.8,0.4,1.9-0.2,2.8C148.1,506.2,146.4,506.4,144.8,505.2z M144.9,504.1L144.9,504.1l2-2.8
			l-0.1-0.1c-0.9-0.6-1.9-0.5-2.4,0.3C143.8,502.4,144,503.5,144.9,504.1z"/>
		<path d="M151.5,498.5l-0.1-1c1,0,1.7-0.4,2.3-1.2c0.7-1,0.5-1.9-0.3-2.4c-0.7-0.4-1.2-0.3-2.1,0.5l-0.5,0.5
			c-1.1,1.1-2.2,1.4-3.2,0.7c-1.2-0.8-1.3-2.2-0.3-3.6c0.7-1,1.6-1.5,2.7-1.5v0.9c-0.8,0-1.5,0.3-2,1.1c-0.6,0.9-0.6,1.7,0.2,2.2
			c0.7,0.4,1.2,0.2,2-0.5l0.5-0.5c1.2-1.1,2.2-1.3,3.2-0.6c1.3,0.9,1.5,2.3,0.5,3.8C153.6,498,152.7,498.5,151.5,498.5z"/>
	</g>
	<g class="st3">
		<path d="M157.6,491.9c-0.4,0.5-0.9,0.6-1.4,0.3l-3.6-2.4l-0.6,0.8l-0.7-0.5l0.3-0.5c0.2-0.3,0.2-0.5-0.2-0.8l-1-0.6l0.5-0.7l1.4,1
			l0.8-1.1l0.7,0.5L153,489l3.7,2.5l0.7-1l0.7,0.5L157.6,491.9z"/>
	</g>
	<g class="st3">
		<path d="M156.4,488.3c-1.6-1.1-2.1-2.7-1.1-4.1c0.9-1.4,2.6-1.5,4-0.5l0.4,0.3l-2.5,3.7l0.2,0.2c0.9,0.6,1.9,0.5,2.6-0.5
			c0.4-0.6,0.5-1.4,0.1-2l0.8-0.3c0.5,0.8,0.4,1.9-0.2,2.8C159.7,489.2,158,489.4,156.4,488.3z M156.5,487.1L156.5,487.1l2-2.8
			l-0.1-0.1c-0.9-0.6-1.9-0.5-2.4,0.3C155.3,485.5,155.6,486.5,156.5,487.1z"/>
		<path d="M156.1,479.7l-0.1-0.1c-0.3-0.2-0.3-0.5-0.1-0.8s0.5-0.4,0.8-0.2l0.1,0.1c0.3,0.2,0.3,0.5,0.1,0.8
			C156.6,479.8,156.3,479.8,156.1,479.7z M157.8,480.7l0.5-0.8l5.1,3.5l-0.5,0.8L157.8,480.7z"/>
		<path d="M164.6,481.7l-5.1-3.5l0.5-0.8l0.8,0.6l0,0c-0.4-0.6-0.5-1.3,0-2.1c0.7-1.1,1.9-1.2,3.1-0.4l3.3,2.2l-0.5,0.8l-3.1-2.1
			c-0.9-0.6-1.6-0.5-2.2,0.2c-0.4,0.6-0.5,1.5,0.1,1.9l3.5,2.4L164.6,481.7z"/>
		<path d="M165.6,474.7c-1.6-1.1-2.1-2.7-1.1-4.1c0.9-1.4,2.6-1.5,4-0.5l0.4,0.3l-2.5,3.7l0.2,0.2c0.9,0.6,1.9,0.5,2.6-0.5
			c0.4-0.6,0.5-1.4,0.1-2l0.8-0.3c0.5,0.8,0.4,1.9-0.2,2.8C168.9,475.6,167.2,475.8,165.6,474.7z M165.7,473.6L165.7,473.6l2-2.8
			l-0.1-0.1c-0.9-0.6-1.9-0.5-2.4,0.3C164.6,471.9,164.8,472.9,165.7,473.6z"/>
		<path d="M172.1,470.6l-5.1-3.5l0.5-0.8l0.9,0.6l0,0c-0.4-0.5-0.5-1.3,0.1-2.1l0.2-0.3l0.8,0.5l-0.3,0.5c-0.6,0.9-0.6,1.6-0.1,1.9
			l3.5,2.4L172.1,470.6z"/>
	</g>
</g>
<g>
	<g class="st3">
		<path d="M90.4,461.8l1-0.9l4.8,1.7l0,0l-1.3-4.9l0.9-0.9l5.7,6.1l-0.7,0.7l-4.8-5.2l0,0l0.4,1.5l1,4l-3.9-1.3l-1.5-0.5l0,0
			l4.8,5.2l-0.7,0.7L90.4,461.8z"/>
		<path d="M97.6,455.4l-0.1-0.1c-0.2-0.2-0.2-0.5,0.1-0.8s0.6-0.2,0.8,0l0.1,0.1c0.2,0.2,0.2,0.5-0.1,0.8S97.8,455.6,97.6,455.4z
			 M99,456.8l0.7-0.7l4.2,4.5l-0.7,0.7L99,456.8z"/>
		<path d="M103,457.3c-1.3-1.4-1.5-3.1-0.2-4.2c0.9-0.8,1.8-0.9,2.7-0.5l-0.3,0.8c-0.6-0.3-1.2-0.2-1.8,0.3c-0.8,0.8-0.7,1.7,0,2.5
			l0.7,0.8c0.7,0.8,1.7,1,2.5,0.2c0.6-0.5,0.7-1.2,0.5-1.9l0.8-0.1c0.3,0.9,0.1,1.9-0.7,2.7C105.9,459,104.3,458.8,103,457.3z"/>
		<path d="M103.8,448.7l0.7-0.7l2.5,2.7l0,0c-0.3-0.7-0.2-1.4,0.5-2c0.9-0.9,2.1-0.8,3.1,0.3l2.7,2.9l-0.7,0.7l-2.6-2.8
			c-0.8-0.8-1.5-0.9-2.2-0.3c-0.6,0.5-0.8,1.3-0.3,1.9l2.9,3.1l-0.7,0.7L103.8,448.7z"/>
		<path d="M112.4,448.6c-1.3-1.4-1.4-3.1-0.2-4.3c1.2-1.1,2.8-0.9,4,0.4l0.3,0.3l-3.3,3l0.2,0.2c0.7,0.8,1.8,0.9,2.6,0.1
			c0.6-0.5,0.7-1.2,0.5-1.9l0.8-0.1c0.3,0.9,0,1.9-0.8,2.7C115.4,450.2,113.7,450,112.4,448.6z M112.7,447.5L112.7,447.5l2.6-2.3
			l-0.1-0.1c-0.7-0.8-1.7-0.9-2.4-0.2C112,445.6,112,446.7,112.7,447.5z"/>
		<path d="M120.4,445.4c-0.5,0.4-1,0.4-1.4,0l-5.4-5.8l0.7-0.7l5.5,5.9l0.7-0.6l0.6,0.6L120.4,445.4z"/>
		<path d="M119.6,441.9c-1.3-1.4-1.4-3.1-0.2-4.3c1.2-1.1,2.8-0.9,4,0.4l0.3,0.3l-3.3,3l0.2,0.2c0.7,0.8,1.8,0.9,2.6,0.1
			c0.6-0.5,0.8-1.2,0.5-1.9l0.8-0.1c0.3,0.9,0,1.9-0.8,2.7C122.6,443.5,120.9,443.3,119.6,441.9z M120,440.8L120,440.8l2.6-2.3
			l-0.1-0.1c-0.7-0.8-1.7-0.9-2.4-0.2C119.2,438.9,119.2,440,120,440.8z"/>
	</g>
	<g class="st3">
		<path d="M99.3,481.3l-5.7-6.1l2.4-2.3c1.1-1,2.3-0.9,3.3,0.2s1,2.3-0.1,3.3l-1.7,1.6l2.4,2.6L99.3,481.3z M97,477.3l1.7-1.6
			c0.6-0.5,0.6-1.2,0.1-1.7l-0.4-0.5c-0.5-0.6-1.2-0.6-1.7,0l-1.7,1.6L97,477.3z"/>
	</g>
	<g class="st3">
		<path d="M104.5,476.5l-4.2-4.5l0.7-0.7l0.8,0.8l0,0c-0.2-0.6-0.2-1.4,0.5-2l0.3-0.3l0.7,0.7l-0.4,0.4c-0.8,0.7-0.9,1.5-0.5,1.9
			l2.9,3.1L104.5,476.5z"/>
	</g>
	<g class="st3">
		<path d="M105.3,471.6c-1.3-1.4-1.4-3.1-0.2-4.3c1.2-1.1,2.9-1,4.2,0.5c1.3,1.4,1.4,3.1,0.2,4.3C108.3,473.2,106.6,473,105.3,471.6
			z M108.9,468.8l-0.6-0.7c-0.9-1-1.9-0.9-2.6-0.2c-0.8,0.7-0.9,1.7,0,2.6l0.6,0.7c0.9,1,1.9,0.9,2.6,0.2
			C109.7,470.7,109.8,469.8,108.9,468.8z"/>
	</g>
	<g class="st3">
		<path d="M113.5,468.1l-5.8-3.1l0.7-0.7l2.9,1.5l1.9,1.1l0,0l-0.9-2l-1.3-3l0.7-0.6l2.6,6L113.5,468.1z"/>
		<path d="M111.2,459.1l-0.1-0.1c-0.2-0.2-0.2-0.5,0.1-0.8s0.6-0.2,0.8,0l0.1,0.1c0.2,0.2,0.2,0.5-0.1,0.8S111.5,459.3,111.2,459.1z
			 M112.7,460.5l0.7-0.7l4.2,4.5l-0.7,0.7L112.7,460.5z"/>
		<path d="M119.1,463l-4.2-4.5l0.7-0.7l0.7,0.7l0,0c-0.3-0.7-0.2-1.4,0.5-2c0.9-0.9,2.1-0.8,3.1,0.3l2.7,2.9l-0.7,0.7l-2.6-2.8
			c-0.8-0.8-1.5-0.9-2.2-0.3c-0.6,0.5-0.8,1.3-0.3,1.9l2.9,3.1L119.1,463z"/>
		<path d="M121.6,456.4c-1.3-1.4-1.5-3.1-0.2-4.2c0.9-0.8,1.8-0.9,2.7-0.5l-0.3,0.8c-0.6-0.3-1.2-0.2-1.8,0.3
			c-0.8,0.8-0.7,1.7,0,2.5l0.7,0.8c0.7,0.8,1.7,1,2.5,0.2c0.6-0.5,0.7-1.2,0.5-1.9l0.8-0.1c0.3,0.9,0.1,1.9-0.7,2.7
			C124.6,458.1,123,457.8,121.6,456.4z"/>
		<path d="M122.9,448.3l-0.1-0.1c-0.2-0.2-0.2-0.5,0.1-0.8s0.6-0.2,0.8,0l0.1,0.1c0.2,0.2,0.2,0.5-0.1,0.8S123.1,448.5,122.9,448.3z
			 M124.3,449.7l0.7-0.7l4.2,4.5l-0.7,0.7L124.3,449.7z"/>
		<path d="M134,449.1c-0.5,0.5-1,0.4-1.5,0l0,0c0.3,0.7,0.1,1.5-0.5,2.1c-1,0.9-2,0.9-2.8,0s-0.6-1.9,0.7-3.1l0.9-0.8l-0.4-0.4
			c-0.6-0.6-1.3-0.7-2,0c-0.5,0.5-0.7,1.1-0.5,1.7h-0.8c-0.2-0.7,0-1.6,0.8-2.4c1.1-1,2.3-1,3.2-0.1l2.3,2.5l0.5-0.5l0.6,0.6
			L134,449.1z M131.9,448.6l-0.7-0.7l-0.9,0.9c-0.8,0.7-0.9,1.3-0.5,1.8l0.2,0.2c0.4,0.4,1,0.4,1.5-0.1
			C132.2,449.9,132.4,449,131.9,448.6z"/>
		<path d="M136.1,447.1c-0.5,0.4-1,0.4-1.4,0l-5.4-5.8l0.7-0.7l5.5,5.9l0.7-0.6l0.6,0.6L136.1,447.1z"/>
		<path d="M132.1,439.7l-0.1-0.1c-0.2-0.2-0.2-0.5,0.1-0.8s0.6-0.2,0.8,0l0.1,0.1c0.2,0.2,0.2,0.5-0.1,0.8S132.4,439.9,132.1,439.7z
			 M133.6,441.1l0.7-0.7l4.2,4.5l-0.7,0.7L133.6,441.1z"/>
	</g>
</g>
<g>
	<g class="st3">
		<path d="M66.7,425.6l-2-1.7l-2.9,1.7l0.5,2.6l-0.9,0.5l-1.7-8.7l1.1-0.6l6.7,5.8L66.7,425.6z M60.8,420.4L60.8,420.4l0.8,4.3
			l2.5-1.4L60.8,420.4z"/>
		<path d="M69.6,423.9c-0.6,0.3-1.1,0.1-1.4-0.4l-3.9-6.8l0.8-0.5l4,7l0.8-0.5l0.4,0.7L69.6,423.9z"/>
		<path d="M67.1,415.1l0.8-0.5l1.8,3.2l0,0c-0.1-0.8,0.3-1.5,1-1.9c1.3-0.8,2.8-0.2,3.8,1.5s0.8,3.3-0.6,4.1
			c-0.7,0.4-1.4,0.4-2.1-0.1l0,0l0.5,0.9l-0.8,0.5L67.1,415.1z M74,418.4l-0.5-0.9c-0.6-1-1.5-1.3-2.4-0.7c-0.8,0.4-1.1,1.2-0.8,1.8
			l1.2,2c0.4,0.7,1.3,0.7,2,0.3C74.3,420.4,74.5,419.4,74,418.4z"/>
		<path d="M75.6,416.9c-1-1.7-0.7-3.4,0.8-4.2c1.4-0.8,3-0.2,3.8,1.3l0.2,0.4l-3.9,2.2l0.1,0.2c0.5,0.9,1.5,1.3,2.5,0.7
			c0.7-0.4,1-1,0.9-1.8l0.8,0.1c0.1,0.9-0.4,1.9-1.4,2.4C78.2,419.1,76.6,418.6,75.6,416.9z M76.2,415.9L76.2,415.9l3-1.6l-0.1-0.1
			c-0.5-0.9-1.5-1.2-2.3-0.8C75.9,413.9,75.7,415,76.2,415.9z"/>
		<path d="M84.6,413.8l0.3-0.9c0.9,0.4,1.7,0.4,2.6-0.1c1-0.6,1.3-1.5,0.8-2.3c-0.4-0.7-1-0.8-2.1-0.5l-0.7,0.2
			c-1.5,0.5-2.6,0.3-3.2-0.8c-0.7-1.3-0.2-2.5,1.3-3.4c1.1-0.6,2.1-0.7,3.1-0.2l-0.4,0.9c-0.7-0.3-1.5-0.3-2.3,0.1
			c-0.9,0.5-1.3,1.3-0.8,2c0.4,0.7,1,0.7,2.1,0.4L86,409c1.6-0.5,2.6-0.2,3.2,0.9c0.8,1.3,0.3,2.7-1.2,3.6
			C86.7,414.2,85.6,414.2,84.6,413.8z"/>
	</g>
	<g class="st3">
		<path d="M92.9,410.5c-0.6,0.3-1.1,0.1-1.4-0.4l-2.2-3.7l-0.9,0.5l-0.4-0.7l0.5-0.3c0.4-0.2,0.4-0.4,0.2-0.8l-0.6-1l0.7-0.4
			l0.9,1.5l1.2-0.7l0.4,0.7l-1.2,0.7l2.3,3.9l1.1-0.6l0.4,0.7L92.9,410.5z"/>
	</g>
	<g class="st3">
		<path d="M93.4,406.6c-1-1.7-0.7-3.4,0.8-4.2c1.4-0.8,3-0.2,3.8,1.3l0.2,0.4l-3.9,2.2l0.1,0.2c0.5,0.9,1.5,1.3,2.5,0.7
			c0.7-0.4,1-1,0.9-1.8l0.8,0.1c0.1,0.9-0.4,1.9-1.4,2.4C96,408.9,94.4,408.3,93.4,406.6z M94,405.6L94,405.6l3-1.6l-0.1-0.1
			c-0.5-0.9-1.5-1.2-2.3-0.8C93.7,403.6,93.5,404.7,94,405.6z"/>
		<path d="M96.9,398.7l-0.1-0.1c-0.2-0.3-0.1-0.6,0.2-0.8s0.6-0.1,0.8,0.2l0.1,0.1c0.2,0.3,0.1,0.6-0.2,0.8
			C97.3,399.1,97,399,96.9,398.7z M98,400.4l0.8-0.5l3.1,5.4l-0.8,0.5L98,400.4z"/>
		<path d="M103.7,404.3l-3.1-5.4l0.8-0.5l0.5,0.9l0,0c-0.1-0.8,0.1-1.4,0.9-1.9c1.1-0.6,2.2-0.3,3,1l2,3.4l-0.8,0.5l-1.9-3.3
			c-0.6-1-1.2-1.2-2-0.7c-0.7,0.4-1.1,1.1-0.7,1.8l2.1,3.7L103.7,404.3z"/>
		<path d="M107.6,398.4c-1-1.7-0.7-3.4,0.8-4.2c1.4-0.8,3-0.2,3.8,1.3l0.2,0.4l-3.9,2.2l0.1,0.2c0.5,0.9,1.5,1.3,2.5,0.7
			c0.7-0.4,1-1,0.9-1.8l0.8,0.1c0.1,0.9-0.4,1.9-1.4,2.4C110.2,400.7,108.6,400.1,107.6,398.4z M108.2,397.4L108.2,397.4l3-1.6
			l-0.1-0.1c-0.5-0.9-1.5-1.2-2.3-0.8C107.9,395.4,107.7,396.5,108.2,397.4z"/>
		<path d="M115.3,397.6l-3.1-5.4l0.8-0.5l0.6,1h0.1c-0.1-0.6,0.1-1.4,1-1.9l0.3-0.2l0.5,0.8l-0.5,0.3c-0.9,0.5-1.2,1.2-0.9,1.7
			l2.1,3.6L115.3,397.6z"/>
	</g>
</g>
<g>
	<g class="st3">
		<path d="M30.9,373.3l-1.5-2.1l-3.2,1l-0.1,2.6l-1,0.3l0.3-8.9l1.2-0.4l5.3,7.1L30.9,373.3z M26.3,367L26.3,367l-0.2,4.3l2.8-0.9
			L26.3,367z"/>
		<path d="M33.1,372.6l-1.8-5.9l0.9-0.3l0.3,1l0,0c0.1-0.8,0.5-1.3,1.3-1.6c1.2-0.4,2.2,0.2,2.7,1.6l1.2,3.8l-0.9,0.3l-1.1-3.6
			c-0.3-1.1-0.9-1.5-1.8-1.2c-0.7,0.2-1.3,0.8-1.1,1.6l1.3,4.1L33.1,372.6z"/>
		<path d="M40.9,370.2c-0.6,0.2-1.1-0.1-1.3-0.7l-1.3-4.1l-1,0.3l-0.2-0.8l0.6-0.2c0.4-0.1,0.5-0.3,0.3-0.7l-0.3-1.1l0.8-0.3
			l0.5,1.6l1.3-0.4l0.2,0.8l-1.3,0.4l1.3,4.3l1.2-0.4l0.2,0.8L40.9,370.2z"/>
		<path d="M41,360.9l0.9-0.3l1.1,3.5l0,0c0.1-0.8,0.5-1.3,1.3-1.6c1.2-0.4,2.2,0.2,2.7,1.6l1.2,3.8l-0.9,0.3l-1.1-3.6
			c-0.3-1.1-1-1.5-1.8-1.2c-0.7,0.2-1.3,0.8-1.1,1.6l1.3,4.1l-0.9,0.3L41,360.9z"/>
		<path d="M48.8,364.6c-0.6-1.9,0.1-3.4,1.7-3.9c1.6-0.5,3,0.4,3.6,2.3s-0.1,3.4-1.7,3.9C50.9,367.3,49.4,366.4,48.8,364.6z
			 M53.3,363.6l-0.3-0.8c-0.4-1.2-1.3-1.6-2.3-1.3c-1,0.3-1.5,1.1-1.1,2.4l0.3,0.8c0.4,1.2,1.3,1.6,2.3,1.3S53.7,364.9,53.3,363.6z"
			/>
		<path d="M56.6,365.4l-1.8-5.9l0.9-0.3l0.3,1l0,0c0.1-0.8,0.5-1.3,1.3-1.6c1.2-0.4,2.2,0.2,2.7,1.6l1.2,3.8l-0.9,0.3l-1.1-3.6
			c-0.3-1.1-1-1.5-1.8-1.2c-0.7,0.2-1.3,0.8-1.1,1.6l1.3,4.1L56.6,365.4z"/>
		<path d="M63.4,354.5l3.3-1c1.3-0.4,2.4,0.2,2.8,1.4c0.4,1.2-0.3,1.9-0.8,2.1v0.1c0.6-0.1,1.7,0,2.1,1.4c0.4,1.3-0.2,2.6-1.3,3
			l-3.6,1.1L63.4,354.5z M65.5,357.7l2.2-0.7c0.8-0.2,1.1-0.8,0.9-1.5l-0.1-0.4c-0.2-0.7-0.8-1-1.6-0.7l-2.2,0.7L65.5,357.7z
			 M66.6,361.4l2.4-0.7c0.8-0.3,1.2-0.8,0.9-1.6l-0.1-0.4c-0.2-0.8-0.9-1.1-1.7-0.8l-2.4,0.7L66.6,361.4z"/>
		<path d="M72,357.4c-0.6-1.9,0.1-3.4,1.7-3.9s2.9,0.4,3.4,2.1l0.1,0.4l-4.3,1.3l0.1,0.3c0.3,1,1.2,1.6,2.3,1.2
			c0.7-0.2,1.2-0.8,1.3-1.5l0.8,0.3c-0.1,0.9-0.8,1.7-1.9,2.1C74,360.2,72.5,359.3,72,357.4z M72.8,356.6L72.8,356.6l3.3-0.9v-0.1
			c-0.3-1-1.2-1.5-2.1-1.3C72.9,354.6,72.4,355.6,72.8,356.6z"/>
		<path d="M78.3,355.5c-0.6-1.9,0.1-3.4,1.7-3.9s2.9,0.4,3.4,2.1l0.1,0.4l-4.3,1.3l0.1,0.3c0.3,1,1.2,1.6,2.3,1.2
			c0.7-0.2,1.2-0.8,1.3-1.5l0.8,0.3c-0.1,0.9-0.8,1.7-1.9,2.1C80.3,358.2,78.8,357.4,78.3,355.5z M79.1,354.6L79.1,354.6l3.3-0.9
			v-0.1c-0.3-1-1.2-1.5-2.1-1.3C79.2,352.6,78.7,353.6,79.1,354.6z"/>
	</g>
	<g class="st3">
		<path d="M83.3,347.9l0.9-0.3l1.7,5.4l0,0l0.6-1.3l1.1-2.3l1.1-0.3l-1.5,3l3.5,2.8l-1.1,0.3l-2.9-2.4l-0.6,1.2l0.7,2.1l-0.9,0.3
			L83.3,347.9z"/>
	</g>
	<g class="st3">
		<path d="M90.4,351.7c-0.6-1.9,0.1-3.4,1.7-3.9s2.9,0.4,3.4,2.1l0.1,0.4l-4.3,1.3l0.1,0.3c0.3,1,1.2,1.6,2.3,1.2
			c0.7-0.2,1.2-0.8,1.3-1.5l0.8,0.3c-0.1,0.9-0.8,1.7-1.9,2.1C92.4,354.5,91,353.6,90.4,351.7z M91.2,350.9L91.2,350.9l3.3-0.9v-0.1
			c-0.3-1-1.2-1.5-2.1-1.3C91.3,348.9,90.9,349.9,91.2,350.9z"/>
	</g>
</g>
<g>
	<g class="st3">
		<path d="M20.2,326.7l1.3-0.2l3,4.1h0.1l1.7-4.8l1.3-0.2l1.2,8.3l-1,0.1l-1.1-7h-0.1l-0.5,1.5l-1.4,3.9l-2.5-3.3l-0.9-1.3h-0.1
			l1.1,7l-1,0.1L20.2,326.7z"/>
		<path d="M35.5,332.9c-0.7,0.1-1-0.3-1.2-0.8h-0.1c-0.1,0.8-0.7,1.3-1.6,1.4c-1.3,0.2-2.2-0.4-2.3-1.5c-0.2-1.2,0.6-1.9,2.3-2.2
			l1.2-0.2l-0.1-0.6c-0.1-0.9-0.7-1.3-1.6-1.1c-0.7,0.1-1.2,0.5-1.4,1.1l-0.6-0.4c0.2-0.7,0.9-1.4,2-1.5c1.5-0.2,2.5,0.4,2.7,1.7
			l0.5,3.4l0.7-0.1l0.1,0.8L35.5,332.9z M34.1,331.2l-0.2-1l-1.3,0.2c-1.1,0.2-1.5,0.6-1.4,1.2v0.2c0.1,0.6,0.6,0.9,1.4,0.8
			C33.6,332.5,34.2,331.9,34.1,331.2z"/>
	</g>
	<g class="st3">
		<path d="M37.4,332.6l-0.9-6.1l0.9-0.1l0.2,1.1h0.1c0.1-0.6,0.6-1.2,1.6-1.4l0.4-0.1l0.1,0.9l-0.6,0.1c-1,0.2-1.6,0.7-1.5,1.3
			l0.6,4.2L37.4,332.6z"/>
	</g>
	<g class="st3">
		<path d="M40.7,328.9c-0.3-2,0.5-3.4,2.2-3.6c1.2-0.2,2,0.3,2.5,1.1l-0.7,0.5c-0.3-0.6-0.9-0.9-1.6-0.8c-1.1,0.2-1.6,1-1.4,2.1
			l0.2,1c0.2,1.1,0.9,1.8,2,1.6c0.8-0.1,1.3-0.6,1.5-1.3l0.8,0.4c-0.3,0.9-1,1.6-2.1,1.8C42.2,332,41,330.9,40.7,328.9z"/>
	</g>
	<g class="st3">
		<path d="M51.5,330.4l-1,0.2l-1.2-8.3l3.3-0.5c1.4-0.2,2.4,0.5,2.7,2c0.2,1.2-0.3,2.1-1.3,2.5l2.4,3.4l-1.1,0.2l-2.3-3.3l-1.9,0.3
			L51.5,330.4z M53.1,325.7c0.8-0.1,1.2-0.6,1.1-1.4l-0.1-0.6c-0.1-0.8-0.6-1.1-1.4-1l-2.3,0.3l0.5,3L53.1,325.7z"/>
	</g>
	<g class="st3">
		<path d="M56.9,326.5c-0.3-1.9,0.6-3.4,2.3-3.6c1.6-0.2,3,0.8,3.2,2.8c0.3,1.9-0.6,3.4-2.3,3.6C58.5,329.5,57.2,328.4,56.9,326.5z
			 M61.5,326.3l-0.1-0.9c-0.2-1.3-1-1.8-2-1.7c-1,0.2-1.6,0.9-1.5,2.2l0.1,0.9c0.2,1.3,1,1.8,2,1.7
			C61.1,328.3,61.7,327.5,61.5,326.3z"/>
		<path d="M63.2,319.7l0.9-0.1l0.6,3.7l0,0c0.2-0.7,0.6-1.3,1.6-1.4c1.3-0.2,2.2,0.5,2.4,2l0.6,3.9l-0.9,0.1l-0.6-3.8
			c-0.2-1.1-0.7-1.6-1.6-1.4c-0.8,0.1-1.4,0.6-1.3,1.4l0.6,4.2l-0.9,0.1L63.2,319.7z"/>
		<path d="M75.7,326.8c-0.7,0.1-1-0.3-1.2-0.8h-0.1c-0.1,0.8-0.7,1.3-1.6,1.4c-1.3,0.2-2.2-0.4-2.3-1.5c-0.2-1.2,0.6-1.9,2.3-2.2
			l1.2-0.2l-0.1-0.6c-0.1-0.9-0.7-1.3-1.6-1.1c-0.7,0.1-1.2,0.5-1.4,1.1l-0.6-0.4c0.2-0.7,0.9-1.4,2-1.5c1.5-0.2,2.5,0.4,2.7,1.7
			l0.5,3.4l0.7-0.1l0.1,0.8L75.7,326.8z M74.3,325.2l-0.2-1l-1.3,0.2c-1.1,0.2-1.5,0.6-1.4,1.2v0.2c0.1,0.6,0.6,0.9,1.4,0.8
			C73.8,326.4,74.4,325.8,74.3,325.2z"/>
		<path d="M77.6,326.5l-0.9-6.1l0.9-0.1l0.2,1l0,0c0.2-0.7,0.5-1.2,1.5-1.4c0.8-0.1,1.6,0.1,2.1,1l0,0c0.1-0.7,0.6-1.4,1.7-1.5
			c1.2-0.2,2.1,0.6,2.3,2l0.6,3.9l-0.9,0.1l-0.6-3.8c-0.2-1.1-0.7-1.6-1.6-1.4c-0.7,0.1-1.4,0.6-1.3,1.4l0.6,4.2l-0.9,0.1l-0.6-3.8
			c-0.2-1.1-0.7-1.6-1.6-1.5c-0.7,0.1-1.4,0.6-1.3,1.4l0.6,4.2L77.6,326.5z"/>
	</g>
</g>
<g>
	<g class="st3">
		<path d="M30.1,288.1L30.1,288.1c-0.2,0.8-1.1,1.4-2.4,1.4c-2.1,0-3.5-1.5-3.5-4.3s1.4-4.3,3.6-4.3c1.5,0,2.5,0.7,3,1.8l-0.8,0.5
			c-0.4-0.9-1.2-1.4-2.2-1.4c-1.5,0-2.5,1.1-2.5,2.7v1.4c0,1.7,1,2.8,2.6,2.8c1.2,0,2.1-0.6,2.1-1.8v-0.8h-1.8V285H31v4.3h-0.9
			V288.1z"/>
		<path d="M32.8,281.2V281c0-0.3,0.2-0.5,0.6-0.5s0.6,0.2,0.6,0.5v0.2c0,0.3-0.2,0.5-0.6,0.5S32.8,281.5,32.8,281.2z M32.9,283.2h1
			v6.2h-1V283.2z"/>
		<path d="M40.4,289.4c-0.7,0-1-0.4-1.1-1h-0.1c-0.3,0.8-0.9,1.2-1.8,1.2c-1.3,0-2.1-0.7-2.1-1.9c0-1.2,0.8-1.8,2.6-1.8h1.2v-0.6
			c0-0.9-0.5-1.4-1.5-1.4c-0.7,0-1.2,0.4-1.6,0.9l-0.6-0.5c0.3-0.7,1.1-1.2,2.2-1.2c1.5,0,2.4,0.8,2.4,2.1v3.4h1v0.8H40.4z
			 M39.3,287.6v-1H38c-1.1,0-1.6,0.3-1.6,0.9v0.3c0,0.6,0.5,1,1.2,1C38.6,288.7,39.3,288.2,39.3,287.6z"/>
		<path d="M42.3,289.4v-6.2h1v1l0,0c0.3-0.7,0.8-1.2,1.8-1.2c1.3,0,2.1,0.9,2.1,2.4v4h-1v-3.8c0-1.1-0.5-1.7-1.4-1.7
			c-0.8,0-1.5,0.4-1.5,1.2v4.3L42.3,289.4L42.3,289.4z"/>
		<path d="M48.7,286.3c0-2,1-3.2,2.8-3.2c1.2,0,2,0.6,2.3,1.5L53,285c-0.2-0.6-0.8-1-1.5-1c-1.1,0-1.7,0.8-1.7,1.9v1.1
			c0,1.1,0.6,1.9,1.7,1.9c0.8,0,1.3-0.4,1.7-1.1l0.7,0.5c-0.4,0.9-1.2,1.5-2.4,1.5C49.7,289.5,48.7,288.2,48.7,286.3z"/>
		<path d="M59.7,289.4c-0.7,0-1-0.4-1.1-1h-0.1c-0.3,0.8-0.9,1.2-1.8,1.2c-1.3,0-2.1-0.7-2.1-1.9c0-1.2,0.8-1.8,2.6-1.8h1.2v-0.6
			c0-0.9-0.5-1.4-1.5-1.4c-0.7,0-1.2,0.4-1.6,0.9l-0.6-0.5c0.3-0.7,1.1-1.2,2.2-1.2c1.5,0,2.4,0.8,2.4,2.1v3.4H60v0.8H59.7z
			 M58.6,287.6v-1h-1.3c-1.1,0-1.6,0.3-1.6,0.9v0.3c0,0.6,0.5,1,1.2,1C57.9,288.7,58.6,288.2,58.6,287.6z"/>
		<path d="M61.6,289.4v-6.2h1v1.1h0.1c0.2-0.6,0.8-1.1,1.8-1.1h0.4v1h-0.6c-1,0-1.7,0.4-1.7,1v4.2H61.6z"/>
		<path d="M67,289.4c-0.7,0-1-0.4-1-1v-7.9h1v8h0.9v0.8H67V289.4z"/>
		<path d="M68.8,286.3c0-2,1.1-3.2,2.8-3.2c1.7,0,2.8,1.3,2.8,3.2c0,2-1.1,3.2-2.8,3.2S68.8,288.2,68.8,286.3z M73.4,286.7v-0.9
			c0-1.3-0.7-1.9-1.8-1.9c-1,0-1.8,0.6-1.8,1.9v0.9c0,1.3,0.7,1.9,1.8,1.9C72.6,288.6,73.4,288,73.4,286.7z"/>
	</g>
	<g class="st3">
		<path d="M28.6,301.4v-0.8h1.2v-6.7h-1.2V293H32v0.8h-1.2v6.7H32v0.8h-3.4V301.4z"/>
		<path d="M34.7,301.4c-0.7,0-1-0.4-1-1v-7.9h1v8h0.9v0.8h-0.9V301.4z"/>
		<path d="M36.9,293.2V293c0-0.3,0.2-0.5,0.6-0.5s0.6,0.2,0.6,0.5v0.2c0,0.3-0.2,0.5-0.6,0.5S36.9,293.5,36.9,293.2z M37,295.2h1
			v6.2h-1V295.2z"/>
		<path d="M40,295.2h1v1l0,0c0.3-0.8,1-1.2,1.8-1.2c1.5,0,2.5,1.3,2.5,3.2c0,2-1,3.2-2.5,3.2c-0.9,0-1.4-0.4-1.8-1.2l0,0v3.4h-1
			V295.2z M44.3,298.8v-1.1c0-1.1-0.7-1.8-1.8-1.8c-0.9,0-1.6,0.5-1.6,1.2v2.3c0,0.8,0.7,1.3,1.6,1.3
			C43.6,300.6,44.3,299.9,44.3,298.8z"/>
	</g>
	<g class="st3">
		<path d="M46.9,301.4v-6.2h1v1.1H48c0.2-0.6,0.8-1.1,1.8-1.1h0.4v1h-0.6c-1,0-1.7,0.4-1.7,1v4.2H46.9z"/>
	</g>
	<g class="st3">
		<path d="M55.8,301.4c-0.7,0-1-0.4-1.1-1h-0.1c-0.3,0.8-0.9,1.2-1.8,1.2c-1.3,0-2.1-0.7-2.1-1.9c0-1.2,0.8-1.8,2.6-1.8h1.2v-0.6
			c0-0.9-0.5-1.4-1.5-1.4c-0.7,0-1.2,0.4-1.6,0.9l-0.6-0.5c0.3-0.7,1.1-1.2,2.2-1.2c1.5,0,2.4,0.8,2.4,2.1v3.4h0.7v0.8H55.8z
			 M54.7,299.6v-1h-1.3c-1.1,0-1.6,0.3-1.6,0.9v0.3c0,0.6,0.5,1,1.2,1C54,300.7,54.7,300.2,54.7,299.6z"/>
		<path d="M57.7,301.4v-6.2h1v1l0,0c0.3-0.7,0.8-1.2,1.8-1.2c1.3,0,2.1,0.9,2.1,2.4v4h-1v-3.8c0-1.1-0.5-1.7-1.4-1.7
			c-0.8,0-1.5,0.4-1.5,1.2v4.3L57.7,301.4L57.7,301.4z"/>
		<path d="M68.5,300.3L68.5,300.3c-0.4,0.8-1,1.2-1.9,1.2c-1.5,0-2.5-1.3-2.5-3.2c0-2,1-3.2,2.5-3.2c0.9,0,1.5,0.4,1.8,1.2l0,0v-3.7
			h1v8.9h-1L68.5,300.3L68.5,300.3z M68.5,299.4v-2.3c0-0.7-0.7-1.2-1.6-1.2c-1.1,0-1.8,0.7-1.8,1.8v1.1c0,1.1,0.7,1.8,1.8,1.8
			C67.8,300.6,68.5,300.2,68.5,299.4z"/>
		<path d="M71.4,293.2V293c0-0.3,0.2-0.5,0.6-0.5s0.6,0.2,0.6,0.5v0.2c0,0.3-0.2,0.5-0.6,0.5S71.4,293.5,71.4,293.2z M71.5,295.2h1
			v6.2h-1V295.2z"/>
	</g>
</g>
<g>
	<g class="st3">
		<path d="M29.3,246.9l2.8,0.4c2.1,0.3,3.2,1.9,2.8,4.6c-0.4,2.8-2,3.9-4,3.6l-2.8-0.4L29.3,246.9z M30.9,254.7
			c1.4,0.2,2.5-0.6,2.7-2.2l0.2-1.4c0.2-1.6-0.6-2.7-1.9-2.9l-1.8-0.3l-1,6.5L30.9,254.7z"/>
		<path d="M40.3,257c-0.7-0.1-0.9-0.6-0.9-1.2h-0.1c-0.4,0.7-1.1,1-1.9,0.9c-1.3-0.2-1.9-1-1.8-2.2c0.2-1.2,1.1-1.7,2.9-1.4l1.2,0.2
			l0.1-0.6c0.1-0.9-0.3-1.4-1.2-1.6c-0.7-0.1-1.3,0.2-1.7,0.7l-0.5-0.6c0.4-0.6,1.2-1,2.4-0.9c1.5,0.2,2.2,1.1,2,2.4l-0.5,3.4
			l0.7,0.1l-0.1,0.8H40.3z M39.5,255l0.2-1l-1.3-0.2c-1.1-0.2-1.6,0.1-1.7,0.7v0.2c-0.1,0.6,0.3,1,1.1,1.1
			C38.6,256.1,39.4,255.7,39.5,255z"/>
		<path d="M42.2,257.3l0.9-6.1l0.9,0.1l-0.1,1l0,0c0.4-0.6,1-1,1.9-0.9c1.3,0.2,1.9,1.2,1.7,2.6l-0.5,4l-0.9-0.1l0.6-3.8
			c0.2-1.1-0.2-1.7-1.1-1.9c-0.8-0.1-1.6,0.2-1.7,0.9l-0.6,4.2H42.2z"/>
	</g>
	<g class="st3">
		<path d="M50.3,258.5c-0.7-0.1-0.9-0.6-0.9-1.2L50,253l-1-0.2l0.1-0.8l0.6,0.1c0.4,0.1,0.6-0.1,0.6-0.5l0.2-1.1l0.9,0.1l-0.3,1.7
			l1.3,0.2l-0.1,0.8l-1.3-0.2l-0.7,4.5l1.2,0.2l-0.1,0.8L50.3,258.5z"/>
	</g>
	<g class="st3">
		<path d="M53.1,255.8c0.3-1.9,1.6-3,3.2-2.8c1.6,0.2,2.5,1.7,2.2,3.4l-0.1,0.5l-4.4-0.7v0.3c-0.2,1.1,0.4,2,1.5,2.1
			c0.8,0.1,1.4-0.2,1.8-0.8l0.6,0.6c-0.5,0.8-1.5,1.2-2.6,1C53.7,259.2,52.8,257.7,53.1,255.8z M54.2,255.4L54.2,255.4l3.4,0.6v-0.1
			c0.2-1.1-0.4-1.9-1.4-2C55.2,253.6,54.3,254.3,54.2,255.4z"/>
		<path d="M63.7,252.1l3.4,0.5c1.4,0.2,2.1,1.2,1.9,2.5c-0.2,1.2-1,1.6-1.6,1.6v0.1c0.6,0.1,1.5,0.8,1.3,2.2
			c-0.2,1.4-1.3,2.3-2.5,2.1l-3.8-0.6L63.7,252.1z M63.6,259.6l2.5,0.4c0.9,0.1,1.4-0.2,1.6-1.1l0.1-0.4c0.1-0.8-0.3-1.4-1.2-1.5
			l-2.5-0.4L63.6,259.6z M64.2,255.8l2.3,0.3c0.8,0.1,1.3-0.2,1.4-1l0.1-0.4c0.1-0.7-0.3-1.2-1.1-1.3l-2.3-0.3L64.2,255.8z"/>
		<path d="M71.1,255.4l0.9,0.1l-0.9,6.1l-0.9-0.1L71.1,255.4z M71.2,253.4v-0.2c0-0.3,0.3-0.5,0.7-0.4c0.4,0.1,0.5,0.3,0.5,0.6v0.2
			c0,0.3-0.3,0.5-0.7,0.4S71.2,253.7,71.2,253.4z"/>
		<path d="M74.9,264.8c-1.9-0.3-2.6-1-2.5-1.9c0.1-0.7,0.5-1,1.2-1v-0.1c-0.3-0.2-0.5-0.5-0.4-0.9c0.1-0.6,0.6-0.8,1.2-0.9l0,0
			c-0.7-0.5-1-1.2-0.9-2c0.2-1.2,1.2-2,2.6-1.8c0.4,0.1,0.8,0.2,1.1,0.4v-0.1c0.1-0.5,0.3-0.8,0.8-0.7l0.9,0.1l-0.1,0.8l-1.2-0.2
			l-0.1,0.4c0.4,0.4,0.6,1,0.5,1.7c-0.2,1.2-1.2,2-2.6,1.8c-0.2,0-0.4-0.1-0.6-0.1c-0.4,0-0.9,0.2-0.9,0.6c-0.1,0.4,0.3,0.5,0.9,0.6
			l1.3,0.2c1.5,0.2,2.1,0.9,1.9,2C78,264.6,76.9,265.1,74.9,264.8z M76.1,262.3l-2-0.3c-0.4,0.1-0.6,0.4-0.7,0.7
			c-0.1,0.5,0.2,1,1.2,1.2l0.9,0.1c1.1,0.2,1.7-0.1,1.8-0.7C77.3,262.8,77.1,262.5,76.1,262.3z M77.2,258.5l0.1-0.3
			c0.1-0.8-0.3-1.3-1.1-1.4c-0.8-0.1-1.4,0.2-1.5,1l-0.1,0.3c-0.1,0.8,0.3,1.3,1.1,1.4C76.5,259.6,77,259.3,77.2,258.5z"/>
		<path d="M80.7,254.1l0.9,0.1l-0.6,3.7l0,0c0.4-0.6,1-1,1.9-0.9c1.3,0.2,1.9,1.2,1.7,2.6l-0.6,3.9l-0.9-0.1l0.6-3.8
			c0.2-1.1-0.2-1.7-1.1-1.9c-0.8-0.1-1.6,0.2-1.7,0.9l-0.6,4.2l-0.9-0.1L80.7,254.1z"/>
		<path d="M87,257.8l0.9,0.1L87,264l-0.9-0.1L87,257.8z M87.2,255.8v-0.2c0-0.3,0.3-0.5,0.7-0.4c0.4,0.1,0.5,0.3,0.5,0.6v0.2
			c0,0.3-0.3,0.5-0.7,0.4C87.3,256.3,87.2,256.1,87.2,255.8z"/>
	</g>
</g>
<g>
	<g class="st3">
		<path d="M32.3,215l2.5-8l4.8,1.5l-0.3,0.8l-3.8-1.2l-0.8,2.7l3.5,1.1l-0.3,0.8l-3.5-1.1l-1.1,3.6L32.3,215z"/>
	</g>
	<g class="st3">
		<path d="M38.8,213.7c0.6-1.9,2-2.8,3.6-2.3s2.2,2,1.7,3.7l-0.1,0.4l-4.3-1.3l-0.1,0.3c-0.3,1,0.1,2,1.2,2.3c0.7,0.2,1.4,0,1.9-0.5
			l0.5,0.7c-0.6,0.7-1.6,1-2.8,0.6C38.9,217.1,38.2,215.6,38.8,213.7z M39.9,213.5L39.9,213.5l3.2,1.1v-0.1c0.3-1-0.1-1.9-1-2.2
			C41.2,211.9,40.3,212.5,39.9,213.5z"/>
	</g>
	<g class="st3">
		<path d="M44.6,218.8l1.8-5.9l0.9,0.3l-0.3,1.1h0.1c0.4-0.5,1.1-0.9,2-0.6l0.4,0.1l-0.3,0.9l-0.5-0.2c-1-0.3-1.7-0.1-1.9,0.5
			l-1.2,4L44.6,218.8z"/>
	</g>
	<g class="st3">
		<path d="M49.3,217c0.6-1.9,2-2.8,3.6-2.3s2.2,2,1.7,3.7l-0.1,0.4l-4.3-1.3l-0.1,0.3c-0.3,1,0.1,2,1.2,2.3c0.7,0.2,1.4,0,1.9-0.5
			l0.5,0.7c-0.6,0.7-1.6,1-2.8,0.6C49.4,220.4,48.7,218.8,49.3,217z M50.4,216.7L50.4,216.7l3.2,1.1v-0.1c0.3-1-0.1-1.9-1-2.2
			C51.6,215.1,50.7,215.7,50.4,216.7z"/>
		<path d="M55.1,222l1.8-5.9l0.9,0.3l-0.3,1l0,0c0.5-0.6,1.1-0.9,2-0.6c1.2,0.4,1.7,1.4,1.3,2.9l-1.2,3.8l-0.9-0.3l1.1-3.6
			c0.3-1.1,0-1.7-0.8-2c-0.7-0.2-1.6-0.1-1.8,0.7l-1.3,4.1L55.1,222z"/>
		<path d="M62.1,220.9c0.6-1.9,1.9-2.8,3.6-2.3c1.2,0.4,1.7,1.1,1.8,2.1l-0.9,0.2c0-0.7-0.4-1.2-1.1-1.4c-1.1-0.3-1.9,0.2-2.2,1.3
			l-0.3,1c-0.3,1,0,1.9,1.1,2.3c0.7,0.2,1.4,0,1.9-0.5l0.5,0.7c-0.6,0.7-1.6,1-2.7,0.7C62.1,224.3,61.5,222.8,62.1,220.9z"/>
		<path d="M70.2,226.6l2.5-8l3.2,1c1.4,0.4,2,1.6,1.5,3s-1.5,2-2.9,1.6l-2.2-0.7l-1.1,3.4L70.2,226.6z M72.4,222.7l2.2,0.7
			c0.8,0.2,1.3,0,1.6-0.8l0.2-0.6c0.2-0.7-0.1-1.3-0.8-1.5l-2.2-0.7L72.4,222.7z"/>
		<path d="M78.8,222.8l0.9,0.3l-1.8,5.9l-0.9-0.3L78.8,222.8z M79.3,220.9v-0.1c0.1-0.3,0.3-0.5,0.7-0.3s0.5,0.4,0.4,0.7v0.1
			c-0.1,0.3-0.3,0.5-0.7,0.3S79.2,221.2,79.3,220.9z"/>
		<path d="M79.9,229.6l1.8-5.9l0.9,0.3l-0.3,1l0,0c0.5-0.6,1.1-0.9,2-0.6c1.2,0.4,1.7,1.4,1.3,2.9l-1.2,3.8l-0.9-0.3l1.1-3.6
			c0.3-1.1,0-1.7-0.8-2c-0.7-0.2-1.6-0.1-1.8,0.7l-1.3,4.1L79.9,229.6z"/>
	</g>
	<g class="st3">
		<path d="M87.7,232c-0.6-0.2-0.9-0.7-0.7-1.3l1.3-4.1l-1-0.3l0.2-0.8l0.6,0.2c0.4,0.1,0.6,0,0.7-0.4l0.3-1.1l0.8,0.3l-0.5,1.6
			l1.3,0.4l-0.2,0.8l-1.3-0.4l-1.3,4.3l1.2,0.4l-0.2,0.8L87.7,232z"/>
	</g>
	<g class="st3">
		<path d="M90.8,229.8c0.6-1.9,2-2.8,3.6-2.3s2.2,2,1.7,3.7l-0.1,0.4l-4.3-1.3l-0.1,0.3c-0.3,1,0.1,2,1.2,2.3c0.7,0.2,1.4,0,1.9-0.5
			l0.5,0.7c-0.6,0.7-1.6,1-2.8,0.6C90.9,233.2,90.3,231.7,90.8,229.8z M92,229.5L92,229.5l3.2,1.1v-0.1c0.3-1-0.1-1.9-1-2.2
			C93.2,228,92.3,228.5,92,229.5z M94.7,226.9l-0.5-0.5l1.6-1.6l0.7,0.7L94.7,226.9z"/>
		<path d="M96.7,234.8l1.8-5.9l0.9,0.3l-0.3,1.1h0.1c0.4-0.5,1.1-0.9,2-0.6l0.4,0.1l-0.3,0.9l-0.5-0.2c-1-0.3-1.7-0.1-1.9,0.5
			l-1.2,4L96.7,234.8z"/>
	</g>
</g>
<g>
	<g class="st3">
		<path d="M70.9,134.9l2.8,1.9c1.1,0.8,1.4,2,0.6,3c-0.7,1-1.6,0.9-2.1,0.7v0.1c0.5,0.4,1,1.4,0.3,2.5c-0.8,1.1-2.1,1.5-3.1,0.8
			l-3.1-2.1L70.9,134.9z M67.6,141.6l2.1,1.4c0.7,0.5,1.4,0.4,1.9-0.3l0.2-0.3c0.5-0.7,0.3-1.4-0.4-1.9l-2.1-1.4L67.6,141.6z
			 M69.7,138.4l1.9,1.3c0.7,0.4,1.3,0.4,1.7-0.2l0.2-0.3c0.4-0.6,0.3-1.2-0.4-1.7l-1.9-1.3L69.7,138.4z"/>
		<path d="M72.6,146.1l3.5-5.1l0.8,0.5l-0.6,0.9l0,0c0.5-0.4,1.3-0.5,2.1,0.1l0.3,0.2l-0.5,0.8l-0.5-0.3c-0.9-0.6-1.6-0.6-1.9-0.1
			l-2.4,3.5L72.6,146.1z"/>
		<path d="M80,149.9L80,149.9c-0.6,0.3-1.3,0.5-2.1-0.1c-1.1-0.7-1.2-1.9-0.4-3.1l2.2-3.3l0.8,0.5l-2.1,3.1
			c-0.6,0.9-0.5,1.7,0.2,2.2c0.6,0.4,1.4,0.5,1.9-0.1l2.4-3.5l0.8,0.5l-3.5,5.1l-0.8-0.5L80,149.9z"/>
		<path d="M81.9,152.5l3.5-5.1l0.8,0.5l-0.6,0.8l0,0c0.6-0.4,1.3-0.5,2.1,0c1.1,0.7,1.2,1.9,0.4,3.1l-2.2,3.3l-0.8-0.5l2.1-3.1
			c0.6-0.9,0.5-1.6-0.2-2.2c-0.6-0.4-1.5-0.5-1.9,0.1l-2.4,3.5L81.9,152.5z"/>
		<path d="M88.9,153.5c1.1-1.6,2.8-2,4.1-1.1c1.4,0.9,1.6,2.6,0.5,4.2s-2.8,2-4.1,1.1C88,156.8,87.8,155.1,88.9,153.5z M92.4,156.4
			l0.5-0.7c0.7-1.1,0.5-2-0.4-2.6s-1.8-0.5-2.6,0.6l-0.5,0.7c-0.7,1.1-0.5,2,0.4,2.6C90.7,157.6,91.7,157.5,92.4,156.4z"/>
		<path d="M100.2,154.8l1.1,0.8l-0.6,5.1l0,0l4.5-2.4l1.1,0.7l-4.7,6.9l-0.8-0.6l4-5.8l0,0l-1.4,0.8l-3.7,1.9l0.4-4.1l0.2-1.6l0,0
			l-4,5.8l-0.8-0.6L100.2,154.8z"/>
		<path d="M107.2,168.5L107.2,168.5c-0.6,0.3-1.3,0.5-2.1-0.1c-1.1-0.7-1.2-1.9-0.4-3.1l2.2-3.3l0.8,0.5l-2.1,3.1
			c-0.6,0.9-0.5,1.7,0.2,2.2c0.6,0.4,1.4,0.5,1.9-0.1l2.4-3.5l0.8,0.5l-3.5,5.1l-0.8-0.5L107.2,168.5z"/>
		<path d="M109.1,171l3.5-5.1l0.8,0.5l-0.6,0.8l0,0c0.6-0.4,1.3-0.5,2.1,0c1.1,0.7,1.2,1.9,0.4,3.1l-2.2,3.3l-0.8-0.5l2.1-3.1
			c0.6-0.9,0.5-1.6-0.2-2.2c-0.6-0.4-1.5-0.5-1.9,0.1l-2.4,3.5L109.1,171z"/>
		<path d="M118.4,177.4c-0.6-0.4-0.6-0.9-0.3-1.4l0,0c-0.6,0.5-1.4,0.4-2.1-0.1c-1.1-0.7-1.3-1.8-0.7-2.7c0.7-1,1.7-1,3.2,0l1,0.7
			l0.3-0.5c0.5-0.7,0.4-1.4-0.4-1.9c-0.6-0.4-1.2-0.4-1.8-0.1l-0.2-0.8c0.6-0.4,1.6-0.4,2.5,0.2c1.2,0.8,1.5,2,0.8,3.1l-1.9,2.8
			l0.6,0.4l-0.5,0.7L118.4,177.4z M118.5,175.3l0.6-0.8l-1.1-0.7c-0.9-0.6-1.5-0.6-1.8-0.1l-0.1,0.2c-0.3,0.5-0.1,1.1,0.5,1.5
			C117.3,175.8,118.2,175.8,118.5,175.3z"/>
		<path d="M120,178.5l3.5-5.1l0.8,0.5l-0.6,0.9l0,0c0.5-0.4,1.3-0.5,2.1,0.1l0.3,0.2l-0.5,0.8l-0.5-0.3c-0.9-0.6-1.6-0.6-1.9-0.1
			l-2.4,3.5L120,178.5z"/>
		<path d="M127.1,175.8l0.8,0.5l-3.5,5.1l-0.8-0.5L127.1,175.8z M128.2,174.1l0.1-0.1c0.2-0.3,0.5-0.3,0.8-0.1s0.4,0.5,0.2,0.8
			l-0.1,0.1c-0.2,0.3-0.5,0.3-0.8,0.1C128,174.7,128,174.4,128.2,174.1z"/>
	</g>
</g>
<g>
	<g class="st3">
		<path d="M122.1,85.2l0.7-0.5l0.7,0.9l5.2-4.2l-0.7-0.9l0.7-0.5l2.1,2.6l-0.7,0.5l-0.7-0.9l-5.2,4.2l0.7,0.9l-0.7,0.5L122.1,85.2z"
			/>
		<path d="M126.1,90.3c-0.4-0.5-0.3-1.1,0.2-1.4l3.4-2.7l-0.6-0.8l0.7-0.5l0.4,0.5c0.3,0.3,0.4,0.3,0.8,0.1l0.9-0.7l0.5,0.7
			l-1.3,1.1l0.8,1.1l-0.7,0.5l-0.8-1.1l-3.5,2.8l0.8,1l-0.7,0.5L126.1,90.3z"/>
		<path d="M130.7,96c-0.4-0.6-0.3-1,0.1-1.5l0,0c-0.8,0.3-1.5,0-2-0.7c-0.8-1-0.7-2.1,0.2-2.8c0.9-0.7,1.9-0.5,3.1,0.9l0.8,1
			l0.5-0.4c0.7-0.5,0.8-1.2,0.1-2c-0.5-0.6-1.1-0.7-1.7-0.7l0.1-0.8c0.7-0.1,1.6,0.1,2.3,1c0.9,1.2,0.9,2.3-0.2,3.2l-2.7,2.1
			l0.4,0.6l-0.7,0.5L130.7,96z M131.4,94l0.8-0.6l-0.8-1c-0.7-0.9-1.2-1-1.7-0.7l-0.2,0.2c-0.5,0.4-0.5,1,0,1.6
			C130.1,94.2,130.9,94.4,131.4,94z"/>
		<path d="M132.5,98.3c-0.4-0.5-0.3-1.1,0.1-1.4l6.2-4.9l0.6,0.8l-6.3,5l0.6,0.7L133,99L132.5,98.3z"/>
		<path d="M136.1,97.8c1.5-1.2,3.2-1.1,4.3,0.2c1,1.3,0.7,3-0.8,4.2s-3.2,1.1-4.3-0.2S134.5,99,136.1,97.8z M138.6,101.6l0.7-0.6
			c1-0.8,1.1-1.8,0.4-2.6c-0.6-0.8-1.6-1-2.6-0.2l-0.7,0.6c-1,0.8-1.1,1.8-0.4,2.6C136.6,102.3,137.6,102.4,138.6,101.6z"/>
	</g>
	<g class="st3">
		<path d="M140,107.6l6.5-5.2l0.6,0.8l-5.9,4.7l2.2,2.8l-0.7,0.6L140,107.6z"/>
	</g>
	<g class="st3">
		<path d="M146.7,114.5L146.7,114.5c-0.6,0.1-1.4,0.1-2-0.7c-0.8-1-0.6-2.2,0.5-3.1l3.1-2.5l0.6,0.8l-3,2.4c-0.9,0.7-1,1.4-0.4,2.1
			c0.5,0.6,1.2,0.9,1.9,0.4l3.3-2.7l0.6,0.8l-4.8,3.9l-0.6-0.8L146.7,114.5z"/>
		<path d="M152.7,113.6l0.6,0.8l-0.8,0.6l0,0c0.8-0.2,1.5,0,2,0.7c1,1.2,0.6,2.8-1,4c-1.5,1.2-3.1,1.3-4.1,0.1
			c-0.5-0.7-0.6-1.4-0.2-2.1l0,0l-2.7,2.1l-0.6-0.8L152.7,113.6z M152.5,119.2l0.8-0.7c0.9-0.7,1-1.7,0.4-2.5
			c-0.5-0.7-1.4-0.9-1.9-0.5L150,117c-0.6,0.5-0.5,1.3,0,2C150.7,119.9,151.7,119.9,152.5,119.2z"/>
		<path d="M157,119.1l0.6,0.8l-4.8,3.9l-0.6-0.8L157,119.1z M158.5,117.7l0.1-0.1c0.3-0.2,0.5-0.2,0.8,0.1c0.3,0.3,0.2,0.6-0.1,0.8
			l-0.1,0.1c-0.3,0.2-0.5,0.2-0.8-0.1C158.2,118.2,158.2,117.9,158.5,117.7z"/>
	</g>
</g>
<g>
	<g class="st3">
		<path d="M160.1,56.5l-5.4,3.1c-1.2,0.7-2.5,0.3-3.2-0.9c-0.6-1.1-0.4-2.2,0.5-3l0.6,0.7c-0.5,0.5-0.8,1.1-0.3,1.9
			c0.4,0.7,1.1,0.9,2.1,0.4l4.4-2.6l-1.4-2.5l0.8-0.4L160.1,56.5z"/>
		<path d="M156.2,66.4c-0.4-0.6-0.1-1.1,0.3-1.4v-0.1c-0.8,0.2-1.5-0.2-1.9-1c-0.7-1.1-0.4-2.2,0.6-2.7c1-0.6,2-0.2,2.9,1.4l0.6,1.1
			l0.5-0.3c0.8-0.4,0.9-1.1,0.4-1.9c-0.4-0.6-0.9-0.9-1.6-0.9l0.2-0.8c0.7,0,1.6,0.3,2.1,1.3c0.7,1.3,0.5,2.4-0.6,3.1l-2.9,1.7
			l0.4,0.6l-0.7,0.4L156.2,66.4z M157.2,64.5L158,64l-0.6-1.1c-0.5-0.9-1.1-1.2-1.6-0.9l-0.2,0.1c-0.5,0.3-0.6,0.9-0.2,1.5
			C155.8,64.5,156.6,64.9,157.2,64.5z"/>
		<path d="M157.1,68.1l5.4-3.1l0.5,0.8l-0.9,0.5l0,0c0.8-0.1,1.4,0.1,1.9,0.9c0.6,1.1,0.3,2.2-1,3l-3.4,2l-0.5-0.8l3.3-1.9
			c1-0.6,1.2-1.2,0.7-2c-0.4-0.7-1.1-1.1-1.8-0.7l-3.7,2.1L157.1,68.1z"/>
		<path d="M163,72c1.7-1,3.4-0.7,4.2,0.8c0.8,1.4,0.2,3-1.3,3.8l-0.4,0.2l-2.2-3.9l-0.2,0.1c-0.9,0.5-1.3,1.5-0.7,2.5
			c0.4,0.7,1,1,1.8,0.9l-0.1,0.8c-0.9,0.1-1.9-0.4-2.4-1.4C160.7,74.6,161.3,73,163,72z M164,72.6L164,72.6l1.6,3l0.1-0.1
			c0.9-0.5,1.2-1.5,0.8-2.3C166,72.3,164.9,72.1,164,72.6z"/>
		<path d="M172.5,78l1.7,3c0.7,1.2,0.4,2.4-0.8,3c-1.1,0.6-1.9,0.2-2.2-0.3h-0.1c0.3,0.5,0.3,1.7-0.9,2.4c-1.2,0.7-2.6,0.4-3.2-0.7
			l-1.9-3.3L172.5,78z M166.6,82.6l1.2,2.1c0.4,0.7,1.1,1,1.8,0.6l0.4-0.2c0.7-0.4,0.9-1.1,0.4-1.9l-1.2-2.1L166.6,82.6z
			 M169.9,80.7l1.2,2c0.4,0.7,1,0.9,1.6,0.5l0.4-0.2c0.6-0.4,0.8-1,0.4-1.7l-1.2-2L169.9,80.7z"/>
		<path d="M171.9,91.7L171.9,91.7c-0.7,0-1.4-0.1-1.9-1c-0.6-1.1-0.3-2.2,1-3l3.4-2l0.5,0.8l-3.3,1.9c-1,0.6-1.2,1.3-0.7,2.1
			c0.4,0.7,1.1,1.1,1.8,0.7l3.7-2.1l0.5,0.8l-5.4,3.1l-0.5-0.8L171.9,91.7z"/>
	</g>
	<g class="st3">
		<path d="M172.6,94.8l5.4-3.1l0.5,0.8l-1,0.6v0.1c0.6-0.1,1.4,0.1,1.9,1l0.2,0.3l-0.8,0.5l-0.3-0.5c-0.5-0.9-1.2-1.2-1.7-0.9
			l-3.6,2.1L172.6,94.8z"/>
	</g>
	<g class="st3">
		<path d="M175.5,99.9c-0.3-0.6-0.1-1.1,0.4-1.4l3.7-2.2l-0.5-0.9l0.7-0.4l0.3,0.5c0.2,0.4,0.4,0.4,0.8,0.2l1-0.6l0.4,0.7l-1.5,0.9
			l0.7,1.2l-0.7,0.4l-0.7-1.2l-3.9,2.3l0.6,1.1l-0.7,0.4L175.5,99.9z"/>
	</g>
	<g class="st3">
		<path d="M179.3,100.3c1.7-1,3.4-0.6,4.2,0.8s0.3,3.1-1.4,4c-1.7,1-3.4,0.6-4.2-0.8S177.6,101.3,179.3,100.3z M181.2,104.5l0.8-0.4
			c1.1-0.7,1.3-1.6,0.8-2.5s-1.4-1.2-2.6-0.6l-0.8,0.4c-1.1,0.7-1.3,1.6-0.8,2.5C179.2,104.8,180.1,105.2,181.2,104.5z"/>
		<path d="M180.2,108.1l5.4-3.1l0.5,0.8l-0.9,0.5l0,0c0.8-0.1,1.4,0.1,1.9,0.9c0.6,1.1,0.3,2.2-1,3l-3.4,2l-0.5-0.8l3.3-1.9
			c1-0.6,1.2-1.2,0.7-2c-0.4-0.7-1.1-1.1-1.8-0.7l-3.7,2.1L180.2,108.1z"/>
	</g>
</g>
<g>
	<g class="st3">
		<path d="M220.1,39.5c2.7-0.8,4.6-0.1,5.2,1.9c0.4,1.3,0.1,2.4-0.9,3.3l-0.7-0.6c0.7-0.6,1.1-1.4,0.8-2.4c-0.4-1.4-1.8-1.9-3.4-1.3
			l-1.2,0.4c-1.6,0.5-2.4,1.6-2,3c0.3,1,1.1,1.5,2.1,1.6l-0.2,0.9c-1.3-0.2-2.3-0.9-2.7-2.2C216.4,42,217.5,40.3,220.1,39.5z"/>
		<path d="M218.8,49.1c-0.2-0.6,0.1-1.1,0.7-1.3l7.5-2.3l0.3,0.9l-7.7,2.4l0.3,0.9l-0.8,0.2L218.8,49.1z"/>
		<path d="M220.8,55.6c-0.2-0.7,0.1-1.1,0.6-1.3v-0.1c-0.8,0-1.4-0.5-1.6-1.4c-0.4-1.2,0.1-2.2,1.2-2.5c1.1-0.3,2,0.3,2.5,2l0.4,1.2
			l0.6-0.2c0.8-0.3,1.2-0.9,0.9-1.8c-0.2-0.7-0.7-1.1-1.3-1.2l0.3-0.7c0.7,0.1,1.5,0.7,1.8,1.7c0.4,1.4,0,2.5-1.3,2.9l-3.3,1
			l0.2,0.7l-0.8,0.2L220.8,55.6z M222.2,53.9l1-0.3l-0.4-1.2c-0.3-1-0.8-1.4-1.4-1.2l-0.2,0.1c-0.6,0.2-0.8,0.7-0.6,1.5
			C220.9,53.6,221.5,54.1,222.2,53.9z"/>
		<path d="M223.4,60.7L223.4,60.7c-0.6-0.1-1.3-0.4-1.6-1.4c-0.4-1.2,0.2-2.2,1.6-2.7l3.8-1.2l0.3,0.9l-3.6,1.1
			c-1.1,0.3-1.4,1-1.2,1.8c0.2,0.7,0.8,1.3,1.6,1.1l4.1-1.3l0.3,0.9l-5.9,1.8l-0.3-0.9L223.4,60.7z"/>
		<path d="M225.5,67.4L225.5,67.4c-0.9-0.2-1.4-0.6-1.6-1.4c-0.5-1.5,0.5-2.8,2.4-3.4c1.9-0.6,3.4,0,3.8,1.5
			c0.3,0.8,0.1,1.5-0.6,2.1l0,0l3.5-1.1l0.3,0.9l-8.5,2.6l-0.3-0.9L225.5,67.4z M226.4,67.1l2.2-0.7c0.7-0.2,0.9-1,0.7-1.9
			c-0.3-1-1.2-1.5-2.3-1.1l-1,0.3c-1.1,0.3-1.6,1.2-1.2,2.2C225,66.8,225.6,67.3,226.4,67.1z"/>
		<path d="M231.3,68.7l0.3,0.9l-5.9,1.8l-0.3-0.9L231.3,68.7z M233.2,68h0.1c0.3-0.1,0.6,0,0.7,0.4c0.1,0.4,0,0.6-0.3,0.7h-0.1
			c-0.3,0.1-0.6,0-0.7-0.4C232.7,68.4,232.9,68.1,233.2,68z"/>
		<path d="M227.6,77.7c-0.2-0.7,0.1-1.1,0.6-1.3v-0.1c-0.8,0-1.4-0.5-1.6-1.4c-0.4-1.2,0.1-2.2,1.2-2.5c1.1-0.3,2,0.3,2.5,2l0.4,1.2
			l0.6-0.2c0.8-0.3,1.2-0.9,0.9-1.8c-0.2-0.7-0.7-1.1-1.3-1.2l0.3-0.7c0.7,0.1,1.5,0.7,1.8,1.7c0.4,1.4,0,2.5-1.3,2.9l-3.3,1
			l0.2,0.7l-0.8,0.2L227.6,77.7z M229,76.1l1-0.3l-0.4-1.2c-0.3-1-0.8-1.4-1.4-1.2l-0.2,0.1c-0.6,0.2-0.8,0.7-0.6,1.5
			C227.7,75.8,228.4,76.3,229,76.1z"/>
	</g>
	<g class="st3">
		<path d="M211.5,37.8l0.4,1.3l-3.6,3.6v0.1l5,1l0.4,1.2l-8,2.5l-0.3-0.9l6.7-2.1v-0.1l-1.5-0.3l-4.1-0.8l2.9-3l1.1-1.1v-0.1
			l-6.7,2.1l-0.3-0.9L211.5,37.8z"/>
		<path d="M209.2,48.2c1.9-0.6,3.4,0.1,3.9,1.7c0.5,1.6-0.4,3-2.3,3.6s-3.4-0.1-3.9-1.7C206.4,50.2,207.3,48.7,209.2,48.2z
			 M210.1,52.6l0.8-0.3c1.2-0.4,1.6-1.3,1.3-2.3s-1.1-1.5-2.4-1.1l-0.8,0.3c-1.2,0.4-1.6,1.3-1.3,2.3C208,52.5,208.8,53,210.1,52.6z
			"/>
	</g>
	<g class="st3">
		<path d="M208.3,55.9l5.9-1.8l0.3,0.9l-1.1,0.3v0.1c0.6,0,1.3,0.4,1.6,1.4l0.1,0.4l-0.9,0.3L214,57c-0.3-1-0.9-1.5-1.5-1.3l-4,1.2
			L208.3,55.9z"/>
	</g>
	<g class="st3">
		<path d="M207.8,62.7c-0.6-1.8-0.3-2.8,0.7-3.1c0.6-0.2,1.1,0.1,1.4,0.6h0.1c0.1-0.4,0.3-0.7,0.7-0.8c0.6-0.2,1,0.2,1.3,0.7l0,0
			c0.1-0.8,0.6-1.4,1.5-1.7c1.2-0.4,2.3,0.3,2.7,1.6c0.1,0.4,0.2,0.8,0.1,1.2h0.1c0.5-0.1,0.9,0,1,0.4l0.3,0.9l-0.8,0.2l-0.3-1.1
			l-0.4,0.1c-0.2,0.5-0.7,1-1.3,1.1c-1.2,0.4-2.3-0.3-2.7-1.6c-0.1-0.2-0.1-0.4-0.1-0.6c-0.2-0.4-0.5-0.7-0.9-0.6
			c-0.4,0.1-0.3,0.5-0.2,1l0.4,1.3c0.5,1.5,0.1,2.3-0.9,2.6C209.2,65.4,208.3,64.6,207.8,62.7z M210.5,62.7l-0.6-2
			c-0.3-0.3-0.6-0.4-1-0.3c-0.5,0.2-0.8,0.6-0.5,1.6l0.3,0.8c0.3,1,0.8,1.5,1.5,1.3C210.6,64.1,210.8,63.7,210.5,62.7z M214.4,62
			l0.3-0.1c0.8-0.2,1-0.8,0.8-1.6s-0.8-1.2-1.5-0.9l-0.3,0.1c-0.8,0.2-1,0.8-0.8,1.6C213.1,61.9,213.6,62.3,214.4,62z"/>
	</g>
	<g class="st3">
		<path d="M212.7,70.2c-0.2-0.7,0.1-1.1,0.6-1.3v-0.1c-0.8,0-1.4-0.5-1.6-1.4c-0.4-1.2,0.1-2.2,1.2-2.5c1.1-0.3,2,0.3,2.5,2l0.4,1.2
			l0.6-0.2c0.8-0.3,1.2-0.9,0.9-1.8c-0.2-0.7-0.7-1.1-1.3-1.2l0.3-0.7c0.7,0.1,1.5,0.7,1.8,1.7c0.4,1.4,0,2.5-1.3,2.9l-3.3,1
			l0.2,0.7l-0.8,0.2L212.7,70.2z M214.1,68.6l1-0.3l-0.4-1.2c-0.3-1-0.8-1.4-1.4-1.2l-0.2,0.1c-0.6,0.2-0.8,0.7-0.6,1.5
			C212.8,68.3,213.5,68.8,214.1,68.6z"/>
		<path d="M211.5,74.9c-0.6-1.8-0.3-2.8,0.7-3.1c0.6-0.2,1.1,0.1,1.4,0.6h0.1c0.1-0.4,0.3-0.7,0.7-0.8c0.6-0.2,1,0.2,1.3,0.7l0,0
			c0.1-0.8,0.6-1.4,1.5-1.7c1.2-0.4,2.3,0.3,2.7,1.6c0.1,0.4,0.2,0.8,0.1,1.2h0.1c0.5-0.1,0.9,0,1,0.4l0.3,0.9l-0.8,0.2l-0.3-1.1
			l-0.4,0.1c-0.2,0.5-0.7,1-1.3,1.1c-1.2,0.4-2.3-0.3-2.7-1.6c-0.1-0.2-0.1-0.4-0.1-0.6c-0.2-0.4-0.5-0.7-0.9-0.6s-0.3,0.5-0.2,1
			l0.4,1.3c0.5,1.5,0.1,2.3-0.9,2.6C213,77.6,212.1,76.8,211.5,74.9z M214.2,74.9l-0.6-2c-0.3-0.3-0.6-0.4-1-0.3
			c-0.5,0.2-0.8,0.6-0.5,1.6l0.3,0.8c0.3,1,0.8,1.5,1.5,1.3C214.3,76.2,214.5,75.8,214.2,74.9z M218.2,74.2l0.3-0.1
			c0.8-0.2,1-0.8,0.8-1.6c-0.2-0.8-0.8-1.2-1.5-0.9l-0.3,0.1c-0.8,0.2-1,0.8-0.8,1.6C216.9,74,217.4,74.4,218.2,74.2z"/>
		<path d="M215.1,78.1l5.9-1.8l0.3,0.9l-1,0.3l0,0c0.8,0.1,1.3,0.5,1.6,1.3c0.4,1.2-0.2,2.2-1.6,2.7l-3.8,1.2l-0.3-0.9l3.6-1.1
			c1.1-0.3,1.5-0.9,1.2-1.8c-0.2-0.7-0.8-1.3-1.6-1.1l-4.1,1.3L215.1,78.1z"/>
		<path d="M223.1,82.8l0.3,0.9l-5.9,1.8l-0.3-0.9L223.1,82.8z M224.9,82.1h0.1c0.3-0.1,0.6,0,0.7,0.4s0,0.6-0.3,0.7h-0.1
			c-0.3,0.1-0.6,0-0.7-0.4S224.6,82.2,224.9,82.1z"/>
	</g>
</g>
<g>
	<g class="st3">
		<path d="M273.5,16l0.1,1.3l-4.3,2.7v0.1l4.7,2.1l0.1,1.3l-8.3,0.6l-0.1-1l7-0.5v-0.1l-1.5-0.6l-3.8-1.7L271,18l1.3-0.8v-0.1
			l-7,0.5l-0.1-1L273.5,16z"/>
		<path d="M266.3,30.8c-0.1-0.7,0.4-1,0.9-1.1v-0.1c-0.8-0.2-1.2-0.8-1.3-1.7c-0.1-1.3,0.6-2.1,1.7-2.2c1.2-0.1,1.9,0.7,2,2.5
			l0.1,1.2h0.6c0.9-0.1,1.3-0.6,1.2-1.6c-0.1-0.7-0.5-1.2-1-1.5l0.5-0.6c0.7,0.3,1.3,1,1.4,2.1c0.1,1.5-0.6,2.4-1.9,2.5l-3.4,0.3
			l0.1,0.7l-0.8,0.1L266.3,30.8z M268,29.5l1-0.1l-0.1-1.3c-0.1-1.1-0.5-1.6-1.1-1.5h-0.3c-0.6,0-0.9,0.6-0.9,1.3
			C266.8,28.9,267.3,29.6,268,29.5z"/>
	</g>
	<g class="st3">
		<path d="M266.4,32.7l6.2-0.5l0.1,1l-1.1,0.1v0.1c0.6,0.2,1.2,0.7,1.3,1.7v0.4l-1,0.1V35c-0.1-1-0.6-1.6-1.2-1.6l-4.2,0.3
			L266.4,32.7z"/>
	</g>
	<g class="st3">
		<path d="M269.8,36.3c2-0.1,3.3,0.8,3.4,2.5c0.1,1.2-0.5,2-1.3,2.4l-0.5-0.8c0.6-0.3,0.9-0.8,0.9-1.6c-0.1-1.1-0.9-1.7-2-1.6
			l-1.1,0.1c-1.1,0.1-1.8,0.7-1.7,1.9c0.1,0.8,0.5,1.3,1.2,1.6l-0.4,0.7c-0.9-0.3-1.5-1.1-1.6-2.3C266.6,37.6,267.8,36.5,269.8,36.3
			z"/>
	</g>
	<g class="st3">
		<path d="M270.2,42.3c2-0.1,3.3,0.9,3.4,2.5s-1.1,2.9-3,3c-2,0.1-3.3-0.9-3.4-2.5S268.3,42.4,270.2,42.3z M270.1,46.9l0.9-0.1
			c1.3-0.1,1.9-0.9,1.8-1.9s-0.8-1.7-2.1-1.6l-0.9,0.1c-1.3,0.1-1.9,0.9-1.8,1.9C268.1,46.3,268.8,47,270.1,46.9z"/>
	</g>
	<g class="st3">
		<path d="M268,54.5l8.1-3.4l0.1,1.1l-4.1,1.7l-3.1,1.2v0.1l3.2,0.7l4.3,1.1l0.1,1l-8.6-2.2V54.5z"/>
	</g>
	<g class="st3">
		<path d="M271.5,58.7c2-0.1,3.3,0.9,3.4,2.5s-1.1,2.9-3,3c-2,0.1-3.3-0.9-3.4-2.5C268.3,60.1,269.5,58.9,271.5,58.7z M271.4,63.3
			l0.9-0.1c1.3-0.1,1.9-0.9,1.8-1.9s-0.8-1.7-2.1-1.6l-0.9,0.1c-1.3,0.1-1.9,0.9-1.8,1.9S270,63.4,271.4,63.3z"/>
		<path d="M269,67.1c0-0.7,0.3-1,0.9-1.1l7.9-0.6l0.1,1l-8,0.6l0.1,0.9l-1,0.1V67.1z"/>
		<path d="M275.3,68.9l0.1,1l-1,0.1l0,0c0.8,0.3,1.2,0.9,1.3,1.7c0.1,1.5-1.1,2.6-3,2.8c-2,0.1-3.3-0.7-3.4-2.3
			c-0.1-0.8,0.3-1.5,1-1.9l0,0l-3.4,0.3l-0.1-1L275.3,68.9z M272,73.5l1.1-0.1c1.1-0.1,1.8-0.8,1.7-1.9c-0.1-0.9-0.6-1.6-1.3-1.5
			l-2.3,0.2c-0.8,0.1-1.2,0.8-1.1,1.7C270.1,72.9,270.9,73.6,272,73.5z"/>
		<path d="M270,80.8c-0.1-0.7,0.4-1,0.9-1.1v-0.1c-0.8-0.2-1.2-0.8-1.3-1.7c-0.1-1.3,0.6-2.1,1.7-2.2c1.2-0.1,1.9,0.7,2,2.5l0.1,1.2
			h0.6c0.9-0.1,1.3-0.6,1.2-1.6c-0.1-0.7-0.5-1.2-1-1.5l0.5-0.6c0.7,0.3,1.3,1,1.4,2.1c0.1,1.5-0.6,2.4-1.9,2.5l-3.4,0.3l0.1,0.7
			l-0.8,0.1L270,80.8z M271.7,79.5l1-0.1l-0.1-1.3c-0.1-1.1-0.5-1.6-1.1-1.5h-0.3c-0.6,0-0.9,0.6-0.9,1.3
			C270.5,78.9,271.1,79.6,271.7,79.5z"/>
		<path d="M270.2,84.1c0-0.7,0.3-1,0.9-1.1l4.3-0.3l-0.1-1l0.8-0.1v0.6c0,0.4,0.2,0.5,0.6,0.5l1.1-0.1l0.1,0.9l-1.7,0.1l0.1,1.4
			l-0.8,0.1l-0.1-1.4l-4.5,0.3l0.1,1.3l-0.8,0.1V84.1z"/>
		<path d="M276.6,86.4l0.1,1l-6.2,0.5l-0.1-1L276.6,86.4z M278.6,86.2h0.2c0.3,0,0.6,0.1,0.6,0.5s-0.2,0.6-0.5,0.6h-0.2
			c-0.3,0-0.6-0.1-0.6-0.5C278.1,86.4,278.3,86.2,278.6,86.2z"/>
	</g>
</g>
<g class="st3">
	<path d="M235.2,301.2h-3.6v-16.8h7.9c3.1,0,5.1,2.2,5.1,5.4c0,2.3-1,4.1-3,4.8l3.3,6.6h-4.1l-2.9-6.1h-2.6V301.2z M239.1,292
		c1.1,0,1.8-0.6,1.8-1.7v-1.1c0-1.1-0.7-1.7-1.8-1.7h-3.8v4.4H239.1z"/>
	<path d="M247.8,301.2v-16.8h11.4v3.2h-7.8v3.4h6.6v3.2h-6.6v3.6h7.8v3.2H247.8z"/>
	<path d="M272.6,301.2l-1.2-4h-5.6l-1.2,4H261l5.5-16.8h4.5l5.4,16.8H272.6z M268.7,287.8h-0.1l-1.8,6.4h3.8L268.7,287.8z"/>
	<path d="M278.8,301.2v-16.8h3.6V298h6.4v3.2H278.8z"/>
	<path d="M290.8,301.2v-2.9h2.2v-10.9h-2.2v-2.9h8v2.9h-2.2v10.9h2.2v2.9H290.8z"/>
	<path d="M300.9,298.8l2.4-2.4c1.1,1.3,2.6,1.9,4.2,1.9c1.8,0,2.6-0.8,2.6-2c0-0.9-0.4-1.6-1.9-1.8l-1.7-0.2c-3.5-0.5-5.1-2.2-5.1-5
		c0-3,2.4-5.1,6.3-5.1c2.5,0,4.4,0.8,5.8,2.4l-2.4,2.4c-0.8-0.9-1.9-1.6-3.6-1.6c-1.6,0-2.4,0.6-2.4,1.6c0,1.2,0.6,1.6,2,1.8
		l1.7,0.3c3.4,0.6,5.1,2.1,5.1,5c0,3.2-2.4,5.4-6.5,5.4C304.3,301.5,302.4,300.4,300.9,298.8z"/>
	<path d="M323.3,287.7v13.5h-3.6v-13.5h-4.5v-3.2h12.7v3.2H323.3z"/>
	<path d="M329.5,301.2v-2.9h2.2v-10.9h-2.2v-2.9h8v2.9h-2.2v10.9h2.2v2.9H329.5z"/>
	<path d="M339.9,293c0-5.7,2.9-8.8,7.4-8.8c3.1,0,5,1.2,6.3,3.9l-3.1,1.6c-0.4-1.4-1.3-2.3-3.1-2.3c-2.1,0-3.6,1.4-3.6,4.1v2.7
		c0,2.6,1.4,4.1,3.6,4.1c1.8,0,2.8-1.1,3.3-2.5l3,1.7c-1.2,2.5-3.2,4-6.3,4C342.8,301.5,339.9,298.6,339.9,293z"/>
</g>
<text transform="matrix(1 0 0 1 478.1311 159.0026)" class="st4 st5">Guido</text>
<text transform="matrix(1 0 0 1 473.9788 179.0026)" class="st4 st5">Crepax</text>
<rect x="578.3" y="10.7" width="88.6" height="28.3"/>
<g class="st3">
	<path class="st6" d="M595,23.9L595,23.9l-0.5,1l-1.4,2.5l-1.3-2.5l-0.5-1.1h0v4.6h-1.4v-7h1.6l1.7,3.3h0l1.7-3.3h1.6v7H595V23.9z"
		/>
	<path class="st6" d="M597.7,28.5v-1.2h0.9v-4.6h-0.9v-1.2h3.3v1.2h-0.9v4.6h0.9v1.2H597.7z"/>
	<path class="st6" d="M603.9,24.9l-2.1-3.4h1.8l1.4,2.4h0l1.4-2.4h1.6l-2.1,3.4l2.3,3.6h-1.8l-1.5-2.6h0l-1.5,2.6h-1.6L603.9,24.9z"
		/>
	<path class="st6" d="M609.1,28.5v-7h4.7v1.3h-3.2v1.4h2.8v1.3h-2.8v1.5h3.2v1.3H609.1z"/>
	<path class="st6" d="M615.1,21.5h2.6c1.8,0,3.1,1.2,3.1,3.5c0,2.3-1.2,3.5-3.1,3.5h-2.6V21.5z M617.7,27.2c0.9,0,1.5-0.5,1.5-1.6
		v-1.1c0-1.1-0.6-1.6-1.5-1.6h-1.1v4.3H617.7z"/>
	<path class="st6" d="M629.7,23.9L629.7,23.9l-0.5,1l-1.4,2.5l-1.3-2.5l-0.5-1.1h0v4.6h-1.4v-7h1.6l1.7,3.3h0l1.7-3.3h1.6v7h-1.4
		V23.9z"/>
	<path class="st6" d="M632.6,28.5v-7h4.7v1.3h-3.2v1.4h2.8v1.3h-2.8v1.5h3.2v1.3H632.6z"/>
	<path class="st6" d="M638.7,21.5h2.6c1.8,0,3.1,1.2,3.1,3.5c0,2.3-1.2,3.5-3.1,3.5h-2.6V21.5z M641.3,27.2c0.9,0,1.5-0.5,1.5-1.6
		v-1.1c0-1.1-0.6-1.6-1.5-1.6h-1.1v4.3H641.3z"/>
	<path class="st6" d="M645.4,28.5v-1.2h0.9v-4.6h-0.9v-1.2h3.3v1.2h-0.9v4.6h0.9v1.2H645.4z"/>
	<path class="st6" d="M654.3,28.5l-0.5-1.7h-2.3l-0.5,1.7h-1.5l2.3-7h1.9l2.3,7H654.3z M652.6,22.9L652.6,22.9l-0.8,2.6h1.6
		L652.6,22.9z"/>
</g>
<rect x="578.3" y="90.7" class="st1" width="88.6" height="28.3"/>
<g class="st3">
	<path d="M587.7,107.7v-1.2h0.9V102h-0.9v-1.2h3.3v1.2h-0.9v4.6h0.9v1.2H587.7z"/>
	<path d="M592.2,107.7v-7h1.5v5.6h2.7v1.3H592.2z"/>
	<path d="M597.5,107.7v-7h1.5v5.6h2.7v1.3H597.5z"/>
	<path d="M604,100.7v4.3c0,1,0.4,1.5,1.3,1.5s1.3-0.5,1.3-1.5v-4.3h1.5v4.1c0,2.1-0.7,3-2.7,3s-2.7-0.9-2.7-3v-4.1H604z"/>
	<path d="M609.1,106.7l1-1c0.5,0.5,1.1,0.8,1.7,0.8c0.7,0,1.1-0.3,1.1-0.8c0-0.4-0.2-0.7-0.8-0.8l-0.7-0.1c-1.5-0.2-2.1-0.9-2.1-2.1
		c0-1.2,1-2.1,2.6-2.1c1,0,1.8,0.3,2.4,1l-1,1c-0.3-0.4-0.8-0.7-1.5-0.7c-0.7,0-1,0.3-1,0.7c0,0.5,0.2,0.7,0.8,0.8l0.7,0.1
		c1.4,0.2,2.1,0.9,2.1,2.1c0,1.3-1,2.3-2.7,2.3C610.5,107.8,609.7,107.4,609.1,106.7z"/>
	<path d="M618.4,102.1v5.6h-1.5v-5.6H615v-1.3h5.3v1.3H618.4z"/>
	<path d="M622.8,107.7h-1.5v-7h3.3c1.3,0,2.1,0.9,2.1,2.2c0,0.9-0.4,1.7-1.3,2l1.4,2.7h-1.7l-1.2-2.6h-1.1V107.7z M624.4,103.9
		c0.4,0,0.7-0.2,0.7-0.7v-0.4c0-0.5-0.3-0.7-0.7-0.7h-1.6v1.8H624.4z"/>
	<path d="M632.3,107.7l-0.5-1.7h-2.3l-0.5,1.7h-1.5l2.3-7h1.9l2.3,7H632.3z M630.7,102.1L630.7,102.1l-0.8,2.6h1.6L630.7,102.1z"/>
	<path d="M637.1,102.1v5.6h-1.5v-5.6h-1.9v-1.3h5.3v1.3H637.1z"/>
	<path d="M639.8,107.7v-1.2h0.9V102h-0.9v-1.2h3.3v1.2h-0.9v4.6h0.9v1.2H639.8z"/>
	<path d="M644.1,104.2c0-2.4,1.2-3.6,3.1-3.6s3.1,1.2,3.1,3.6c0,2.4-1.2,3.6-3.1,3.6S644.1,106.6,644.1,104.2z M648.6,104.8v-1
		c0-1.1-0.5-1.7-1.5-1.7s-1.5,0.6-1.5,1.7v1c0,1.1,0.5,1.7,1.5,1.7S648.6,105.9,648.6,104.8z"/>
	<path d="M653.6,104.4L653,103h0v4.7h-1.4v-7h1.7l1.9,3.3l0.7,1.4h0v-4.7h1.4v7h-1.7L653.6,104.4z"/>
</g>
<rect x="578.3" y="50.7" class="st2" width="88.6" height="28.3"/>
<g class="st3">
	<path class="st6" d="M583.9,67.7v-7h3.3c1.3,0,2.1,0.9,2.1,2.2s-0.8,2.2-2.1,2.2h-1.8v2.5H583.9z M585.4,63.9h1.6
		c0.4,0,0.7-0.2,0.7-0.7v-0.4c0-0.5-0.3-0.7-0.7-0.7h-1.6V63.9z"/>
	<path class="st6" d="M594.6,64.9H592v2.9h-1.5v-7h1.5v2.8h2.7v-2.8h1.5v7h-1.5V64.9z"/>
	<path class="st6" d="M597.4,64.2c0-2.4,1.2-3.6,3.1-3.6s3.1,1.2,3.1,3.6c0,2.4-1.2,3.6-3.1,3.6S597.4,66.6,597.4,64.2z M602,64.8
		v-1c0-1.1-0.6-1.7-1.5-1.7s-1.5,0.6-1.5,1.7v1c0,1.1,0.5,1.7,1.5,1.7S602,65.9,602,64.8z"/>
	<path class="st6" d="M607.5,62.1v5.6H606v-5.6h-1.9v-1.3h5.3v1.3H607.5z"/>
	<path class="st6" d="M609.9,64.2c0-2.4,1.2-3.6,3.1-3.6c1.8,0,3.1,1.2,3.1,3.6c0,2.4-1.2,3.6-3.1,3.6
		C611.1,67.9,609.9,66.6,609.9,64.2z M614.4,64.8v-1c0-1.1-0.5-1.7-1.5-1.7c-0.9,0-1.5,0.6-1.5,1.7v1c0,1.1,0.6,1.7,1.5,1.7
		C613.9,66.5,614.4,65.9,614.4,64.8z"/>
	<path class="st6" d="M621.8,66.6L621.8,66.6c-0.1,0.7-0.8,1.2-1.8,1.2c-1.6,0-2.9-1.2-2.9-3.6c0-2.3,1.3-3.6,3.2-3.6
		c1.2,0,2.2,0.5,2.7,1.6l-1.2,0.7c-0.2-0.5-0.6-1-1.4-1c-0.9,0-1.5,0.5-1.5,1.7v1.1c0,1.2,0.6,1.7,1.5,1.7c0.8,0,1.4-0.4,1.4-1v-0.3
		h-1.3v-1.3h2.7v3.9h-1.3V66.6z"/>
	<path class="st6" d="M626,67.7h-1.5v-7h3.3c1.3,0,2.1,0.9,2.1,2.2c0,0.9-0.4,1.7-1.3,2l1.4,2.7h-1.7l-1.2-2.6H626V67.7z
		 M627.6,63.9c0.4,0,0.7-0.2,0.7-0.7v-0.4c0-0.5-0.3-0.7-0.7-0.7H626v1.8H627.6z"/>
	<path class="st6" d="M635.6,67.7l-0.5-1.7h-2.3l-0.5,1.7h-1.5l2.3-7h1.9l2.3,7H635.6z M633.9,62.1L633.9,62.1l-0.8,2.6h1.6
		L633.9,62.1z"/>
	<path class="st6" d="M638.1,67.7v-7h3.3c1.3,0,2.1,0.9,2.1,2.2s-0.8,2.2-2.1,2.2h-1.8v2.5H638.1z M639.6,63.9h1.6
		c0.4,0,0.7-0.2,0.7-0.7v-0.4c0-0.5-0.3-0.7-0.7-0.7h-1.6V63.9z"/>
	<path class="st6" d="M648.8,64.9h-2.7v2.9h-1.5v-7h1.5v2.8h2.7v-2.8h1.5v7h-1.5V64.9z"/>
	<path class="st6" d="M651.6,67.7v-1.2h0.9V62h-0.9v-1.2h3.3V62h-0.9v4.6h0.9v1.2H651.6z"/>
	<path class="st6" d="M656,64.3c0-2.4,1.2-3.7,3.1-3.7c1.3,0,2.1,0.5,2.6,1.6l-1.3,0.7c-0.2-0.6-0.5-1-1.3-1c-0.9,0-1.5,0.6-1.5,1.7
		v1.1c0,1.1,0.6,1.7,1.5,1.7c0.7,0,1.2-0.5,1.4-1l1.2,0.7c-0.5,1.1-1.3,1.7-2.6,1.7C657.2,67.9,656,66.7,656,64.3z"/>
</g>
</svg>
