<?xml version="1.0" encoding="utf-8"?>
<!-- Generator: $$$/GeneralStr/196=Adobe Illustrator 27.6.0, SVG Export Plug-In . SVG Version: 6.00 Build 0)  -->
<svg version="1.1" id="Livello_1" xmlns="http://www.w3.org/2000/svg" xmlns:xlink="http://www.w3.org/1999/xlink" x="0px" y="0px"
	 viewBox="0 0 666.9 582.3" style="enable-background:new 0 0 666.9 582.3;" xml:space="preserve">
<style type="text/css">
	.st0{fill:#FFFFFF;stroke:#1D1D1B;stroke-miterlimit:10;}
	.st1{fill:#EFEFEF;stroke:#1D1D1B;stroke-miterlimit:10;}
	.st2{fill:#1D1D1B;}
	.st3{enable-background:new    ;}
	.st4{fill:#FFFFFF;}
	.st5{fill:#AFAFAF;stroke:#1D1D1B;stroke-miterlimit:10;}
</style>
<g id="Livello_3">
	<g>
		<path class="st0" d="M420,147.1l64.5-72c-52-46.6-119-72.8-188.6-74v96.7C341.8,99,385.8,116.5,420,147.1L420,147.1z"/>
		<path class="st0" d="M483.2,270l96.1-10.6c-7.8-71-41.5-136.6-94.7-184.3l-64.5,72C455.5,178.9,478,222.7,483.2,270L483.2,270z"/>
		<path class="st0" d="M579.3,259.4L483.2,270c6.3,57.1-13.1,114-53,155.3l69.6,67.1C559.6,430.4,588.7,345,579.3,259.4L579.3,259.4
			z"/>
		<path class="st0" d="M172.9,444.2l-59.1,76.5c117.1,90.4,283.4,78.2,386-28.3l-69.6-67.1C361.8,496.3,250.9,504.4,172.9,444.2
			L172.9,444.2z"/>
		<path class="st0" d="M151.8,425.3l-69.6,67.1c9.8,10.2,20.4,19.6,31.5,28.3l59.1-76.5C165.4,438.4,158.4,432.1,151.8,425.3
			L151.8,425.3z"/>
		<path class="st0" d="M119.1,379.5l-86,44.2C46,448.9,62.6,472,82.2,492.4l69.6-67.1C138.7,411.7,127.7,396.3,119.1,379.5
			L119.1,379.5z"/>
		<path class="st0" d="M108,353.6l-91.5,31.2c4.6,13.4,10.1,26.4,16.6,39l86-44.2C114.8,371.1,111.1,362.5,108,353.6L108,353.6z"/>
		<path class="st0" d="M97.8,298.2l-96.6,3.5c1,28.3,6.2,56.3,15.3,83l91.5-31.2C102,335.7,98.5,317,97.8,298.2z"/>
		<path class="st0" d="M104,242.2l-93.5-24.4c-7.2,27.4-10.3,55.7-9.2,83.9l96.6-3.5C97.1,279.3,99.2,260.5,104,242.2L104,242.2z"/>
		<path class="st0" d="M113.1,215.5l-89-37.8c-5.5,13-10.1,26.4-13.7,40.1l93.5,24.4C106.3,233.1,109.4,224.2,113.1,215.5
			L113.1,215.5z"/>
		<path class="st0" d="M142.4,167.5l-74.3-61.8c-18.1,21.8-32.9,46-44,72.1l89,37.8C120.5,198.2,130.3,182,142.4,167.5L142.4,167.5z
			"/>
		<path class="st0" d="M162,147.1l-64.5-72C87,84.6,77.1,94.8,68.1,105.6l74.3,61.8C148.4,160.2,155,153.4,162,147.1L162,147.1z"/>
		<path class="st0" d="M184.3,129.9L131,49.3c-11.8,7.8-23,16.5-33.5,25.9l64.5,72C169,140.9,176.5,135.1,184.3,129.9L184.3,129.9z"
			/>
		<path class="st0" d="M209,116.1l-41-87.5c-12.8,6-25.1,12.9-36.9,20.7l53.3,80.6C192.2,124.7,200.4,120.1,209,116.1L209,116.1z"/>
		<path class="st0" d="M230.3,107.6l-29.6-92c-11.2,3.7-22.1,8-32.7,13l41,87.5C215.9,112.8,223,110,230.3,107.6L230.3,107.6z"/>
		<path class="st0" d="M262.9,99.9L248.8,4.2c-13,1.9-25.9,4.7-38.6,8.4l29.7,92.1C247.4,102.6,255.1,101,262.9,99.9z"/>
		<path class="st0" d="M285.9,97.9V1.2c-12.4,0.2-24.8,1.2-37.1,3l14.1,95.6C270.5,98.7,278.2,98.1,285.9,97.9L285.9,97.9z"/>
	</g>
</g>
<g id="Livello_6">
	<path class="st1" d="M295.9,97.9v96.7c40.6,2.1,75.8,29.4,87.6,68.7c15.4,51.1-13.6,105-64.7,120.4s-105-13.6-120.4-64.7
		c-15-50,12.4-102.7,61.5-119.4l-29.6-92c-79,26.1-132.6,100-132.6,183.5c0,106.8,86.6,193.3,193.3,193.3s193.3-86.6,193.3-193.3
		S400.4,100.5,295.9,97.9L295.9,97.9z"/>
	<path class="st2" d="M285.9,194.6V97.9c-15.6,0.4-31,2.7-46.1,6.8l29.7,92.2C275,195.7,280.4,194.9,285.9,194.6L285.9,194.6z"/>
</g>
<g id="labels">
	<g>
		<g class="st3">
			<path d="M365.6,103.4c-2.6-1-3.6-2.7-2.9-4.7c0.5-1.3,1.5-2,2.7-2l0.2,0.9c-0.9,0-1.7,0.5-2.1,1.4c-0.5,1.3,0.2,2.5,1.8,3.2
				l1.2,0.4c1.6,0.6,2.9,0.2,3.4-1.2c0.4-1,0.1-1.9-0.6-2.5l0.8-0.6c0.9,0.9,1.2,2.1,0.7,3.4C370,103.8,368.2,104.4,365.6,103.4z"/>
			<path d="M369.1,97c-1.8-0.7-2.6-2.2-2-3.8c0.6-1.5,2.1-2,3.8-1.4l0.4,0.2l-1.6,4.2l0.3,0.1c1,0.4,2,0,2.4-1
				c0.3-0.7,0.1-1.4-0.4-2l0.7-0.5c0.6,0.7,0.9,1.7,0.4,2.8C372.6,97.1,371,97.7,369.1,97z M369,95.8L369,95.8l1.3-3.2h-0.1
				c-1-0.4-1.9,0-2.3,0.9C367.5,94.5,368,95.4,369,95.8z"/>
			<path d="M374.9,90.5c-0.2,0.6-0.8,0.8-1.3,0.6l-7.4-2.8l0.3-0.9l7.5,2.9l0.3-0.9l0.8,0.3L374.9,90.5z"/>
			<path d="M372.7,87.8c-1.8-0.7-2.6-2.2-2-3.8c0.6-1.5,2.1-2,3.8-1.4l0.4,0.2l-1.6,4.2l0.3,0.1c1,0.4,2,0,2.4-1
				c0.3-0.7,0.1-1.4-0.4-2l0.7-0.5c0.6,0.7,0.9,1.7,0.4,2.8C376.1,87.9,374.5,88.5,372.7,87.8z M372.5,86.6L372.5,86.6l1.3-3.2h-0.1
				c-1-0.4-1.9,0-2.3,0.9C371,85.3,371.5,86.2,372.5,86.6z"/>
		</g>
		<g class="st3">
			<path d="M376.9,82.5l-0.3-0.8c0.7-0.2,1.3-0.6,1.5-1.4c0.3-0.8,0.1-1.3-0.5-1.6c-0.4-0.2-0.9-0.1-1.3,0.7l-0.2,0.4
				c-0.6,1-1.3,1.6-2.4,1.2s-1.4-1.5-0.9-2.7c0.4-0.9,0.9-1.4,1.7-1.7l0.3,0.8c-0.5,0.1-1,0.5-1.3,1.2s-0.1,1.3,0.5,1.5
				s0.9-0.1,1.3-0.8l0.2-0.4c0.7-1.2,1.4-1.5,2.3-1.1c1.1,0.4,1.5,1.5,1,2.8C378.5,81.7,377.7,82.2,376.9,82.5z"/>
		</g>
		<g class="st3">
			<path d="M380.6,75.6c-0.2,0.6-0.8,0.8-1.3,0.6l-4-1.5l-0.4,1l-0.8-0.3l0.2-0.5c0.1-0.4,0.1-0.6-0.3-0.7l-1.1-0.4l0.3-0.8l1.6,0.6
				l0.5-1.3l0.8,0.3l-0.5,1.3l4.2,1.6l0.4-1.2l0.8,0.3L380.6,75.6z"/>
			<path d="M373.9,70.2l-0.1-0.1c-0.3-0.1-0.4-0.4-0.3-0.7s0.4-0.5,0.7-0.4l0.1,0.1c0.3,0.1,0.4,0.4,0.3,0.7
				C374.5,70.2,374.3,70.3,373.9,70.2z M375.8,70.8l0.3-0.9l5.8,2.2l-0.3,0.9L375.8,70.8z"/>
			<path d="M382.7,70.2l-5.8-2.2l0.3-0.9l0.9,0.4l0,0c-0.5-0.5-0.8-1.2-0.4-2c0.5-1.2,1.5-1.6,2.9-1.1l3.7,1.4l-0.3,0.9l-3.6-1.4
				c-1-0.4-1.7-0.1-2.1,0.7c-0.3,0.7-0.2,1.5,0.6,1.8l4,1.5L382.7,70.2z"/>
			<path d="M382.1,63.1c-1.8-0.7-2.6-2.2-2-3.8s2.2-2.2,4-1.5s2.6,2.2,2,3.8C385.5,63.2,383.9,63.8,382.1,63.1z M384.1,59l-0.8-0.3
				c-1.2-0.5-2.1,0-2.4,1c-0.4,1,0,1.9,1.2,2.3l0.8,0.3c1.2,0.5,2.1,0,2.4-1C385.7,60.4,385.3,59.5,384.1,59z"/>
			<path d="M388.6,54.8l-7.8-3l1.2-3.1c0.5-1.4,1.7-1.9,3.1-1.3c1.4,0.5,1.9,1.6,1.4,3l-0.8,2.2l3.3,1.3L388.6,54.8z M384.8,52.3
				l0.8-2.2c0.3-0.7,0-1.3-0.7-1.6l-0.6-0.2c-0.7-0.3-1.3,0-1.6,0.7l-0.8,2.2L384.8,52.3z"/>
			<path d="M383.5,45.3l-0.1-0.1c-0.3-0.1-0.4-0.4-0.3-0.7s0.4-0.5,0.7-0.4l0.1,0.1c0.3,0.1,0.4,0.4,0.3,0.7
				C384,45.3,383.8,45.4,383.5,45.3z M385.4,45.9l0.3-0.9l5.8,2.2l-0.3,0.9L385.4,45.9z"/>
			<path d="M393.8,41.1c-0.3,0.7-0.8,0.8-1.3,0.6v0.1c0.6,0.5,0.7,1.3,0.4,2.1c-0.5,1.2-1.4,1.7-2.5,1.3s-1.4-1.4-0.8-3.1L390,41
				l-0.6-0.2c-0.8-0.3-1.4,0-1.8,0.9c-0.3,0.7-0.1,1.3,0.3,1.8l-0.7,0.3c-0.5-0.5-0.7-1.4-0.3-2.5c0.5-1.4,1.6-1.9,2.8-1.5L393,41
				l0.3-0.7l0.8,0.3L393.8,41.1z M391.7,41.5l-1-0.4l-0.5,1.2c-0.4,1-0.3,1.6,0.3,1.8l0.2,0.1c0.6,0.2,1.1-0.1,1.3-0.8
				C392.5,42.5,392.3,41.7,391.7,41.5z"/>
		</g>
		<g class="st3">
			<path d="M395,38c-0.2,0.6-0.8,0.8-1.3,0.6l-4-1.5l-0.4,1l-0.8-0.3l0.2-0.5c0.1-0.4,0.1-0.6-0.3-0.7l-1.1-0.4l0.3-0.8l1.6,0.6
				l0.5-1.3l0.8,0.3l-0.5,1.3l4.2,1.6l0.4-1.2l0.8,0.3L395,38z"/>
		</g>
		<g class="st3">
			<path d="M396.5,34.2c-0.2,0.6-0.8,0.8-1.3,0.6l-4-1.5l-0.4,1L390,34l0.2-0.5c0.1-0.4,0.1-0.6-0.3-0.7l-1.1-0.4l0.3-0.8l1.6,0.6
				l0.5-1.3l0.8,0.3l-0.5,1.3l4.2,1.6l0.4-1.2l0.8,0.3L396.5,34.2z"/>
			<path d="M389.8,28.7l-0.1-0.1c-0.3-0.1-0.4-0.4-0.3-0.7s0.4-0.5,0.7-0.4l0.1,0.1c0.3,0.1,0.4,0.4,0.3,0.7
				C390.4,28.7,390.1,28.8,389.8,28.7z M391.7,29.3l0.3-0.9l5.8,2.2l-0.3,0.9L391.7,29.3z"/>
		</g>
	</g>
	<g>
		<g class="st3">
			<path d="M490.5,180.2l-1.9-1.8l-3,1.5l0.4,2.6l-0.9,0.5l-1.2-8.8l1.1-0.6l6.4,6.1L490.5,180.2z M484.9,174.7L484.9,174.7l0.6,4.3
				l2.6-1.3L484.9,174.7z"/>
			<path d="M493.5,178.7c-0.6,0.3-1.1,0.1-1.4-0.4l-3.6-7l0.9-0.4l3.7,7.1l0.8-0.4l0.4,0.7L493.5,178.7z"/>
			<path d="M491.5,169.8l0.9-0.4l1.7,3.3l0,0c-0.1-0.8,0.3-1.5,1.1-1.9c1.4-0.7,2.8,0,3.7,1.7c0.9,1.8,0.6,3.3-0.8,4
				c-0.8,0.4-1.5,0.3-2.1-0.2l0,0l0.5,0.9l-0.9,0.4L491.5,169.8z M498.2,173.4l-0.5-0.9c-0.5-1-1.4-1.3-2.4-0.8
				c-0.8,0.4-1.2,1.2-0.9,1.8l1.1,2c0.4,0.7,1.2,0.8,2,0.4C498.4,175.3,498.7,174.4,498.2,173.4z"/>
			<path d="M499.9,171.9c-0.9-1.7-0.5-3.4,1-4.2s3-0.1,3.8,1.5l0.2,0.4l-4,2l0.1,0.3c0.5,0.9,1.5,1.4,2.5,0.8c0.7-0.4,1.1-1,1-1.7
				l0.8,0.1c0,0.9-0.5,1.8-1.5,2.4C502.4,174.3,500.8,173.7,499.9,171.9z M500.5,171L500.5,171l3.1-1.5l-0.1-0.1
				c-0.5-1-1.4-1.3-2.3-0.9C500.3,169,500,170,500.5,171z"/>
		</g>
		<g class="st3">
			<path d="M507.6,171.5l-2.8-5.5l0.9-0.4l0.5,1h0.1c-0.1-0.6,0.2-1.4,1.1-1.8l0.3-0.2l0.4,0.9l-0.5,0.3c-0.9,0.5-1.3,1.2-1,1.7
				l1.9,3.7L507.6,171.5z"/>
		</g>
		<g class="st3">
			<path d="M512.8,168.8c-0.6,0.3-1.1,0.1-1.4-0.4l-2-3.8l-0.9,0.5l-0.4-0.7l0.5-0.3c0.4-0.2,0.4-0.4,0.2-0.7l-0.5-1l0.8-0.4
				l0.8,1.5l1.2-0.6l0.4,0.7l-1.2,0.6l2.1,4l1.1-0.6l0.4,0.7L512.8,168.8z"/>
		</g>
		<g class="st3">
			<path d="M513.4,165c-0.9-1.7-0.5-3.4,1-4.2s3.1-0.1,4,1.6c0.9,1.8,0.5,3.4-1,4.2C515.9,167.3,514.3,166.7,513.4,165z
				 M517.7,163.3l-0.4-0.8c-0.6-1.2-1.5-1.4-2.5-0.9c-0.9,0.5-1.3,1.4-0.7,2.5l0.4,0.8c0.6,1.2,1.5,1.4,2.5,0.9
				S518.3,164.4,517.7,163.3z"/>
		</g>
		<g class="st3">
			<path d="M488.9,194.5l-3.8-7.4l0.9-0.5l3.4,6.7l3.2-1.6l0.4,0.8L488.9,194.5z"/>
		</g>
		<g class="st3">
			<path d="M492.3,189.3c-0.9-1.7-0.5-3.4,1-4.2s3.1-0.1,4,1.6c0.9,1.8,0.5,3.4-1,4.2C494.8,191.7,493.2,191.1,492.3,189.3z
				 M496.5,187.6l-0.4-0.8c-0.6-1.2-1.5-1.4-2.5-0.9c-0.9,0.5-1.3,1.4-0.7,2.5l0.4,0.8c0.6,1.2,1.5,1.4,2.5,0.9
				S497.1,188.8,496.5,187.6z"/>
			<path d="M498.2,186.3c-0.9-1.8-0.6-3.3,1-4.1c1.1-0.6,2-0.4,2.7,0.2l-0.5,0.7c-0.5-0.5-1.1-0.5-1.8-0.2c-1,0.5-1.2,1.5-0.7,2.4
				l0.5,0.9c0.5,1,1.4,1.4,2.4,0.9c0.7-0.4,1-0.9,1-1.7l0.8,0.1c0.1,1-0.4,1.8-1.4,2.4C500.6,188.7,499.1,188,498.2,186.3z"/>
			<path d="M509.4,184c-0.6,0.3-1.1,0.1-1.4-0.4h-0.1c0.1,0.8-0.3,1.4-1.1,1.8c-1.2,0.6-2.2,0.3-2.7-0.7s-0.1-2,1.5-2.8l1.1-0.6
				l-0.3-0.5c-0.4-0.8-1-1-1.9-0.5c-0.7,0.3-0.9,0.9-1,1.5l-0.8-0.2c0-0.7,0.4-1.6,1.4-2.1c1.3-0.7,2.5-0.4,3.1,0.8l1.6,3l0.6-0.3
				l0.4,0.7L509.4,184z M507.6,182.9l-0.5-0.9l-1.1,0.6c-1,0.5-1.3,1-1,1.6l0.1,0.2c0.3,0.5,0.9,0.6,1.5,0.3
				C507.5,184.2,507.9,183.5,507.6,182.9z"/>
		</g>
		<g class="st3">
			<path d="M512.4,182.5c-0.6,0.3-1.1,0.1-1.4-0.4l-2-3.8l-0.9,0.5l-0.4-0.7l0.5-0.3c0.4-0.2,0.4-0.4,0.2-0.7l-0.5-1l0.8-0.4
				l0.8,1.5l1.2-0.6l0.4,0.7l-1.2,0.6l2.1,4l1.1-0.6l0.4,0.7L512.4,182.5z"/>
		</g>
		<g class="st3">
			<path d="M513,178.7c-0.9-1.7-0.5-3.4,1-4.2s3-0.1,3.8,1.5l0.2,0.4l-4,2l0.1,0.3c0.5,0.9,1.5,1.4,2.5,0.8c0.7-0.4,1.1-1,1-1.7
				l0.8,0.1c0,0.9-0.5,1.8-1.5,2.4C515.5,181,513.9,180.4,513,178.7z M513.7,177.7L513.7,177.7l3.1-1.5l-0.1-0.1
				c-0.5-1-1.4-1.3-2.3-0.9C513.5,175.7,513.2,176.7,513.7,177.7z"/>
		</g>
		<g class="st3">
			<path d="M521.6,177.7c-0.6,0.3-1.1,0.1-1.4-0.4l-3.6-7l0.9-0.4l3.7,7.1l0.8-0.4l0.4,0.7L521.6,177.7z"/>
		</g>
		<g class="st3">
			<path d="M524.5,176.3c-0.6,0.3-1.1,0.1-1.4-0.4l-3.6-7l0.9-0.4l3.7,7.1l0.8-0.4l0.4,0.7L524.5,176.3z"/>
			<path d="M522.6,168l-0.1-0.1c-0.1-0.3-0.1-0.6,0.3-0.7c0.4-0.2,0.6-0.1,0.8,0.2l0.1,0.1c0.1,0.3,0.1,0.6-0.3,0.7
				C523,168.4,522.8,168.3,522.6,168z M523.6,169.7l0.9-0.4l2.8,5.5l-0.9,0.4L523.6,169.7z"/>
		</g>
	</g>
	<g>
		<g class="st3">
			<path d="M482.3,354.4l1.3,0.4l0.8,5h0.1l3.7-3.5l1.2,0.4l-2.7,7.9l-0.9-0.3l2.3-6.7H488l-1.1,1.1l-3.1,2.8l-0.7-4.1l-0.2-1.6
				h-0.1l-2.3,6.7l-0.9-0.3L482.3,354.4z"/>
			<path d="M493,366.8c-0.7-0.2-0.8-0.7-0.7-1.3h-0.1c-0.5,0.6-1.2,0.8-2.1,0.5c-1.2-0.4-1.7-1.4-1.4-2.4c0.4-1.1,1.4-1.4,3.1-0.9
				l1.2,0.4l0.2-0.6c0.3-0.8,0-1.4-0.9-1.8c-0.7-0.2-1.3-0.1-1.8,0.4l-0.4-0.7c0.5-0.5,1.4-0.8,2.5-0.4c1.4,0.5,2,1.5,1.6,2.7
				l-1.1,3.2l0.7,0.2l-0.3,0.8L493,366.8z M492.5,364.8l0.3-1l-1.2-0.4c-1-0.4-1.6-0.2-1.8,0.4l-0.1,0.2c-0.2,0.6,0.1,1.1,0.8,1.3
				C491.5,365.6,492.3,365.4,492.5,364.8z"/>
		</g>
		<g class="st3">
			<path d="M494.8,367.5l2-5.9l0.9,0.3l-0.4,1.1h0.1c0.4-0.5,1.1-0.8,2.1-0.5l0.4,0.1l-0.3,0.9l-0.5-0.2c-1-0.3-1.7-0.1-1.9,0.4
				l-1.4,4L494.8,367.5z"/>
		</g>
		<g class="st3">
			<path d="M499.5,365.8c0.6-1.9,2-2.7,3.7-2.2c1.2,0.4,1.7,1.2,1.7,2.1l-0.9,0.1c0-0.7-0.4-1.2-1.1-1.4c-1.1-0.4-1.9,0.2-2.2,1.2
				l-0.3,1c-0.3,1,0,1.9,1,2.3c0.7,0.3,1.4,0.1,1.9-0.5l0.5,0.7c-0.7,0.7-1.6,1-2.7,0.6C499.4,369.2,498.8,367.7,499.5,365.8z"/>
		</g>
		<g class="st3">
			<path d="M505.1,367.7c0.6-1.9,2.1-2.7,3.7-2.2s2.2,2.1,1.6,4s-2.1,2.7-3.7,2.2C505.1,371.1,504.5,369.6,505.1,367.7z
				 M509.3,369.6l0.3-0.8c0.4-1.2-0.1-2.1-1-2.4c-1-0.3-1.9,0-2.3,1.3l-0.3,0.8c-0.4,1.2,0.1,2.1,1,2.4
				C508,371.2,508.9,370.8,509.3,369.6z"/>
			<path d="M516.4,366l3.3,1.1c1.3,0.4,1.8,1.5,1.4,2.8c-0.4,1.2-1.3,1.3-1.9,1.2v0.1c0.6,0.2,1.4,1.1,0.9,2.4
				c-0.4,1.3-1.7,2-2.8,1.6l-3.6-1.2L516.4,366z M514.9,373.4l2.3,0.8c0.8,0.3,1.5,0,1.7-0.8l0.1-0.4c0.3-0.8-0.1-1.4-0.9-1.7
				l-2.3-0.8L514.9,373.4z M516.2,369.7l2.2,0.7c0.8,0.3,1.3,0,1.6-0.7l0.1-0.4c0.2-0.7-0.1-1.3-0.8-1.5l-2.2-0.7L516.2,369.7z"/>
			<path d="M523,370.5l0.9,0.3l-2,5.9l-0.9-0.3L523,370.5z M523.5,368.6l0.1-0.1c0.1-0.3,0.3-0.5,0.7-0.3c0.4,0.1,0.5,0.4,0.4,0.7
				l-0.1,0.1c-0.1,0.3-0.3,0.5-0.7,0.3S523.4,368.9,523.5,368.6z"/>
			<path d="M528.1,378.8c-0.7-0.2-0.8-0.7-0.7-1.3h-0.1c-0.5,0.6-1.2,0.8-2.1,0.5c-1.2-0.4-1.7-1.4-1.4-2.4c0.4-1.1,1.4-1.4,3.1-0.9
				l1.2,0.4l0.2-0.6c0.3-0.8,0-1.4-0.9-1.8c-0.7-0.2-1.3-0.1-1.8,0.4l-0.4-0.7c0.5-0.5,1.4-0.8,2.5-0.4c1.4,0.5,2,1.5,1.6,2.7
				l-1.1,3.2l0.7,0.2l-0.3,0.8L528.1,378.8z M527.6,376.8l0.3-1l-1.2-0.4c-1-0.4-1.6-0.2-1.8,0.4l-0.1,0.2c-0.2,0.6,0.1,1.1,0.8,1.3
				C526.6,377.6,527.4,377.4,527.6,376.8z"/>
		</g>
		<g class="st3">
			<path d="M529.7,378.2l0.8-0.3c0.3,0.7,0.7,1.2,1.4,1.5c0.8,0.3,1.3,0.1,1.6-0.5c0.2-0.5,0-0.9-0.7-1.3l-0.4-0.2
				c-1-0.5-1.7-1.2-1.3-2.3c0.4-1.2,1.5-1.4,2.7-1c0.9,0.3,1.4,0.9,1.7,1.6l-0.8,0.3c-0.1-0.5-0.5-1-1.3-1.2c-0.7-0.3-1.3,0-1.5,0.5
				c-0.2,0.6,0.1,0.9,0.8,1.3l0.4,0.2c1.2,0.6,1.5,1.4,1.2,2.3c-0.4,1.1-1.5,1.5-2.8,1.1C530.5,379.8,530,379.1,529.7,378.2z"/>
		</g>
		<g class="st3">
			<path d="M535.2,380.1l0.8-0.3c0.3,0.7,0.7,1.2,1.4,1.5c0.8,0.3,1.3,0.1,1.6-0.5c0.2-0.5,0-0.9-0.7-1.3l-0.4-0.2
				c-1-0.5-1.7-1.2-1.3-2.3c0.4-1.2,1.5-1.4,2.7-1c0.9,0.3,1.4,0.9,1.7,1.6l-0.8,0.3c-0.1-0.5-0.5-1-1.3-1.2c-0.7-0.3-1.3,0-1.5,0.5
				c-0.2,0.6,0.1,0.9,0.8,1.3l0.4,0.2c1.2,0.6,1.5,1.4,1.2,2.3c-0.4,1.1-1.5,1.5-2.8,1.1C536,381.7,535.4,381,535.2,380.1z"/>
			<path d="M541.5,380.1c0.6-1.9,2.1-2.7,3.7-2.2c1.6,0.5,2.2,2.1,1.6,4c-0.6,1.9-2.1,2.7-3.7,2.2
				C541.5,383.6,540.8,382,541.5,380.1z M545.6,382l0.3-0.8c0.4-1.2-0.1-2.1-1-2.4c-1-0.3-1.9,0-2.3,1.3l-0.3,0.8
				c-0.4,1.2,0.1,2.1,1,2.4S545.2,383.3,545.6,382z"/>
			<path d="M547.3,385.4l2-5.9l0.9,0.3l-0.3,1l0,0c0.5-0.6,1.2-0.8,2-0.5c1.2,0.4,1.7,1.5,1.2,2.9l-1.3,3.8l-0.9-0.3l1.2-3.6
				c0.4-1,0.1-1.7-0.8-2c-0.7-0.2-1.6-0.1-1.8,0.6l-1.4,4.1L547.3,385.4z"/>
			<path d="M555.7,381.7l0.9,0.3l-2,5.9l-0.9-0.3L555.7,381.7z M556.2,379.8l0.1-0.1c0.1-0.3,0.3-0.5,0.7-0.3
				c0.4,0.1,0.5,0.4,0.4,0.7l-0.1,0.1c-0.1,0.3-0.3,0.5-0.7,0.3C556.2,380.4,556.1,380.1,556.2,379.8z"/>
		</g>
	</g>
	<g>
		<g class="st3">
			<path d="M98.9,487.3l2.3-2.6c0.9-1,2.1-1.1,3.1-0.2c0.9,0.8,0.7,1.7,0.4,2.2h0.1c0.4-0.4,1.5-0.9,2.5,0.1c1,0.9,1.2,2.3,0.4,3.2
				l-2.5,2.8L98.9,487.3z M102.2,488.9l1.5-1.7c0.5-0.6,0.5-1.2,0-1.7l-0.3-0.3c-0.6-0.5-1.2-0.4-1.7,0.2l-1.5,1.7L102.2,488.9z
				 M105.1,491.5l1.7-1.8c0.6-0.6,0.6-1.3,0-1.9l-0.3-0.3c-0.6-0.6-1.3-0.5-1.9,0.2l-1.7,1.8L105.1,491.5z"/>
			<path d="M107.6,485.3c-1.5-1.3-1.7-3-0.5-4.2c1.1-1.2,2.8-1.2,4.3,0.1c1.5,1.3,1.7,3,0.5,4.2
				C110.8,486.7,109.1,486.7,107.6,485.3z M111,482.3l-0.7-0.6c-1-0.9-1.9-0.8-2.6,0s-0.7,1.7,0.3,2.6l0.7,0.6c1,0.9,1.9,0.8,2.6,0
				S112,483.1,111,482.3z"/>
			<path d="M108.1,476.1l0.6-0.7l2.8,2.5l0,0c-0.4-0.8-0.2-1.5,0.4-2.1c1-1.2,2.6-1,4.1,0.3s1.8,2.9,0.7,4c-0.6,0.6-1.2,0.8-2.1,0.6
				l0,0l0.8,0.7l-0.6,0.7L108.1,476.1z M115.7,477.1l-0.8-0.7c-0.8-0.7-1.8-0.7-2.5,0.1c-0.6,0.7-0.7,1.5-0.2,2l1.7,1.5
				c0.6,0.5,1.4,0.3,2-0.3C116.6,478.9,116.5,477.9,115.7,477.1z"/>
			<path d="M118.9,469.8l-2.1-0.5l0,0l5.2,4.6l-0.7,0.7l-6.2-5.6l0.8-0.9l5.8,1.1l2.1,0.5l0,0l-5.2-4.6l0.7-0.7l6.2,5.6l-0.8,0.9
				L118.9,469.8z"/>
			<path d="M124.3,466.7c-1.5-1.3-1.7-3-0.5-4.2c1.1-1.2,2.8-1.2,4.3,0.1c1.5,1.3,1.7,3,0.5,4.2C127.5,468,125.8,468,124.3,466.7z
				 M127.7,463.6L127,463c-1-0.9-1.9-0.8-2.6,0s-0.7,1.7,0.3,2.6l0.7,0.6c1,0.9,1.9,0.8,2.6,0C128.7,465.5,128.7,464.5,127.7,463.6z
				"/>
			<path d="M128.8,461.7c-1.5-1.3-1.7-3-0.5-4.2c1.1-1.2,2.8-1.2,4.3,0.1c1.5,1.3,1.7,3,0.5,4.2C132,463,130.3,463,128.8,461.7z
				 M132.2,458.6l-0.7-0.6c-1-0.9-1.9-0.8-2.6,0c-0.7,0.8-0.7,1.7,0.3,2.6l0.7,0.6c1,0.9,1.9,0.8,2.6,0
				C133.1,460.5,133.2,459.5,132.2,458.6z"/>
		</g>
		<g class="st3">
			<path d="M135.9,458.4l-4.6-4.1l0.6-0.7l0.8,0.8l0,0c-0.3-0.6-0.3-1.3,0.3-2.1l0.2-0.3l0.7,0.6l-0.4,0.4c-0.7,0.8-0.8,1.5-0.3,1.9
				l3.1,2.8L135.9,458.4z"/>
		</g>
		<g class="st3">
			<path d="M140.7,451.6L140.7,451.6c0.3,0.8,0.2,1.5-0.4,2.2c-1,1.2-2.6,1-4.1-0.3s-1.8-2.9-0.7-4c0.6-0.6,1.3-0.9,2.1-0.6l0,0
				l-2.8-2.5l0.6-0.7l6.6,5.9l-0.6,0.7L140.7,451.6z M140,451l-1.7-1.5c-0.5-0.5-1.4-0.3-1.9,0.4c-0.7,0.8-0.6,1.8,0.2,2.5l0.8,0.7
				c0.8,0.7,1.8,0.7,2.5-0.1C140.4,452.3,140.6,451.5,140,451z"/>
		</g>
		<g class="st3">
			<path d="M146.4,446.7c-0.5,0.5-1,0.5-1.5,0.1l0,0c0.4,0.7,0.2,1.5-0.3,2.1c-0.9,1-1.9,1.1-2.8,0.3c-0.9-0.8-0.8-1.8,0.4-3.2
				l0.8-0.9l-0.5-0.4c-0.7-0.6-1.3-0.5-2,0.2c-0.5,0.6-0.6,1.2-0.4,1.8l-0.8,0.1c-0.3-0.7-0.2-1.6,0.6-2.4c1-1.1,2.2-1.2,3.1-0.4
				l2.5,2.3l0.5-0.5l0.6,0.6L146.4,446.7z M144.3,446.3l-0.8-0.7l-0.8,0.9c-0.7,0.8-0.8,1.4-0.4,1.8l0.2,0.2c0.5,0.4,1,0.3,1.5-0.3
				C144.7,447.6,144.8,446.8,144.3,446.3z"/>
		</g>
		<g class="st3">
			<path d="M148.2,443.7l0.1,0.1c0.5,0.4,0.9,1.3,0.9,2.2l-0.5,0.6c-0.1-0.7-0.2-1.2-0.5-1.7c-0.3,0.2-0.5,0.1-0.8-0.1l-0.1-0.1
				c-0.3-0.3-0.4-0.6,0-1S147.9,443.4,148.2,443.7z"/>
		</g>
		<g class="st3">
			<path d="M100.1,503.8l0.9-1l5,1.2l0,0l-1.8-4.8l0.9-1l6.2,5.6l-0.7,0.7l-5.3-4.7l0,0l0.6,1.5l1.4,3.9l-4.1-0.9l-1.5-0.4l0,0
				l5.3,4.7l-0.7,0.7L100.1,503.8z"/>
			<path d="M115.8,498.9c-0.5,0.5-1,0.5-1.5,0.1l0,0c0.4,0.7,0.2,1.5-0.3,2.1c-0.9,1-1.9,1.1-2.8,0.3c-0.9-0.8-0.8-1.8,0.4-3.2
				l0.8-0.9l-0.5-0.4c-0.7-0.6-1.3-0.5-2,0.2c-0.5,0.6-0.6,1.2-0.4,1.8l-0.8,0.1c-0.3-0.7-0.2-1.6,0.6-2.4c1-1.1,2.2-1.2,3.1-0.4
				l2.5,2.3l0.5-0.5l0.6,0.6L115.8,498.9z M113.7,498.5l-0.8-0.7l-0.8,0.9c-0.7,0.8-0.8,1.4-0.4,1.8l0.2,0.2c0.5,0.4,1,0.3,1.5-0.3
				C114.1,499.8,114.2,498.9,113.7,498.5z"/>
		</g>
		<g class="st3">
			<path d="M115.9,497.2v-0.9c0.8,0,1.4-0.2,1.9-0.7c0.5-0.6,0.6-1.2,0.1-1.6c-0.4-0.3-0.8-0.4-1.4,0.2l-0.4,0.3
				c-0.9,0.7-1.8,1.1-2.7,0.3c-0.9-0.8-0.7-1.9,0.1-2.9c0.7-0.7,1.4-1,2.2-0.9v0.9c-0.5-0.1-1.1,0.1-1.6,0.7s-0.5,1.1-0.1,1.5
				s0.9,0.2,1.5-0.2l0.4-0.3c1.1-0.9,1.9-0.9,2.6-0.3c0.9,0.8,0.9,1.9-0.1,3C117.7,497,116.8,497.2,115.9,497.2z"/>
		</g>
		<g class="st3">
			<path d="M119.8,492.9V492c0.8,0,1.4-0.2,1.9-0.7c0.5-0.6,0.6-1.2,0.1-1.6c-0.4-0.3-0.8-0.4-1.4,0.2l-0.4,0.3
				c-0.9,0.7-1.8,1.1-2.7,0.3c-0.9-0.8-0.7-1.9,0.1-2.9c0.7-0.7,1.4-1,2.2-0.9v0.9c-0.5-0.1-1.1,0.1-1.6,0.7s-0.5,1.1-0.1,1.5
				s0.9,0.2,1.5-0.2l0.4-0.3c1.1-0.9,1.9-0.9,2.6-0.3c0.9,0.8,0.9,1.9-0.1,3C121.5,492.7,120.7,492.9,119.8,492.9z"/>
			<path d="M118.7,483.4l-0.1-0.1c-0.2-0.2-0.3-0.5,0-0.8s0.6-0.3,0.8-0.1l0.1,0.1c0.2,0.2,0.3,0.5,0,0.8
				C119.2,483.6,118.9,483.6,118.7,483.4z M120.2,484.7l0.6-0.7l4.6,4.1l-0.6,0.7L120.2,484.7z"/>
			<path d="M126.8,486.5l-4.6-4.1l0.6-0.7l0.8,0.7l0,0c-0.3-0.6-0.4-1.3,0.3-2c0.5-0.6,1.3-0.9,2.2-0.6l0,0
				c-0.3-0.6-0.4-1.5,0.3-2.2c0.8-0.9,2-0.9,3.1,0.1l3,2.6l-0.6,0.7l-2.8-2.5c-0.8-0.7-1.5-0.8-2.1-0.1c-0.5,0.6-0.7,1.3-0.1,1.9
				l3.2,2.9l-0.6,0.7l-2.8-2.5c-0.8-0.7-1.5-0.8-2.1-0.1c-0.5,0.6-0.7,1.4-0.1,1.9l3.2,2.9L126.8,486.5z"/>
			<path d="M131.2,477c-1.5-1.3-1.7-3-0.5-4.2c1.1-1.2,2.8-1.2,4.3,0.1c1.5,1.3,1.7,3,0.5,4.2C134.4,478.3,132.7,478.3,131.2,477z
				 M134.6,473.9l-0.7-0.6c-1-0.9-1.9-0.8-2.6,0c-0.7,0.8-0.7,1.7,0.3,2.6l0.7,0.6c1,0.9,1.9,0.8,2.6,0
				C135.6,475.8,135.6,474.8,134.6,473.9z"/>
			<path d="M141.5,470.1l-8.1-3.5l0.7-0.8l4.1,1.8l3,1.4l0,0l-1.7-2.8l-2.2-3.9l0.7-0.8l4.4,7.7L141.5,470.1z"/>
			<path d="M138.9,460.8l-0.1-0.1c-0.2-0.2-0.3-0.5,0-0.8s0.6-0.3,0.8-0.1l0.1,0.1c0.2,0.2,0.3,0.5,0,0.8
				C139.4,461,139.2,461,138.9,460.8z M140.5,462.1l0.6-0.7l4.6,4.1l-0.6,0.7L140.5,462.1z"/>
			<path d="M150.5,464c-1.3,1.4-2.2,1.7-3,1c-0.5-0.4-0.5-1-0.2-1.5l-0.1-0.1c-0.4,0.1-0.7,0.1-1-0.2c-0.5-0.4-0.4-0.9-0.1-1.5l0,0
				c-0.7,0.3-1.5,0.2-2.2-0.4c-0.9-0.8-1-2.1,0-3.2c0.3-0.3,0.6-0.6,1-0.7l-0.1-0.1c-0.4-0.3-0.5-0.7-0.1-1.1l0.6-0.7l0.6,0.6
				L145,457l0.3,0.3c0.6-0.1,1.2,0.1,1.7,0.5c0.9,0.8,1,2.1,0,3.2c-0.1,0.2-0.3,0.3-0.4,0.4c-0.2,0.4-0.3,0.8,0,1.1
				c0.3,0.2,0.6,0,1-0.4l0.9-1c1-1.1,1.9-1.2,2.7-0.5C152,461.4,151.8,462.5,150.5,464z M146.4,458.7l-0.2-0.2
				c-0.6-0.5-1.2-0.4-1.8,0.2c-0.5,0.6-0.6,1.2,0,1.8l0.2,0.2c0.6,0.5,1.2,0.4,1.8-0.2C147,459.8,147,459.2,146.4,458.7z
				 M149.1,461.7l-1.4,1.5c-0.1,0.4,0,0.7,0.2,1c0.4,0.4,1,0.4,1.6-0.3l0.6-0.7c0.7-0.8,0.9-1.5,0.4-1.9
				C150.2,460.9,149.7,460.9,149.1,461.7z"/>
			<path d="M151.3,459.2l-4.6-4.1l0.6-0.7l0.8,0.7l0,0c-0.3-0.7-0.3-1.4,0.3-2.1c0.8-0.9,2-1,3.1,0l3,2.6l-0.6,0.7l-2.8-2.5
				c-0.8-0.7-1.6-0.8-2.2-0.1c-0.5,0.6-0.7,1.4-0.1,1.9l3.2,2.9L151.3,459.2z"/>
			<path d="M153.2,452.4c-1.5-1.3-1.7-3-0.6-4.2c1.1-1.2,2.7-1.1,4,0l0.3,0.3l-3,3.3l0.2,0.2c0.8,0.7,1.8,0.7,2.6-0.1
				c0.5-0.6,0.6-1.3,0.3-2l0.8-0.2c0.4,0.9,0.2,1.9-0.6,2.8C156.4,453.8,154.7,453.7,153.2,452.4z M153.5,451.3L153.5,451.3l2.3-2.5
				l-0.1-0.1c-0.8-0.7-1.8-0.7-2.5,0C152.6,449.5,152.7,450.6,153.5,451.3z"/>
		</g>
		<g class="st3">
			<path d="M160.9,448.5c-0.4,0.5-1,0.5-1.4,0.1l-5.9-5.3l0.6-0.7l6,5.4l0.6-0.7l0.6,0.6L160.9,448.5z"/>
		</g>
		<g class="st3">
			<path d="M163.1,446.1c-0.4,0.5-1,0.5-1.4,0.1l-5.9-5.3l0.6-0.7l6,5.4l0.6-0.7l0.6,0.6L163.1,446.1z"/>
			<path d="M158.4,439.1l-0.1-0.1c-0.2-0.2-0.3-0.5,0-0.8s0.6-0.3,0.8-0.1l0.1,0.1c0.2,0.2,0.3,0.5,0,0.8S158.6,439.3,158.4,439.1z
				 M160,440.3l0.6-0.7l4.6,4.1l-0.6,0.7L160,440.3z"/>
		</g>
	</g>
	<g>
		<g class="st3">
			<path d="M74,451.3l-4.9-6.8l2.7-1.9c1.2-0.9,2.4-0.6,3.3,0.6s0.7,2.4-0.5,3.3l-1.9,1.4l2.1,2.9L74,451.3z M72.2,447.1l1.9-1.4
				c0.6-0.5,0.8-1.1,0.3-1.7l-0.4-0.5c-0.4-0.6-1.1-0.7-1.7-0.2l-1.9,1.4L72.2,447.1z"/>
		</g>
		<g class="st3">
			<path d="M83.4,444.6c-0.6,0.4-1.1,0.2-1.5-0.2l0,0c0.2,0.8-0.1,1.5-0.8,2c-1.1,0.8-2.1,0.6-2.8-0.3c-0.7-0.9-0.4-2,1.1-3l1-0.7
				l-0.4-0.5c-0.5-0.7-1.2-0.8-2-0.3c-0.6,0.4-0.8,1-0.7,1.7l-0.8-0.1c-0.1-0.7,0.2-1.6,1.1-2.3c1.2-0.9,2.4-0.7,3.1,0.3l2,2.8
				l0.6-0.4l0.5,0.7L83.4,444.6z M81.4,443.8l-0.6-0.8l-1,0.7c-0.9,0.6-1.1,1.2-0.7,1.7l0.1,0.2c0.4,0.5,0.9,0.5,1.6,0.1
				C81.5,445.1,81.8,444.3,81.4,443.8z"/>
			<path d="M87.4,440.5L87.4,440.5c0.1,0.6,0.1,1.4-0.8,2c-1,0.7-2.2,0.5-3.1-0.7l-2.3-3.2L82,438l2.2,3.1c0.6,0.9,1.4,1.1,2.1,0.5
				c0.6-0.4,1-1.2,0.5-1.8l-2.5-3.5l0.8-0.6l3.6,5l-0.8,0.6L87.4,440.5z"/>
			<path d="M91.3,438.9c-0.5,0.4-1.1,0.3-1.4-0.2l-4.6-6.4l0.8-0.6l4.7,6.5l0.7-0.5l0.5,0.7L91.3,438.9z"/>
			<path d="M97.6,429.8l-3.4,2.5l2.2,3.1l-0.8,0.6l-4.9-6.8l0.8-0.6l2.1,3l3.4-2.5l-2.1-3l0.8-0.6l4.9,6.8l-0.8,0.6L97.6,429.8z"/>
			<path d="M100.2,428.8c-1.1-1.6-1-3.3,0.4-4.3s3-0.6,4.2,1s1,3.3-0.4,4.3C103,430.8,101.3,430.4,100.2,428.8z M104.1,426.5
				l-0.5-0.7c-0.8-1.1-1.7-1.2-2.6-0.6c-0.8,0.6-1.1,1.5-0.3,2.6l0.5,0.7c0.8,1.1,1.7,1.2,2.6,0.6S104.9,427.6,104.1,426.5z"/>
		</g>
		<g class="st3">
			<path d="M111.1,427.9c-1.6,1.1-2.5,1.1-3.1,0.3c-0.4-0.5-0.3-1.1,0.1-1.5l-0.1-0.1c-0.4,0.1-0.7,0-1-0.4c-0.4-0.5-0.2-1,0.2-1.5
				l0,0c-0.8,0.1-1.5-0.2-2-0.9c-0.7-1-0.5-2.3,0.7-3.1c0.4-0.3,0.7-0.4,1.1-0.5l-0.1-0.1c-0.3-0.4-0.3-0.8,0.1-1.1l0.8-0.5l0.5,0.7
				l-1,0.7l0.2,0.3c0.6,0.1,1.1,0.3,1.5,0.9c0.7,1,0.5,2.3-0.7,3.1c-0.2,0.1-0.4,0.2-0.5,0.3c-0.3,0.3-0.5,0.7-0.3,1s0.6,0.2,1-0.2
				l1.1-0.8c1.2-0.9,2.1-0.8,2.7,0.1C113.2,425.7,112.7,426.8,111.1,427.9z M108.3,421.8l-0.2-0.3c-0.5-0.7-1.1-0.7-1.8-0.2
				c-0.7,0.5-0.9,1.1-0.4,1.8l0.2,0.3c0.5,0.7,1.1,0.7,1.8,0.2C108.6,423.1,108.8,422.5,108.3,421.8z M110.2,425.3l-1.7,1.2
				c-0.2,0.4-0.2,0.7,0,1c0.3,0.4,0.9,0.6,1.7,0l0.7-0.5c0.9-0.6,1.2-1.3,0.8-1.8C111.5,424.8,111,424.8,110.2,425.3z"/>
		</g>
		<g class="st3">
			<path d="M116.6,420.9c-0.6,0.4-1.1,0.2-1.5-0.2l0,0c0.2,0.8-0.1,1.5-0.8,2c-1.1,0.8-2.1,0.6-2.8-0.3c-0.7-0.9-0.4-2,1.1-3l1-0.7
				l-0.4-0.5c-0.5-0.7-1.2-0.8-2-0.3c-0.6,0.4-0.8,1-0.7,1.7l-0.8-0.1c-0.1-0.7,0.2-1.6,1.1-2.3c1.2-0.9,2.4-0.7,3.1,0.3l2,2.8
				l0.6-0.4l0.5,0.7L116.6,420.9z M114.6,420.1l-0.6-0.8l-1,0.7c-0.9,0.6-1.1,1.2-0.7,1.7l0.1,0.2c0.4,0.5,0.9,0.5,1.6,0.1
				C114.7,421.4,115,420.6,114.6,420.1z"/>
		</g>
		<g class="st3">
			<path d="M118.1,419.8l-3.6-5l0.8-0.6l0.7,0.9l0,0c-0.2-0.6,0-1.4,0.8-2l0.3-0.2l0.6,0.8l-0.5,0.3c-0.8,0.6-1.1,1.3-0.7,1.8
				l2.4,3.4L118.1,419.8z"/>
		</g>
		<g class="st3">
			<path d="M122.9,416.4c-0.5,0.4-1.1,0.3-1.4-0.2l-2.5-3.5l-0.8,0.6l-0.5-0.7l0.5-0.3c0.3-0.2,0.4-0.4,0.1-0.8l-0.7-0.9l0.7-0.5
				l1,1.4l1.1-0.8l0.5,0.7l-1.1,0.8l2.6,3.7l1-0.7l0.5,0.7L122.9,416.4z"/>
			<path d="M120,407.5l0.8-0.6l2.1,3l0,0c-0.2-0.7,0-1.4,0.8-2c1-0.7,2.2-0.5,3.1,0.7l2.3,3.2l-0.8,0.6l-2.2-3.1
				c-0.6-0.9-1.4-1.1-2.1-0.5c-0.6,0.4-1,1.2-0.5,1.8l2.5,3.5l-0.8,0.6L120,407.5z"/>
		</g>
	</g>
	<g>
		<g class="st3">
			<path d="M39.6,400l-1.7-1.9l-3.1,1.3L35,402l-0.9,0.4l-0.6-8.8l1.2-0.5l6,6.6L39.6,400z M34.4,394.2L34.4,394.2l0.2,4.3l2.7-1.1
				L34.4,394.2z"/>
			<path d="M41.7,399.1l-2.4-5.7l0.9-0.4l0.4,1h0.1c0-0.6,0.3-1.4,1.2-1.7l0.3-0.1l0.4,0.9l-0.5,0.2c-0.9,0.4-1.3,1.1-1.1,1.6
				l1.6,3.9L41.7,399.1z"/>
			<path d="M45.8,397.4l-2.4-5.7l0.9-0.4l0.4,0.9l0,0c0-0.7,0.2-1.3,1.1-1.7c0.8-0.3,1.6-0.3,2.2,0.4l0,0c-0.1-0.7,0.3-1.5,1.2-1.9
				c1.2-0.5,2.2,0,2.8,1.4l1.6,3.7l-0.9,0.4l-1.5-3.5c-0.4-1-1-1.4-1.9-1c-0.7,0.3-1.2,0.9-0.9,1.6l1.7,4l-0.9,0.4l-1.5-3.5
				c-0.4-1-1-1.4-1.9-1c-0.7,0.3-1.2,0.9-0.9,1.7l1.7,4L45.8,397.4z"/>
			<path d="M59.6,391.5c-0.7,0.3-1.1,0-1.4-0.5h-0.1c0.1,0.8-0.4,1.4-1.2,1.8c-1.2,0.5-2.2,0.1-2.6-0.9c-0.5-1.1,0.1-2,1.7-2.7
				l1.1-0.5l-0.2-0.6c-0.3-0.8-1-1.1-1.9-0.7c-0.7,0.3-1,0.8-1.1,1.5l-0.7-0.3c0.1-0.7,0.5-1.5,1.5-2c1.4-0.6,2.5-0.2,3,1l1.3,3.1
				l0.7-0.3l0.3,0.8L59.6,391.5z M57.8,390.3l-0.4-0.9l-1.2,0.5c-1,0.4-1.3,0.9-1.1,1.5l0.1,0.2c0.2,0.6,0.8,0.7,1.5,0.4
				C57.6,391.6,58.1,390.9,57.8,390.3z"/>
			<path d="M61.3,390.8l-2.4-5.7l0.9-0.4l0.4,0.9l0,0c0-0.8,0.3-1.4,1.2-1.7c1.2-0.5,2.2,0,2.8,1.4l1.6,3.7l-0.9,0.4l-1.5-3.5
				c-0.4-1-1.1-1.3-1.9-1c-0.7,0.3-1.2,0.9-0.9,1.7l1.7,4L61.3,390.8z"/>
			<path d="M70.9,385.7L70.9,385.7c-0.1,0.9-0.5,1.5-1.3,1.8c-1.4,0.6-2.8-0.2-3.6-2c-0.8-1.8-0.4-3.4,1.1-4
				c0.8-0.3,1.5-0.2,2.1,0.4l0,0l-1.4-3.4l0.9-0.4l3.5,8.2l-0.9,0.4L70.9,385.7z M70.5,384.8l-0.9-2.1c-0.3-0.6-1.1-0.8-1.9-0.5
				c-1,0.4-1.3,1.4-0.9,2.4l0.4,1c0.4,1,1.3,1.4,2.3,1C70.3,386.2,70.8,385.5,70.5,384.8z"/>
			<path d="M72.4,382.7c-0.8-1.8-0.2-3.4,1.3-4.1c1.5-0.6,3.1,0.1,3.8,1.9s0.2,3.4-1.3,4.1C74.7,385.3,73.2,384.5,72.4,382.7z
				 M76.8,381.4l-0.3-0.8c-0.5-1.2-1.4-1.5-2.4-1.1c-0.9,0.4-1.4,1.3-0.9,2.5l0.3,0.8c0.5,1.2,1.4,1.5,2.4,1.1
				C76.8,383.4,77.3,382.6,76.8,381.4z"/>
		</g>
		<g class="st3">
			<path d="M82.6,373.6l2.9,6.9l-0.9,0.4l-2.9-6.9l-2.5,1l-0.3-0.8l5.8-2.5l0.3,0.8L82.6,373.6z"/>
		</g>
		<g class="st3">
			<path d="M86.8,376.6c-0.8-1.8-0.3-3.4,1.3-4.1c1.5-0.6,3,0.1,3.6,1.7l0.2,0.4l-4.1,1.7l0.1,0.3c0.4,1,1.4,1.5,2.4,1
				c0.7-0.3,1.1-0.9,1.1-1.6l0.8,0.2c0,0.9-0.6,1.8-1.7,2.3C89.1,379.2,87.5,378.4,86.8,376.6z M87.5,375.7L87.5,375.7l3.2-1.3
				l-0.1-0.1c-0.4-1-1.3-1.4-2.2-1C87.4,373.7,87.1,374.7,87.5,375.7z"/>
		</g>
		<g class="st3">
			<path d="M93.5,376l0.4-0.8c0.7,0.4,1.3,0.5,2.1,0.2c0.8-0.3,1-0.8,0.8-1.4c-0.2-0.4-0.6-0.7-1.4-0.5l-0.5,0.1
				c-1.1,0.3-2.1,0.2-2.5-0.9c-0.5-1.1,0.2-2,1.3-2.5c0.9-0.4,1.7-0.3,2.4,0.1l-0.4,0.8c-0.4-0.2-1-0.4-1.8-0.1
				c-0.7,0.3-1,0.8-0.7,1.4c0.2,0.6,0.7,0.6,1.5,0.4l0.5-0.1c1.3-0.3,2.1,0,2.4,0.9c0.5,1.1-0.1,2.1-1.4,2.7
				C95.2,376.6,94.3,376.4,93.5,376z"/>
		</g>
		<g class="st3">
			<path d="M101,373.9c-0.6,0.3-1.1,0-1.3-0.5l-1.7-4l-0.9,0.4l-0.3-0.8l0.5-0.2c0.4-0.2,0.4-0.3,0.3-0.7l-0.5-1.1l0.8-0.3l0.7,1.6
				l1.2-0.5l0.3,0.8l-1.2,0.5l1.8,4.2l1.2-0.5l0.3,0.8L101,373.9z"/>
			<path d="M107.8,371.1c-0.7,0.3-1.1,0-1.4-0.5h-0.1c0.1,0.8-0.4,1.4-1.2,1.8c-1.2,0.5-2.2,0.2-2.6-0.9c-0.5-1.1,0.1-2,1.7-2.7
				l1.1-0.5l-0.2-0.6c-0.3-0.8-1-1.1-1.9-0.7c-0.7,0.3-1,0.8-1.1,1.5l-0.7-0.3c0.1-0.7,0.5-1.5,1.5-2c1.4-0.6,2.5-0.2,3,1l1.3,3.1
				l0.7-0.3l0.3,0.8L107.8,371.1z M106,369.8l-0.4-0.9l-1.2,0.5c-1,0.4-1.3,0.9-1.1,1.5l0.1,0.2c0.2,0.6,0.8,0.7,1.5,0.4
				C105.9,371.2,106.3,370.4,106,369.8z"/>
		</g>
	</g>
	<g>
		<g class="st3">
			<path d="M14,345.2l-1.5-8.2l5-0.9l0.2,0.9l-4,0.7l0.5,2.8l3.8-0.7l0.2,0.9l-3.8,0.7l0.5,2.9l4-0.7l0.2,0.9L14,345.2z"/>
			<path d="M20.8,343.9l-1.1-6.1l0.9-0.2l0.2,1.1h0.1c0.1-0.6,0.6-1.3,1.5-1.4l0.4-0.1l0.2,0.9l-0.6,0.1c-1,0.2-1.5,0.7-1.4,1.3
				l0.8,4.1L20.8,343.9z"/>
			<path d="M23.5,334.4l0.9-0.2l0.7,3.6l0,0c0.2-0.8,0.7-1.3,1.6-1.5c1.5-0.3,2.7,0.8,3.1,2.7c0.4,1.9-0.4,3.4-1.9,3.6
				c-0.8,0.2-1.5-0.1-2-0.8l0,0l0.2,1l-0.9,0.2L23.5,334.4z M28.9,339.8l-0.2-1c-0.2-1.1-1-1.7-2.1-1.5c-0.9,0.2-1.5,0.8-1.4,1.5
				l0.4,2.3c0.1,0.8,0.9,1.1,1.8,0.9C28.6,341.8,29.1,340.9,28.9,339.8z"/>
			<path d="M31,338.9c-0.4-1.9,0.5-3.4,2.1-3.7c1.6-0.3,2.9,0.8,3.2,2.5l0.1,0.4L32,339l0.1,0.3c0.2,1,1,1.7,2.1,1.5
				c0.8-0.1,1.3-0.6,1.5-1.4l0.8,0.4c-0.2,0.9-1,1.6-2.1,1.8C32.6,341.9,31.3,340.8,31,338.9z M31.8,338.2L31.8,338.2l3.4-0.5v-0.1
				c-0.2-1.1-1-1.7-1.9-1.5C32.2,336.2,31.6,337.1,31.8,338.2z"/>
		</g>
		<g class="st3">
			<path d="M38.4,340.7l-1.1-6.1l0.9-0.2l0.2,1.1h0.1c0.1-0.6,0.6-1.3,1.5-1.4l0.4-0.1l0.2,0.9L40,335c-1,0.2-1.5,0.7-1.4,1.3
				l0.8,4.1L38.4,340.7z"/>
		</g>
		<g class="st3">
			<path d="M44.2,339.6c-0.6,0.1-1.1-0.2-1.2-0.8l-0.8-4.3l-1,0.2l-0.2-0.8l0.6-0.1c0.4-0.1,0.5-0.2,0.4-0.7l-0.2-1.1l0.8-0.2
				l0.3,1.7l1.3-0.2l0.2,0.8l-1.3,0.2l0.8,4.4l1.2-0.2l0.2,0.8L44.2,339.6z"/>
		</g>
		<g class="st3">
			<path d="M45.9,336.1c-0.4-1.9,0.5-3.4,2.2-3.7c1.6-0.3,3,0.7,3.3,2.7c0.4,1.9-0.5,3.4-2.2,3.7C47.6,339.1,46.3,338.1,45.9,336.1z
				 M50.5,335.7l-0.2-0.9c-0.2-1.3-1.1-1.8-2.1-1.6s-1.6,0.9-1.4,2.2l0.2,0.9c0.2,1.3,1.1,1.8,2.1,1.6
				C50.1,337.8,50.7,337,50.5,335.7z"/>
			<path d="M55.2,333.3c-0.5-2.7,0.4-4.5,2.5-4.9c1.4-0.3,2.4,0.2,3.2,1.3l-0.7,0.6c-0.5-0.8-1.3-1.2-2.3-1c-1.4,0.3-2,1.5-1.7,3.2
				l0.2,1.2c0.3,1.7,1.3,2.6,2.8,2.3c1-0.2,1.7-0.9,1.8-1.9l0.9,0.3c-0.3,1.3-1.2,2.2-2.5,2.4C57.2,337.3,55.7,336.1,55.2,333.3z"/>
			<path d="M68.1,335.2c-0.7,0.1-1.1-0.2-1.2-0.8h-0.1c-0.1,0.8-0.7,1.3-1.5,1.5c-1.3,0.2-2.2-0.3-2.4-1.5c-0.2-1.1,0.5-1.9,2.3-2.3
				l1.2-0.2l-0.1-0.6c-0.2-0.9-0.7-1.2-1.7-1.1c-0.7,0.1-1.1,0.6-1.4,1.2l-0.7-0.4c0.2-0.7,0.8-1.4,1.9-1.6c1.5-0.3,2.5,0.3,2.7,1.6
				l0.6,3.3l0.7-0.1l0.2,0.8L68.1,335.2z M66.6,333.6l-0.2-1l-1.3,0.2c-1.1,0.2-1.5,0.6-1.4,1.2v0.2c0.1,0.6,0.6,0.9,1.4,0.7
				C66.2,334.9,66.7,334.3,66.6,333.6z"/>
			<path d="M69.9,334.8l-1.1-6.1l0.9-0.2l0.2,1.1H70c0.1-0.6,0.6-1.3,1.5-1.4l0.4-0.1l0.2,0.9l-0.6,0.1c-1,0.2-1.5,0.7-1.4,1.3
				l0.8,4.1L69.9,334.8z"/>
			<path d="M72.7,325.3l0.9-0.2l0.7,3.6l0,0c0.2-0.8,0.7-1.3,1.6-1.5c1.5-0.3,2.7,0.8,3.1,2.7c0.4,1.9-0.4,3.4-1.9,3.6
				c-0.8,0.2-1.5-0.1-2-0.8l0,0l0.2,1l-0.9,0.2L72.7,325.3z M78,330.7l-0.2-1c-0.2-1.1-1-1.7-2.1-1.5c-0.9,0.2-1.5,0.8-1.4,1.5
				l0.4,2.3c0.1,0.8,0.9,1.1,1.8,0.9C77.7,332.7,78.2,331.8,78,330.7z"/>
			<path d="M80.1,329.8c-0.4-1.9,0.5-3.4,2.2-3.7c1.6-0.3,3,0.7,3.3,2.7c0.4,1.9-0.5,3.4-2.2,3.7C81.8,332.8,80.5,331.8,80.1,329.8z
				 M84.7,329.4l-0.2-0.9c-0.2-1.3-1.1-1.8-2.1-1.6c-1,0.2-1.6,0.9-1.4,2.2l0.2,0.9c0.2,1.3,1.1,1.8,2.1,1.6
				C84.3,331.5,84.9,330.7,84.7,329.4z"/>
			<path d="M87.7,331.6l-1.1-6.1l0.9-0.2l0.2,1l0,0c0.2-0.7,0.6-1.3,1.5-1.5c1.3-0.2,2.2,0.5,2.5,1.9l0.7,3.9l-0.9,0.2l-0.7-3.7
				c-0.2-1.1-0.8-1.6-1.7-1.4c-0.8,0.1-1.4,0.7-1.3,1.4l0.8,4.2L87.7,331.6z"/>
			<path d="M92.8,322.3v-0.2c-0.1-0.3,0.1-0.6,0.5-0.6s0.6,0.1,0.7,0.4v0.2c0.1,0.3-0.1,0.6-0.5,0.6
				C93.1,322.8,92.9,322.6,92.8,322.3z M93.3,324.2l0.9-0.2l1.1,6.1l-0.9,0.2L93.3,324.2z"/>
		</g>
	</g>
	<g>
		<g>
			<g>
				<path d="M24.1,261.3L25,253l5.1,0.6l-0.1,0.9l-4.1-0.5l-0.3,2.8l3.8,0.4l-0.1,0.9l-3.8-0.4l-0.3,2.9l4.1,0.5l-0.1,0.9
					L24.1,261.3L24.1,261.3z"/>
			</g>
			<g>
				<path d="M30.9,262.1l0.7-6.2l0.9,0.1l-0.1,1h0.1c0.1-0.1,0.2-0.3,0.3-0.4s0.2-0.2,0.4-0.3c0.1-0.1,0.3-0.1,0.5-0.2
					c0.2,0,0.4,0,0.6,0c0.4,0,0.8,0.2,1.1,0.4c0.3,0.2,0.5,0.6,0.7,1l0,0c0.1-0.3,0.4-0.6,0.7-0.8c0.3-0.2,0.8-0.3,1.3-0.2
					c0.6,0.1,1.1,0.3,1.4,0.8s0.4,1,0.3,1.8l-0.4,4l-0.9-0.1l0.4-3.8c0.1-0.5,0-1-0.2-1.3s-0.5-0.5-1-0.5c-0.2,0-0.4,0-0.6,0
					s-0.3,0.1-0.5,0.2c-0.1,0.1-0.3,0.2-0.4,0.3c-0.1,0.1-0.1,0.3-0.2,0.5l-0.5,4.3l-0.9-0.1l0.4-3.8c0.1-0.5,0-1-0.2-1.3
					s-0.5-0.5-1-0.5c-0.2,0-0.4,0-0.6,0s-0.3,0.1-0.5,0.2c-0.1,0.1-0.3,0.2-0.4,0.3c-0.1,0.1-0.2,0.3-0.2,0.5l-0.5,4.3L30.9,262.1
					L30.9,262.1z"/>
			</g>
			<g>
				<path d="M45.8,263.7c-0.4,0-0.6-0.2-0.7-0.4c-0.1-0.2-0.2-0.5-0.2-0.8h-0.1c-0.2,0.4-0.4,0.6-0.8,0.8s-0.7,0.2-1.1,0.2
					c-0.6-0.1-1.1-0.3-1.5-0.7c-0.3-0.4-0.5-0.9-0.4-1.4c0.1-0.6,0.3-1,0.8-1.3s1.1-0.3,2-0.2L45,260l0.1-0.6c0.1-0.4,0-0.8-0.2-1
					c-0.2-0.3-0.6-0.4-1.1-0.5c-0.4,0-0.7,0-1,0.1s-0.5,0.3-0.7,0.6l-0.5-0.6c0.2-0.3,0.5-0.6,0.9-0.8c0.4-0.2,0.9-0.3,1.4-0.2
					c0.8,0.1,1.3,0.3,1.7,0.7s0.5,0.9,0.4,1.6l-0.4,3.4l0.7,0.1l-0.1,0.9H45.8L45.8,263.7z M43.1,262.8c0.2,0,0.5,0,0.7,0
					s0.4-0.1,0.5-0.2s0.3-0.2,0.4-0.3s0.1-0.3,0.2-0.4l0.1-1l-1.3-0.1c-0.6-0.1-1,0-1.2,0.1c-0.3,0.1-0.4,0.4-0.4,0.6v0.2
					c0,0.3,0.1,0.5,0.2,0.7S42.8,262.7,43.1,262.8L43.1,262.8z"/>
			</g>
			<g>
				<path d="M47.7,263.9l0.7-6.2l0.9,0.1l-0.1,1h0.1c0.2-0.3,0.4-0.6,0.7-0.8s0.7-0.2,1.1-0.2c0.6,0.1,1.1,0.3,1.4,0.8
					c0.3,0.5,0.4,1,0.4,1.8l-0.4,4l-0.9-0.1l0.4-3.8c0.1-1.1-0.3-1.7-1.2-1.8c-0.2,0-0.4,0-0.6,0s-0.4,0.1-0.5,0.2s-0.3,0.2-0.4,0.3
					c-0.1,0.1-0.2,0.3-0.2,0.5l-0.5,4.3L47.7,263.9L47.7,263.9z"/>
			</g>
			<g>
				<path d="M58.4,264.1L58.4,264.1c-0.1,0.1-0.2,0.3-0.3,0.4s-0.2,0.2-0.4,0.3c-0.1,0.1-0.3,0.2-0.5,0.2s-0.4,0-0.7,0
					c-0.6-0.1-1.1-0.3-1.4-0.8s-0.4-1-0.4-1.8l0.4-4l0.9,0.1l-0.4,3.8c-0.1,1.1,0.3,1.7,1.2,1.8c0.2,0,0.4,0,0.6,0s0.4-0.1,0.5-0.2
					s0.3-0.2,0.4-0.3c0.1-0.1,0.2-0.3,0.2-0.5l0.5-4.3l0.9,0.1l-0.7,6.2l-0.9-0.1L58.4,264.1L58.4,264.1z"/>
			</g>
			<g>
				<path d="M63.5,265.8c-0.4,0-0.8-0.2-1.1-0.4s-0.6-0.4-0.8-0.8s-0.4-0.7-0.4-1.1c-0.1-0.4-0.1-0.9-0.1-1.4
					c0.1-0.5,0.2-0.9,0.3-1.3c0.2-0.4,0.4-0.7,0.7-1s0.6-0.4,0.9-0.5s0.7-0.1,1.2-0.1c0.4,0,0.8,0.2,1.1,0.4s0.6,0.4,0.8,0.7
					s0.3,0.6,0.4,1s0.1,0.8,0.1,1.2l-0.1,0.5l-4.4-0.5v0.3c0,0.3,0,0.5,0,0.8c0.1,0.2,0.2,0.4,0.3,0.6s0.3,0.3,0.5,0.5
					s0.5,0.2,0.8,0.2c0.4,0,0.7,0,1.1-0.2s0.6-0.4,0.8-0.7l0.6,0.6c-0.2,0.4-0.6,0.7-1,0.9C64.6,265.8,64.1,265.9,63.5,265.8
					L63.5,265.8z M64.2,260.2c-0.3,0-0.5,0-0.7,0.1s-0.4,0.2-0.6,0.3c-0.2,0.1-0.3,0.3-0.4,0.5c-0.1,0.2-0.2,0.5-0.2,0.7v0.1
					l3.4,0.4v-0.1c0.1-0.5,0-1-0.3-1.4S64.7,260.2,64.2,260.2z"/>
			</g>
			<g>
				<path d="M68.8,266.3c-0.3,0-0.6-0.2-0.7-0.4c-0.1-0.2-0.2-0.5-0.2-0.7l0.9-7.8l0.9,0.1l-0.9,8l0.9,0.1l-0.1,0.9L68.8,266.3
					L68.8,266.3z"/>
			</g>
			<g>
				<path d="M73.3,266.9c-0.4,0-0.8-0.2-1.1-0.4s-0.6-0.4-0.8-0.8S71,265,71,264.6c-0.1-0.4-0.1-0.9-0.1-1.4
					c0.1-0.5,0.2-0.9,0.3-1.3c0.2-0.4,0.4-0.7,0.7-1c0.3-0.2,0.6-0.4,0.9-0.5s0.7-0.1,1.2-0.1c0.4,0,0.8,0.2,1.1,0.4
					s0.6,0.4,0.8,0.7c0.2,0.3,0.3,0.6,0.4,1s0.1,0.8,0.1,1.2l-0.1,0.5l-4.4-0.5v0.3c0,0.3,0,0.5,0,0.8c0.1,0.2,0.2,0.5,0.3,0.6
					c0.1,0.2,0.3,0.3,0.5,0.5s0.5,0.2,0.8,0.2c0.4,0,0.7,0,1.1-0.2s0.6-0.4,0.8-0.7l0.6,0.6c-0.2,0.4-0.6,0.7-1,0.9
					C74.4,266.9,73.9,267,73.3,266.9L73.3,266.9z M74,261.3c-0.3,0-0.5,0-0.7,0.1s-0.4,0.2-0.6,0.3c-0.2,0.1-0.3,0.3-0.4,0.5
					s-0.2,0.5-0.2,0.7v0.1l3.4,0.4v-0.1c0.1-0.5,0-1-0.3-1.4S74.4,261.3,74,261.3z"/>
			</g>
			<g>
				<path d="M32.3,274.3l0.9-8.3l1,0.1l-0.8,7.4l3.5,0.4l-0.1,0.9L32.3,274.3L32.3,274.3z"/>
			</g>
			<g>
				<path d="M42,274.4L42,274.4c-0.1,0.1-0.2,0.3-0.3,0.4s-0.2,0.2-0.4,0.3c-0.1,0.1-0.3,0.2-0.5,0.2s-0.4,0-0.7,0
					c-0.6-0.1-1.1-0.3-1.4-0.8s-0.4-1-0.4-1.8l0.4-4l0.9,0.1l-0.4,3.8c-0.1,1.1,0.3,1.7,1.2,1.8c0.2,0,0.4,0,0.6,0s0.4-0.1,0.5-0.2
					s0.3-0.2,0.4-0.3c0.1-0.1,0.2-0.3,0.2-0.5l0.5-4.3l0.9,0.1l-0.7,6.2l-0.9-0.1L42,274.4L42,274.4z"/>
			</g>
			<g>
				<path d="M44.3,275.6l0.1-0.8l4-4.1l-3.4-0.4l0.1-0.9l4.5,0.5l-0.1,0.7l-4.1,4.2l3.7,0.4l-0.1,0.9L44.3,275.6L44.3,275.6z"/>
			</g>
			<g>
				<path d="M49.8,276.3l0.1-0.8l4-4.1l-3.4-0.4l0.1-0.9l4.5,0.5l-0.1,0.7l-4.1,4.2l3.7,0.4l-0.1,0.9L49.8,276.3L49.8,276.3z"/>
			</g>
			<g>
				<path d="M60.4,277.4c-0.4,0-0.6-0.2-0.7-0.4c-0.1-0.2-0.2-0.5-0.2-0.8h-0.1c-0.2,0.4-0.4,0.6-0.8,0.8s-0.7,0.2-1.1,0.2
					c-0.6-0.1-1.1-0.3-1.5-0.7c-0.3-0.4-0.5-0.9-0.4-1.4c0.1-0.6,0.3-1,0.8-1.3s1.1-0.4,2-0.2l1.2,0.1l0.1-0.6c0.1-0.4,0-0.8-0.2-1
					c-0.2-0.3-0.6-0.4-1.1-0.5c-0.4,0-0.7,0-1,0.1s-0.5,0.3-0.7,0.6l-0.5-0.6c0.2-0.3,0.5-0.6,0.9-0.8c0.4-0.2,0.9-0.3,1.4-0.2
					c0.8,0.1,1.3,0.3,1.7,0.7s0.5,0.9,0.4,1.6l-0.4,3.4l0.7,0.1l-0.1,0.9L60.4,277.4L60.4,277.4z M57.8,276.5c0.2,0,0.5,0,0.7,0
					s0.4-0.1,0.5-0.2s0.3-0.2,0.4-0.3s0.1-0.3,0.2-0.4l0.1-1l-1.3-0.1c-0.6-0.1-1,0-1.2,0.1s-0.4,0.4-0.4,0.6v0.2
					c0,0.3,0.1,0.5,0.2,0.7S57.4,276.4,57.8,276.5L57.8,276.5z"/>
			</g>
			<g>
				<path d="M63.7,277.8c-0.3,0-0.6-0.2-0.7-0.4c-0.1-0.2-0.2-0.5-0.2-0.8l0.5-4.3l-1-0.1l0.1-0.9l0.6,0.1c0.2,0,0.4,0,0.4-0.1
					s0.1-0.2,0.2-0.4l0.1-1.1l0.9,0.1l-0.2,1.7l1.4,0.1l-0.1,0.9l-1.4-0.1l-0.5,4.5l1.2,0.1l-0.1,0.9L63.7,277.8L63.7,277.8z"/>
			</g>
			<g>
				<path d="M67.2,271.9l0.9,0.1l-0.7,6.2l-1-0.1L67.2,271.9L67.2,271.9z M67.8,270.5c-0.2,0-0.4-0.1-0.4-0.2
					c-0.1-0.1-0.1-0.2-0.1-0.4v-0.2c0-0.2,0.1-0.3,0.2-0.4s0.3-0.1,0.5-0.1s0.4,0.1,0.4,0.2c0.1,0.1,0.1,0.2,0.1,0.4v0.2
					c0,0.2-0.1,0.3-0.2,0.4S68,270.6,67.8,270.5z"/>
			</g>
		</g>
	</g>
	<g>
		<g class="st3">
			<path d="M31,206.7l2.7-7.9l4.7,1.6l-0.3,0.8l-3.8-1.3l-0.9,2.7l3.4,1.2l-0.3,0.8l-3.4-1.2L32,207L31,206.7z"/>
		</g>
		<g class="st3">
			<path d="M37.1,208.7l2-5.9l0.9,0.3l-0.4,1.1h0.1c0.4-0.5,1.1-0.8,2.1-0.5l0.4,0.1l-0.3,0.9l-0.5-0.2c-1-0.3-1.7-0.1-1.9,0.4
				l-1.4,4L37.1,208.7z"/>
		</g>
		<g class="st3">
			<path d="M45.4,211.6c-0.7-0.2-0.8-0.7-0.7-1.3h-0.1c-0.5,0.6-1.2,0.8-2.1,0.5c-1.2-0.4-1.7-1.4-1.4-2.4c0.4-1.1,1.4-1.4,3.1-0.9
				l1.2,0.4l0.2-0.6c0.3-0.8,0-1.4-0.9-1.8c-0.7-0.2-1.3-0.1-1.8,0.4l-0.4-0.7c0.5-0.5,1.4-0.8,2.5-0.4c1.4,0.5,2,1.5,1.6,2.7
				l-1.1,3.2l0.7,0.2l-0.3,0.8L45.4,211.6z M44.9,209.5l0.3-1l-1.2-0.4c-1-0.4-1.6-0.2-1.8,0.4l-0.1,0.2c-0.2,0.6,0.1,1.1,0.8,1.3
				C43.9,210.4,44.7,210.1,44.9,209.5z"/>
			<path d="M47.2,212.2l2-5.9l0.9,0.3l-0.3,1l0,0c0.5-0.6,1.2-0.8,2-0.5c1.2,0.4,1.7,1.5,1.2,2.9l-1.3,3.8l-0.9-0.3l1.2-3.6
				c0.4-1,0.1-1.7-0.8-2c-0.7-0.2-1.6-0.1-1.8,0.6l-1.4,4.1L47.2,212.2z"/>
		</g>
		<g class="st3">
			<path d="M54.3,211.3c0.6-1.9,2-2.7,3.7-2.2c1.2,0.4,1.7,1.2,1.7,2.1l-0.9,0.1c0-0.7-0.4-1.2-1.1-1.4c-1.1-0.4-1.9,0.2-2.2,1.2
				l-0.3,1c-0.3,1,0,1.9,1,2.3c0.7,0.3,1.4,0.1,1.9-0.5l0.5,0.7c-0.7,0.7-1.6,1-2.7,0.6C54.2,214.7,53.6,213.2,54.3,211.3z"/>
		</g>
		<g class="st3">
			<path d="M59.9,213.3c0.6-1.9,2.1-2.7,3.7-2.2s2.2,2.1,1.6,4s-2.1,2.7-3.7,2.2C59.9,216.7,59.3,215.1,59.9,213.3z M64.1,215.1
				l0.3-0.8c0.4-1.2-0.1-2.1-1-2.4c-1-0.3-1.9,0-2.3,1.3l-0.3,0.8c-0.4,1.2,0.1,2.1,1,2.4C62.8,216.7,63.6,216.4,64.1,215.1z"/>
			<path d="M69.4,215.4c0.9-2.6,2.6-3.7,4.6-3.1c1.3,0.4,2,1.4,2.1,2.7l-0.9,0.2c0-0.9-0.5-1.7-1.5-2c-1.4-0.5-2.5,0.3-3.1,2
				l-0.4,1.2c-0.6,1.6-0.1,2.9,1.3,3.4c1,0.3,1.9,0,2.5-0.7l0.6,0.7c-0.9,0.9-2.1,1.3-3.4,0.9C69.2,219.9,68.5,218,69.4,215.4z"/>
			<path d="M79.7,223.3c-0.7-0.2-0.8-0.7-0.7-1.3h-0.1c-0.5,0.6-1.2,0.8-2.1,0.5c-1.2-0.4-1.7-1.4-1.4-2.4c0.4-1.1,1.4-1.4,3.1-0.9
				l1.2,0.4L80,219c0.3-0.8,0-1.4-0.9-1.8c-0.7-0.2-1.3-0.1-1.8,0.4l-0.4-0.7c0.5-0.5,1.4-0.8,2.5-0.4c1.4,0.5,2,1.5,1.6,2.7
				l-1.1,3.2l0.7,0.2l-0.3,0.8L79.7,223.3z M79.2,221.2l0.3-1l-1.2-0.4c-1-0.4-1.6-0.2-1.8,0.4l-0.1,0.2c-0.2,0.6,0.1,1.1,0.8,1.3
				C78.2,222.1,79,221.8,79.2,221.2z"/>
			<path d="M81.5,223.9l2-5.9l0.9,0.3l-0.3,1l0,0c0.5-0.6,1.2-0.8,2-0.5c1.2,0.4,1.7,1.5,1.2,2.9l-1.3,3.8l-0.9-0.3l1.2-3.6
				c0.4-1,0.1-1.7-0.8-2c-0.7-0.2-1.6-0.1-1.8,0.6l-1.4,4.1L81.5,223.9z"/>
			<path d="M92.2,227.5c-0.7-0.2-0.8-0.7-0.7-1.3h-0.1c-0.5,0.6-1.2,0.8-2.1,0.5c-1.2-0.4-1.7-1.4-1.4-2.4c0.4-1.1,1.4-1.4,3.1-0.9
				l1.2,0.4l0.2-0.6c0.3-0.8,0-1.4-0.9-1.8c-0.7-0.2-1.3-0.1-1.8,0.4l-0.4-0.7c0.5-0.5,1.4-0.8,2.5-0.4c1.4,0.5,2,1.5,1.6,2.7
				l-1.1,3.2l0.7,0.2l-0.3,0.8L92.2,227.5z M91.7,225.5l0.3-1l-1.2-0.4c-1-0.4-1.6-0.2-1.8,0.4l-0.1,0.2c-0.2,0.6,0.1,1.1,0.8,1.3
				C90.7,226.3,91.5,226.1,91.7,225.5z"/>
			<path d="M95,228.5c-0.6-0.2-0.8-0.7-0.6-1.3l2.5-7.5l0.9,0.3l-2.6,7.6L96,228l-0.3,0.8L95,228.5z"/>
			<path d="M97.7,226.1c0.6-1.9,2.1-2.7,3.7-2.2s2.1,2.1,1.6,3.7l-0.1,0.4l-4.2-1.4l-0.1,0.3c-0.3,1,0,2,1.1,2.4
				c0.7,0.3,1.4,0.1,2-0.5l0.5,0.7c-0.6,0.7-1.7,0.9-2.8,0.5C97.7,229.6,97,228,97.7,226.1z M98.8,225.9L98.8,225.9l3.2,1.2V227
				c0.4-1,0-1.9-1-2.3C100.1,224.4,99.1,224.9,98.8,225.9z"/>
		</g>
	</g>
	<g>
		<g class="st3">
			<path d="M58.2,153.8l4.4-7.1l4.3,2.6l-0.5,0.8L63,148l-1.5,2.4l3.1,1.9l-0.5,0.8l-3.1-1.9l-2,3.2L58.2,153.8z"/>
		</g>
		<g class="st3">
			<path d="M63.7,157.1l3.2-5.3l0.8,0.5l-0.6,1h0.1c0.5-0.4,1.3-0.6,2.1,0l0.3,0.2l-0.5,0.8l-0.5-0.3c-0.9-0.5-1.6-0.5-2,0l-2.2,3.6
				L63.7,157.1z"/>
		</g>
		<g class="st3">
			<path d="M71.2,161.7c-0.6-0.4-0.6-0.9-0.4-1.4h-0.1c-0.6,0.5-1.4,0.5-2.1,0.1c-1.1-0.7-1.4-1.7-0.8-2.7s1.7-1.1,3.2-0.2l1,0.6
				l0.3-0.5c0.5-0.7,0.3-1.4-0.5-1.9c-0.6-0.4-1.2-0.3-1.8,0l-0.2-0.8c0.6-0.4,1.6-0.5,2.5,0.1c1.3,0.8,1.6,1.9,0.9,3l-1.8,2.9
				l0.6,0.4l-0.4,0.7L71.2,161.7z M71.2,159.6l0.5-0.9l-1.1-0.7c-0.9-0.6-1.5-0.5-1.8,0l-0.1,0.2c-0.3,0.5-0.1,1.1,0.5,1.5
				C70,160.2,70.9,160.1,71.2,159.6z"/>
			<path d="M72.8,162.7l3.2-5.3l0.8,0.5l-0.5,0.9l0,0c0.6-0.4,1.3-0.6,2.1-0.1c1.1,0.7,1.3,1.8,0.5,3.1l-2.1,3.4l-0.8-0.5l2-3.2
				c0.6-0.9,0.5-1.7-0.3-2.2c-0.7-0.4-1.5-0.5-1.9,0.2l-2.2,3.7L72.8,162.7z"/>
		</g>
		<g class="st3">
			<path d="M79.9,163.4c1-1.7,2.6-2.2,4-1.3c1,0.6,1.4,1.5,1.2,2.4l-0.9-0.1c0.1-0.7-0.1-1.3-0.8-1.6c-1-0.6-1.9-0.2-2.4,0.7
				l-0.6,0.9c-0.6,0.9-0.5,1.9,0.5,2.5c0.7,0.4,1.3,0.4,2,0l0.4,0.8c-0.8,0.6-1.8,0.6-2.8,0C79.1,166.6,78.9,165,79.9,163.4z"/>
		</g>
		<g class="st3">
			<path d="M85,166.5c1-1.7,2.7-2.2,4.1-1.3s1.7,2.5,0.7,4.2s-2.7,2.2-4.1,1.3C84.3,169.8,84,168.1,85,166.5z M88.6,169.2l0.5-0.8
				c0.7-1.1,0.4-2-0.5-2.6s-1.8-0.4-2.5,0.7l-0.5,0.8c-0.7,1.1-0.4,2,0.5,2.6S88,170.3,88.6,169.2z"/>
			<path d="M96.3,167.2l2.9,1.8c1.2,0.7,1.5,1.9,0.8,3c-0.6,1.1-1.6,1-2.1,0.8v0.1c0.5,0.3,1.1,1.3,0.4,2.5s-2.1,1.6-3.1,0.9l-3.2-2
				L96.3,167.2z M93.3,174.1l2.1,1.3c0.7,0.5,1.4,0.3,1.9-0.4l0.2-0.3c0.4-0.7,0.2-1.4-0.5-1.8l-2.1-1.3L93.3,174.1z M95.3,170.8
				l2,1.2c0.7,0.4,1.3,0.3,1.7-0.3l0.2-0.3c0.4-0.6,0.2-1.2-0.5-1.7l-2-1.2L95.3,170.8z"/>
			<path d="M102.4,180.7c-0.6-0.4-0.6-0.9-0.4-1.4h-0.1c-0.6,0.5-1.4,0.5-2.1,0.1c-1.1-0.7-1.4-1.7-0.8-2.7s1.7-1.1,3.2-0.2l1,0.6
				l0.3-0.5c0.5-0.7,0.3-1.4-0.5-1.9c-0.6-0.4-1.2-0.3-1.8,0l-0.2-0.8c0.6-0.4,1.6-0.5,2.5,0.1c1.3,0.8,1.6,1.9,0.9,3l-1.8,2.9
				l0.6,0.4l-0.4,0.7L102.4,180.7z M102.4,178.6l0.5-0.9l-1.1-0.7c-0.9-0.6-1.5-0.5-1.8,0l-0.1,0.2c-0.3,0.5-0.1,1.1,0.5,1.5
				C101.2,179.2,102.1,179.2,102.4,178.6z"/>
			<path d="M104.9,182.3c-0.6-0.3-0.7-0.9-0.4-1.4l4.1-6.7l0.8,0.5l-4.2,6.9l0.8,0.5l-0.4,0.7L104.9,182.3z"/>
			<path d="M110.7,185.8c-0.6-0.4-0.6-0.9-0.4-1.4h-0.1c-0.6,0.5-1.4,0.5-2.1,0.1c-1.1-0.7-1.4-1.7-0.8-2.7s1.7-1.1,3.2-0.2l1,0.6
				l0.3-0.5c0.5-0.7,0.3-1.4-0.5-1.9c-0.6-0.4-1.2-0.3-1.8,0l-0.2-0.8c0.6-0.4,1.6-0.5,2.5,0.1c1.3,0.8,1.6,1.9,0.9,3L111,185
				l0.6,0.4l-0.4,0.7L110.7,185.8z M110.7,183.7l0.5-0.9l-1.1-0.7c-0.9-0.6-1.5-0.5-1.8,0l-0.1,0.2c-0.3,0.5-0.1,1.1,0.5,1.5
				C109.5,184.3,110.3,184.2,110.7,183.7z"/>
			<path d="M112.3,186.8l3.2-5.3l0.8,0.5l-0.5,0.9l0,0c0.6-0.4,1.3-0.6,2.1-0.1c1.1,0.7,1.3,1.8,0.5,3.1l-2.1,3.4l-0.8-0.5l2-3.2
				c0.6-0.9,0.5-1.7-0.3-2.2c-0.7-0.4-1.5-0.5-1.9,0.2l-2.2,3.7L112.3,186.8z"/>
		</g>
	</g>
	<g>
		<g class="st3">
			<path d="M85.8,98.7l5.8-6l3.6,3.5l-0.6,0.6L91.7,94l-1.9,2l2.6,2.5l-0.6,0.6l-2.6-2.5l-2.6,2.7L85.8,98.7z"/>
		</g>
		<g class="st3">
			<path d="M93.8,105L93.8,105c-0.6,0.2-1.3,0.3-2.1-0.4c-0.9-0.9-0.9-2.1,0.1-3.1l2.8-2.9l0.7,0.7l-2.6,2.7
				c-0.8,0.8-0.8,1.5-0.1,2.2c0.5,0.5,1.3,0.8,1.9,0.2l3-3.1l0.7,0.7l-4.3,4.5l-0.7-0.7L93.8,105z"/>
		</g>
		<g class="st3">
			<path d="M96,108.5c-0.5-0.5-0.4-1,0-1.4l5.5-5.7l0.7,0.7l-5.6,5.8l0.7,0.6l-0.6,0.6L96,108.5z"/>
		</g>
		<g class="st3">
			<path d="M98.5,110.9l2.7-6l0.7,0.7l-1.4,3l-1,2l0,0l1.9-1.1l2.9-1.4l0.7,0.6l-5.9,2.9L98.5,110.9z"/>
			<path d="M106.1,109.6l0.7,0.7l-4.3,4.5l-0.7-0.7L106.1,109.6z M107.4,108.1L107.4,108.1c0.3-0.3,0.6-0.4,0.9-0.1s0.3,0.6,0,0.8
				l-0.1,0.1c-0.2,0.2-0.5,0.3-0.8,0S107.1,108.3,107.4,108.1z"/>
			<path d="M105.7,113.6c1.4-1.4,3.1-1.5,4.3-0.4s1.1,2.9-0.2,4.3s-3.1,1.5-4.3,0.4S104.4,115,105.7,113.6z M108.7,117.1l0.6-0.6
				c0.9-0.9,0.8-1.9,0.1-2.6c-0.7-0.7-1.7-0.8-2.6,0.2l-0.6,0.6c-0.9,0.9-0.8,1.9-0.1,2.6C106.8,118,107.8,118,108.7,117.1z"/>
			<path d="M116.7,116.8l2.5,2.4c1,1,1,2.2,0.1,3.1s-1.8,0.7-2.2,0.3v0.1c0.4,0.4,0.8,1.5-0.2,2.5s-2.3,1.1-3.2,0.2l-2.7-2.6
				L116.7,116.8z M112.2,122.9l1.8,1.7c0.6,0.6,1.3,0.6,1.9,0l0.3-0.3c0.6-0.6,0.5-1.3-0.1-1.9l-1.8-1.7L112.2,122.9z M114.9,120.1
				l1.7,1.6c0.6,0.5,1.2,0.6,1.7,0l0.3-0.3c0.5-0.5,0.5-1.2-0.1-1.7l-1.7-1.6L114.9,120.1z"/>
			<path d="M120.7,123.7l0.7,0.7l-4.3,4.5l-0.7-0.7L120.7,123.7z M122,122.2L122,122.2c0.3-0.3,0.6-0.4,0.9-0.1s0.3,0.6,0,0.8
				l-0.1,0.1c-0.2,0.2-0.5,0.3-0.8,0C121.8,122.8,121.8,122.5,122,122.2z"/>
			<path d="M121.8,133.4c-0.5-0.5-0.4-1-0.1-1.5l0,0c-0.7,0.4-1.5,0.2-2.1-0.4c-0.9-0.9-1-2-0.2-2.8s1.9-0.7,3.2,0.5l0.9,0.8
				l0.4-0.4c0.6-0.6,0.6-1.3-0.1-2c-0.5-0.5-1.1-0.6-1.8-0.4v-0.8c0.7-0.2,1.6-0.1,2.4,0.7c1.1,1,1.2,2.2,0.3,3.1l-2.4,2.5l0.5,0.5
				l-0.6,0.6L121.8,133.4z M122.3,131.3l0.7-0.7l-0.9-0.9c-0.8-0.8-1.4-0.9-1.8-0.4l-0.2,0.2c-0.4,0.4-0.3,1,0.2,1.5
				C121,131.7,121.8,131.8,122.3,131.3z"/>
			<path d="M123.2,134.7l4.3-4.5l0.7,0.7l-0.7,0.7l0,0c0.7-0.3,1.4-0.3,2.1,0.4c0.9,0.9,0.9,2.1-0.1,3.1l-2.8,2.9l-0.7-0.7l2.6-2.7
				c0.8-0.8,0.8-1.5,0.1-2.2c-0.6-0.5-1.4-0.8-1.9-0.2l-3,3.1L123.2,134.7z"/>
		</g>
		<g class="st3">
			<path d="M129.9,136.9c1.4-1.4,3-1.6,4.2-0.4c0.9,0.8,1,1.8,0.7,2.7l-0.9-0.3c0.3-0.6,0.2-1.2-0.4-1.8c-0.8-0.8-1.8-0.6-2.5,0.1
				l-0.7,0.8c-0.7,0.8-0.9,1.7,0,2.5c0.6,0.5,1.2,0.7,2,0.4l0.2,0.8c-0.9,0.4-1.9,0.2-2.7-0.6C128.4,140,128.6,138.3,129.9,136.9z"
				/>
		</g>
		<g class="st3">
			<path d="M134.2,141.1c1.4-1.4,3.1-1.5,4.3-0.4s1.1,2.9-0.2,4.3c-1.4,1.4-3.1,1.5-4.3,0.4C132.8,144.2,132.9,142.5,134.2,141.1z
				 M137.2,144.5l0.6-0.6c0.9-0.9,0.8-1.9,0.1-2.6c-0.7-0.7-1.7-0.8-2.6,0.2l-0.6,0.6c-0.9,0.9-0.8,1.9-0.1,2.6
				C135.3,145.4,136.3,145.5,137.2,144.5z"/>
			<path d="M137.3,148.3l4.3-4.5l0.7,0.7l-0.7,0.7l0,0c0.7-0.3,1.4-0.3,2.1,0.4c0.9,0.9,0.9,2.1-0.1,3.1l-2.8,2.9L140,151l2.6-2.7
				c0.8-0.8,0.8-1.5,0.1-2.2c-0.6-0.5-1.4-0.8-1.9-0.2l-3,3.1L137.3,148.3z"/>
			<path d="M146.5,148.5l0.7,0.7l-4.3,4.5l-0.7-0.7L146.5,148.5z M147.8,147l0.1-0.1c0.2-0.2,0.5-0.3,0.8,0s0.3,0.6,0,0.8l-0.1,0.1
				c-0.2,0.2-0.5,0.3-0.8,0S147.5,147.3,147.8,147z"/>
		</g>
	</g>
	<g>
		<g class="st3">
			<path d="M115.5,72.4l6.6-5.1l3,3.9l-0.7,0.5l-2.4-3.2l-2.2,1.7l2.2,2.9l-0.7,0.5l-2.2-2.9l-3,2.3L115.5,72.4z"/>
		</g>
		<g class="st3">
			<path d="M121.5,75.2c1.6-1.2,3.2-1.1,4.3,0.2c1,1.3,0.6,2.9-0.8,4l-0.4,0.3l-2.7-3.5l-0.2,0.2c-0.8,0.7-1.1,1.7-0.4,2.6
				c0.5,0.6,1.1,0.9,1.9,0.7v0.8c-0.9,0.2-1.9-0.2-2.6-1.1C119.6,78,119.9,76.4,121.5,75.2z M122.6,75.6L122.6,75.6l2,2.8l0.1-0.1
				c0.9-0.7,1-1.6,0.4-2.4C124.5,75,123.4,75,122.6,75.6z"/>
		</g>
		<g class="st3">
			<path d="M123.4,82.6l4.9-3.8l0.6,0.8l-0.9,0.7l0,0c0.6-0.2,1.4-0.1,2,0.7l0.2,0.3l-0.8,0.6l-0.3-0.4c-0.6-0.8-1.4-1-1.8-0.7
				l-3.3,2.6L123.4,82.6z"/>
		</g>
		<g class="st3">
			<path d="M128.2,83.8c1.6-1.2,3.2-1.1,4.3,0.2c1,1.3,0.6,2.9-0.8,4l-0.4,0.3l-2.7-3.5l-0.2,0.2c-0.8,0.7-1.1,1.7-0.4,2.6
				c0.5,0.6,1.1,0.9,1.9,0.7v0.8c-0.9,0.2-1.9-0.2-2.6-1.1C126.3,86.7,126.6,85,128.2,83.8z M129.2,84.3L129.2,84.3l2,2.8l0.1-0.1
				c0.9-0.7,1-1.6,0.4-2.4C131.2,83.7,130.1,83.6,129.2,84.3z"/>
			<path d="M130,91.3l4.9-3.8l0.6,0.8l-0.8,0.6l0,0c0.7-0.2,1.4,0,2,0.7c0.8,1,0.6,2.2-0.6,3.1l-3.1,2.4l-0.6-0.8l3-2.3
				c0.9-0.7,1-1.4,0.5-2.1c-0.5-0.6-1.2-1-1.9-0.5l-3.4,2.6L130,91.3z"/>
			<path d="M136.4,94.4c1.6-1.2,3.2-1.2,4.2,0.2c0.7,1,0.7,1.9,0.3,2.7l-0.8-0.4c0.4-0.6,0.3-1.2-0.1-1.8c-0.7-0.9-1.7-0.9-2.5-0.2
				l-0.8,0.6c-0.9,0.7-1.1,1.6-0.4,2.5c0.5,0.6,1.1,0.8,1.9,0.7l0.1,0.8c-0.9,0.2-1.9-0.1-2.6-1C134.4,97.2,134.8,95.6,136.4,94.4z"
				/>
			<path d="M139.7,103.8l6.6-5.1l2,2.6c0.9,1.2,0.7,2.4-0.5,3.3s-2.4,0.8-3.3-0.4l-1.4-1.8l-2.8,2.2L139.7,103.8z M143.8,101.8
				l1.4,1.8c0.5,0.6,1.1,0.7,1.7,0.3l0.5-0.4c0.6-0.5,0.7-1.1,0.2-1.7l-1.4-1.8L143.8,101.8z"/>
			<path d="M149,105.7l0.6,0.8l-4.9,3.8l-0.6-0.8L149,105.7z M150.5,104.4l0.1-0.1c0.3-0.2,0.5-0.2,0.8,0.1c0.2,0.3,0.2,0.6-0.1,0.8
				l-0.1,0.1c-0.3,0.2-0.5,0.2-0.8-0.1C150.2,104.8,150.2,104.6,150.5,104.4z"/>
			<path d="M145.9,111.8l4.9-3.8l0.6,0.8l-0.8,0.6l0,0c0.7-0.2,1.4,0,2,0.7c0.8,1,0.6,2.2-0.6,3.1l-3.1,2.4l-0.6-0.8l3-2.3
				c0.9-0.7,1-1.4,0.5-2.1c-0.5-0.6-1.2-1-1.9-0.5l-3.4,2.6L145.9,111.8z"/>
		</g>
		<g class="st3">
			<path d="M150.9,118.3c-0.4-0.5-0.3-1.1,0.2-1.4l3.4-2.6l-0.6-0.8l0.7-0.5l0.4,0.5c0.2,0.3,0.4,0.3,0.8,0.1l0.9-0.7l0.5,0.7
				l-1.4,1l0.8,1.1l-0.7,0.5l-0.8-1.1l-3.6,2.8l0.8,1l-0.7,0.5L150.9,118.3z"/>
		</g>
		<g class="st3">
			<path d="M154.8,118.3c1.6-1.2,3.2-1.1,4.3,0.2c1,1.3,0.6,2.9-0.8,4l-0.4,0.3l-2.7-3.5l-0.2,0.2c-0.8,0.7-1.1,1.7-0.4,2.6
				c0.5,0.6,1.1,0.9,1.9,0.7v0.8c-0.9,0.2-1.9-0.2-2.6-1.1C152.9,121.1,153.2,119.5,154.8,118.3z M155.8,118.7L155.8,118.7l2,2.8
				l0.1-0.1c0.9-0.7,1-1.6,0.4-2.4C157.8,118.1,156.7,118.1,155.8,118.7z M159.6,118.1l-0.2-0.7l2.2-0.4l0.2,1L159.6,118.1z"/>
			<path d="M156.6,125.7l4.9-3.8l0.6,0.8l-0.9,0.7l0,0c0.6-0.2,1.4-0.1,2,0.7l0.2,0.3l-0.8,0.6l-0.3-0.4c-0.6-0.8-1.4-1-1.8-0.7
				l-3.3,2.6L156.6,125.7z"/>
		</g>
	</g>
	<g>
		<g class="st3">
			<path d="M157.4,47.9L158,49l-2.8,4.3v0.1l5.1-0.1l0.6,1.1l-7.3,4.1l-0.5-0.9l6.1-3.5V54l-1.6,0.1h-4.2l2.2-3.5l0.9-1.3v-0.1
				l-6.1,3.5l-0.5-0.9L157.4,47.9z"/>
			<path d="M157,64.3c-0.3-0.6-0.1-1.1,0.4-1.4v-0.1c-0.8,0.1-1.5-0.2-1.9-1c-0.6-1.1-0.4-2.2,0.6-2.7c1-0.6,2-0.2,2.9,1.4l0.6,1.1
				l0.5-0.3c0.8-0.4,0.9-1.1,0.5-1.9c-0.4-0.6-0.9-0.9-1.6-0.9l0.2-0.8c0.7,0,1.6,0.3,2.1,1.3c0.7,1.3,0.5,2.5-0.7,3.1l-3,1.7
				l0.3,0.6l-0.7,0.4L157,64.3z M158,62.4l0.9-0.5l-0.6-1.1c-0.5-1-1.1-1.2-1.6-0.9l-0.2,0.1c-0.5,0.3-0.6,0.9-0.2,1.5
				C156.7,62.4,157.5,62.8,158,62.4z"/>
		</g>
		<g class="st3">
			<path d="M157.9,66l5.4-3l0.5,0.8l-1,0.6v0.1c0.6-0.1,1.4,0.1,1.9,1l0.2,0.3l-0.8,0.5l-0.3-0.5c-0.5-0.9-1.2-1.2-1.7-0.9l-3.7,2.1
				L157.9,66z"/>
		</g>
		<g class="st3">
			<path d="M162.5,67.9c1.7-1,3.3-0.7,4.2,0.8c0.6,1.1,0.4,2-0.1,2.7l-0.7-0.5c0.4-0.5,0.5-1.2,0.1-1.8c-0.6-1-1.5-1.1-2.5-0.6
				l-0.9,0.5c-0.9,0.5-1.3,1.4-0.8,2.4c0.4,0.7,1,1,1.8,0.9l-0.1,0.8c-1,0.1-1.9-0.3-2.4-1.4C160.2,70.3,160.8,68.8,162.5,67.9z"/>
		</g>
		<g class="st3">
			<path d="M165.4,73.1c1.7-1,3.4-0.6,4.2,0.9c0.8,1.4,0.3,3.1-1.5,4c-1.7,1-3.4,0.6-4.2-0.9C163.2,75.6,163.7,74,165.4,73.1z
				 M167.3,77.2l0.8-0.4c1.1-0.6,1.3-1.6,0.8-2.5s-1.4-1.2-2.6-0.6l-0.8,0.4c-1.1,0.6-1.3,1.6-0.8,2.5S166.2,77.9,167.3,77.2z"/>
		</g>
		<g class="st3">
			<path d="M168.6,85l5.9-6.5l0.5,0.9l-3,3.3l-2.3,2.3v0.1l3.2-0.7l4.4-0.9l0.5,0.9l-8.7,1.6L168.6,85z"/>
		</g>
		<g class="st3">
			<path d="M173.5,87.4c1.7-1,3.4-0.6,4.2,0.9c0.8,1.4,0.3,3.1-1.5,4c-1.7,1-3.4,0.6-4.2-0.9C171.3,90,171.8,88.4,173.5,87.4z
				 M175.4,91.6l0.8-0.4c1.1-0.6,1.3-1.6,0.8-2.5s-1.4-1.2-2.6-0.6l-0.8,0.4c-1.1,0.6-1.3,1.6-0.8,2.5S174.2,92.3,175.4,91.6z"/>
			<path d="M174.8,96.1c-0.3-0.6-0.1-1.1,0.4-1.4l6.9-3.9l0.5,0.8l-7,3.9l0.4,0.8l-0.7,0.4L174.8,96.1z"/>
			<path d="M181.3,95l0.5,0.8l-0.9,0.5l0,0c0.8-0.1,1.5,0.3,1.9,1c0.8,1.3,0.1,2.8-1.6,3.8c-1.7,1-3.3,0.7-4.1-0.6
				c-0.4-0.7-0.4-1.4,0.1-2.1l0,0l-3,1.7l-0.5-0.8L181.3,95z M180.3,100.6l0.9-0.5c1-0.5,1.3-1.5,0.8-2.4c-0.4-0.8-1.2-1.1-1.8-0.8
				l-2,1.1c-0.7,0.4-0.7,1.2-0.3,2C178.3,100.9,179.3,101.1,180.3,100.6z"/>
			<path d="M181.5,108.1c-0.3-0.6-0.1-1.1,0.4-1.4v-0.1c-0.8,0.1-1.5-0.2-1.9-1c-0.6-1.1-0.4-2.2,0.6-2.7c1-0.6,2-0.2,2.9,1.4
				l0.6,1.1l0.5-0.3c0.8-0.4,0.9-1.1,0.5-1.9c-0.4-0.6-0.9-0.9-1.6-0.9l0.2-0.8c0.7,0,1.6,0.3,2.1,1.3c0.7,1.3,0.5,2.5-0.7,3.1
				l-3,1.7l0.3,0.6l-0.7,0.4L181.5,108.1z M182.6,106.2l0.9-0.5l-0.6-1.1c-0.5-1-1.1-1.2-1.6-0.9l-0.2,0.1c-0.5,0.3-0.6,0.9-0.2,1.5
				C181.2,106.1,182,106.5,182.6,106.2z"/>
			<path d="M183.1,110.9c-0.3-0.6-0.1-1.1,0.4-1.4l3.8-2.1l-0.5-0.9l0.7-0.4l0.3,0.5c0.2,0.4,0.4,0.4,0.8,0.2l1-0.6l0.4,0.8
				l-1.5,0.8l0.7,1.2l-0.7,0.4l-0.7-1.2l-3.9,2.2l0.6,1.1l-0.7,0.4L183.1,110.9z"/>
			<path d="M189.9,110.4l0.5,0.8l-5.4,3l-0.5-0.8L189.9,110.4z M191.6,109.3l0.1-0.1c0.3-0.2,0.6-0.1,0.8,0.2
				c0.2,0.4,0.1,0.6-0.2,0.8l-0.1,0.1c-0.3,0.2-0.6,0.1-0.8-0.2C191.2,109.7,191.3,109.5,191.6,109.3z"/>
		</g>
	</g>
	<g>
		<g class="st3">
			<path d="M200.4,42.1l0.5,1.3l-3.4,3.9v0.1l5.1,0.6l0.5,1.2l-7.8,3l-0.4-0.9l6.6-2.5v-0.1l-1.6-0.2l-4.1-0.6l2.7-3.2l1.1-1.2v-0.1
				L193,46l-0.4-0.9L200.4,42.1z"/>
			<path d="M197.7,58.3c-0.3-0.7,0-1.1,0.6-1.4v-0.1c-0.8,0-1.4-0.5-1.7-1.3c-0.5-1.2-0.1-2.2,1-2.6c1.1-0.4,2,0.1,2.6,1.8l0.4,1.1
				l0.6-0.2c0.8-0.3,1.1-0.9,0.7-1.9c-0.3-0.7-0.8-1-1.4-1.1l0.3-0.7c0.7,0.1,1.5,0.6,1.9,1.6c0.5,1.4,0.1,2.5-1.1,3l-3.2,1.2
				l0.3,0.7l-0.8,0.3L197.7,58.3z M198.9,56.6l1-0.4l-0.5-1.2c-0.4-1-0.9-1.4-1.4-1.1l-0.2,0.1c-0.6,0.2-0.7,0.8-0.5,1.5
				C197.6,56.3,198.4,56.8,198.9,56.6z"/>
			<path d="M201.8,60.4l2.1-3.1l0.4,1.1l-1.6,2.3l0,0l2.7,0.7l0.4,1l-3.6-1l-2.2,3.2l-0.4-1.1l1.7-2.4l0,0l-2.9-0.8l-0.4-1
				L201.8,60.4z"/>
			<path d="M207,72l-1.5-4l-3.5,1.4l-0.4-0.9l7.8-3l0.4,0.9l-3.4,1.3l1.5,4l3.4-1.3l0.4,0.9l-7.8,3l-0.4-0.9L207,72z"/>
			<path d="M206.9,79.5L206.9,79.5c-0.7-0.1-1.3-0.3-1.7-1.3c-0.5-1.2,0.1-2.3,1.5-2.8l3.7-1.4l0.3,0.9l-3.6,1.4
				c-1,0.4-1.4,1.1-1.1,1.9c0.3,0.7,0.9,1.3,1.6,1l4-1.5l0.3,0.9l-5.8,2.2l-0.3-0.9L206.9,79.5z"/>
			<path d="M215.3,79.5l0.3,0.9l-3.4,1.3l0,0c0.8,0,1.4,0.5,1.7,1.3c0.6,1.4-0.3,2.8-2.1,3.5s-3.4,0.2-3.9-1.2
				c-0.3-0.8-0.2-1.5,0.4-2.1l0,0l-0.9,0.4l-0.3-0.9L215.3,79.5z M210.9,85.8l1-0.4c1-0.4,1.5-1.3,1.1-2.3c-0.3-0.8-1-1.3-1.7-1.1
				l-2.2,0.8c-0.7,0.3-0.9,1.1-0.6,1.9C209,85.8,209.9,86.2,210.9,85.8z"/>
			<path d="M212.2,87.6c1.8-0.7,3.4-0.1,4,1.4s-0.2,3-1.9,3.6l-0.4,0.2l-1.6-4.2l-0.3,0.1c-1,0.4-1.5,1.3-1.1,2.4
				c0.3,0.7,0.9,1.2,1.6,1.2l-0.2,0.8c-0.9-0.1-1.8-0.7-2.2-1.8C209.6,89.8,210.4,88.3,212.2,87.6z M213.1,88.4L213.1,88.4l1.1,3.2
				h0.1c1-0.4,1.5-1.3,1.1-2.2C215.1,88.4,214.1,88,213.1,88.4z"/>
			<path d="M211.8,95.3l5.8-2.2L218,94l-1.1,0.4v0.1c0.6,0,1.3,0.3,1.7,1.3l0.1,0.3l-0.9,0.3l-0.2-0.5c-0.4-1-1-1.4-1.6-1.2
				l-3.9,1.5L211.8,95.3z"/>
		</g>
	</g>
	<g>
		<g class="st3">
			<path d="M237.3,23.5l-6.1,1.3c-1.4,0.3-2.5-0.5-2.8-1.8s0.3-2.2,1.4-2.7l0.4,0.8c-0.7,0.3-1.1,0.8-0.9,1.7c0.2,0.8,0.8,1.2,1.9,1
				l5-1.1l-0.6-2.8l0.9-0.2L237.3,23.5z"/>
			<path d="M230.6,31.7c-0.2-0.7,0.2-1.1,0.8-1.3v-0.1c-0.8-0.1-1.3-0.7-1.5-1.5c-0.3-1.3,0.3-2.2,1.4-2.4c1.1-0.3,2,0.4,2.3,2.2
				l0.3,1.2l0.6-0.1c0.9-0.2,1.2-0.8,1-1.7c-0.2-0.7-0.6-1.1-1.2-1.3l0.4-0.7c0.7,0.2,1.4,0.8,1.7,1.9c0.3,1.5-0.2,2.5-1.5,2.8
				l-3.3,0.7l0.2,0.7l-0.8,0.2L230.6,31.7z M232.1,30.2l1-0.2l-0.3-1.2c-0.2-1.1-0.7-1.5-1.3-1.3l-0.2,0.1c-0.6,0.1-0.8,0.7-0.7,1.4
				C230.8,29.8,231.5,30.4,232.1,30.2z"/>
		</g>
		<g class="st3">
			<path d="M233.9,32.5c1.9-0.4,3.4,0.3,3.8,2c0.3,1.2-0.2,2-0.9,2.6l-0.6-0.7c0.6-0.4,0.8-1,0.7-1.7c-0.2-1.1-1.1-1.5-2.2-1.3
				l-1,0.2c-1.1,0.2-1.7,1-1.4,2.1c0.2,0.8,0.7,1.2,1.4,1.4l-0.3,0.8c-1-0.2-1.7-0.9-1.9-2C231,34.2,232,32.9,233.9,32.5z"/>
		</g>
		<g class="st3">
			<path d="M234.1,43L234.1,43c-0.8-0.2-1.3-0.7-1.5-1.6c-0.3-1.5,0.7-2.7,2.6-3.2c1.9-0.4,3.4,0.2,3.7,1.8c0.2,0.8,0,1.5-0.7,2l0,0
				l1-0.2l0.2,0.9l-8.4,1.9l-0.2-0.9L234.1,43z M235.1,42.8l2.2-0.5c0.7-0.1,1-1,0.8-1.8c-0.2-1.1-1.1-1.5-2.2-1.3l-1,0.2
				c-1.1,0.2-1.7,1.1-1.4,2.1C233.7,42.4,234.3,43,235.1,42.8z"/>
			<path d="M235.6,49.7L235.6,49.7c-0.6-0.2-1.3-0.5-1.5-1.5c-0.3-1.2,0.4-2.2,1.9-2.6l3.9-0.9l0.2,0.9l-3.7,0.8
				c-1.1,0.2-1.5,0.8-1.3,1.7c0.2,0.7,0.7,1.4,1.5,1.2l4.2-0.9l0.2,0.9l-6,1.3l-0.2-0.9H235.6z"/>
			<path d="M238.2,51.7c1.9-0.4,3.4,0.4,3.8,2c0.4,1.6-0.7,2.9-2.4,3.3l-0.4,0.1l-1-4.3l-0.3,0.1c-1,0.2-1.7,1.1-1.4,2.2
				c0.2,0.8,0.7,1.3,1.4,1.4l-0.3,0.8c-0.9-0.2-1.7-0.9-1.9-2.1C235.3,53.5,236.3,52.1,238.2,51.7z M239,52.6L239,52.6l0.7,3.4h0.1
				c1.1-0.2,1.6-1,1.4-2C241,52.9,240,52.3,239,52.6z"/>
			<path d="M237.6,58.5l0.7,0.5c-0.5,0.6-0.7,1.2-0.5,2s0.6,1.2,1.3,1c0.5-0.1,0.8-0.4,0.7-1.3v-0.5c-0.1-1.1,0.2-2.1,1.3-2.3
				c1.2-0.3,2,0.5,2.3,1.8c0.2,1,0,1.7-0.5,2.3l-0.7-0.5c0.3-0.4,0.6-0.9,0.4-1.7c-0.2-0.8-0.6-1.1-1.2-1c-0.6,0.1-0.7,0.6-0.7,1.4
				v0.5c0.1,1.4-0.4,2-1.3,2.2c-1.2,0.3-2.1-0.4-2.4-1.8C236.7,60,237,59.2,237.6,58.5z"/>
			<path d="M246.8,66l0.7,3.4c0.3,1.3-0.3,2.4-1.6,2.6c-1.2,0.3-1.8-0.4-2-0.9h-0.1c0.1,0.6-0.2,1.7-1.5,2s-2.6-0.4-2.8-1.6
				l-0.8-3.7L246.8,66z M239.7,68.6l0.5,2.4c0.2,0.8,0.7,1.3,1.6,1.1l0.4-0.1c0.8-0.2,1.1-0.8,1-1.6l-0.5-2.4L239.7,68.6z
				 M243.5,67.8L244,70c0.2,0.8,0.7,1.1,1.4,1l0.4-0.1c0.7-0.2,1-0.7,0.9-1.5l-0.5-2.3L243.5,67.8z"/>
		</g>
		<g class="st3">
			<path d="M240.3,75.4l6-1.3l0.2,0.9l-1.1,0.2v0.1c0.6,0.1,1.3,0.5,1.5,1.5l0.1,0.4l-0.9,0.2l-0.1-0.6c-0.2-1-0.8-1.5-1.4-1.4
				l-4.1,0.9L240.3,75.4z"/>
		</g>
		<g class="st3">
			<path d="M244.2,78.5c1.9-0.4,3.4,0.4,3.8,2c0.4,1.6-0.7,2.9-2.4,3.3l-0.4,0.1l-1-4.3l-0.3,0.1c-1,0.2-1.7,1.1-1.4,2.2
				c0.2,0.8,0.7,1.3,1.4,1.4l-0.3,0.8c-0.9-0.2-1.7-0.9-1.9-2.1C241.2,80.3,242.2,78.9,244.2,78.5z M244.9,79.4L244.9,79.4l0.7,3.4
				h0.1c1.1-0.2,1.6-1,1.4-2C246.9,79.7,246,79.1,244.9,79.4z"/>
		</g>
		<g class="st3">
			<path d="M242.9,87.1c-0.1-0.6,0.2-1.1,0.8-1.2l7.7-1.7l0.2,0.9l-7.8,1.7l0.2,0.9l-0.8,0.2L242.9,87.1z"/>
		</g>
		<g class="st3">
			<path d="M243.6,90.2c-0.1-0.6,0.2-1.1,0.8-1.2l7.7-1.7l0.2,0.9l-7.8,1.7l0.2,0.9l-0.8,0.2L243.6,90.2z"/>
		</g>
	</g>
	<g>
		<g class="st3">
			<path d="M268.4,12.5l0.7,0.7c-0.7,0.6-1.1,1.4-1,2.3c0.1,1.2,0.8,1.8,1.7,1.7c0.8-0.1,1.2-0.5,1.3-1.6l0.1-0.7
				c0.2-1.5,0.8-2.4,2.1-2.5c1.5-0.1,2.4,1,2.5,2.6c0.1,1.3-0.3,2.2-1.2,2.9l-0.6-0.7c0.6-0.5,0.9-1.2,0.9-2.1
				c-0.1-1.1-0.6-1.7-1.5-1.6c-0.8,0.1-1.1,0.6-1.3,1.7l-0.1,0.7c-0.3,1.7-0.9,2.4-2.2,2.5c-1.5,0.1-2.6-0.9-2.7-2.7
				C267.1,14.2,267.5,13.2,268.4,12.5z"/>
			<path d="M273.8,19.6l0.1,1l-6.2,0.5l-0.1-1L273.8,19.6z M275.8,19.3h0.2c0.3,0,0.6,0.1,0.6,0.5s-0.2,0.6-0.5,0.6h-0.2
				c-0.3,0-0.6-0.1-0.6-0.5S275.5,19.3,275.8,19.3z"/>
		</g>
		<g class="st3">
			<path d="M267.9,24c0-0.7,0.3-1,0.9-1.1l7.9-0.6l0.1,1l-8,0.6l0.1,0.9l-0.8,0.1L267.9,24z"/>
		</g>
		<g class="st3">
			<path d="M268.2,27.5l6-2.6l0.1,1l-3,1.3l-2.1,0.8v0.1l2.2,0.5l3.1,0.9l0.1,0.9l-6.3-1.7L268.2,27.5z"/>
			<path d="M274.7,31.6l0.1,1l-6.2,0.5l-0.1-1L274.7,31.6z M276.7,31.3h0.2c0.3,0,0.6,0.1,0.6,0.5c0,0.4-0.2,0.6-0.5,0.6h-0.2
				c-0.3,0-0.6-0.1-0.6-0.5C276.1,31.6,276.3,31.4,276.7,31.3z"/>
			<path d="M271.8,34.4c2-0.1,3.3,0.9,3.4,2.5c0.1,1.7-1.1,2.9-3,3c-2,0.1-3.3-0.9-3.4-2.6C268.6,35.7,269.8,34.5,271.8,34.4z
				 M271.7,38.9l0.9-0.1c1.3-0.1,1.9-0.9,1.8-1.9s-0.8-1.7-2.1-1.6l-0.9,0.1c-1.3,0.1-1.9,0.9-1.8,1.9
				C269.7,38.3,270.4,39,271.7,38.9z"/>
			<path d="M273.5,43.9c2.8-0.2,4.5,0.9,4.6,3c0.1,1.4-0.5,2.4-1.6,3l-0.6-0.8c0.8-0.4,1.3-1.1,1.3-2.2c-0.1-1.4-1.3-2.2-3-2.1
				l-1.2,0.1c-1.7,0.1-2.7,1.1-2.6,2.5c0.1,1.1,0.7,1.8,1.7,2l-0.4,0.8c-1.2-0.4-2-1.4-2.1-2.8C269.4,45.5,270.8,44.1,273.5,43.9z"
				/>
			<path d="M273,51.3c2-0.1,3.3,0.9,3.4,2.6s-1.1,2.9-3,3c-2,0.1-3.3-0.9-3.4-2.6C269.9,52.7,271.1,51.5,273,51.3z M272.9,55.9
				l0.9-0.1c1.3-0.1,1.9-0.9,1.8-1.9s-0.8-1.7-2.1-1.6l-0.9,0.1c-1.3,0.1-1.9,0.9-1.8,1.9S271.6,56,272.9,55.9z"/>
			<path d="M276.6,58.2l0.1,1l-1,0.1l0,0c0.8,0.3,1.2,0.9,1.3,1.7c0.1,1.5-1.1,2.6-3,2.7c-2,0.1-3.3-0.7-3.4-2.3
				c-0.1-0.8,0.3-1.5,1-1.9l0,0l-3.4,0.2l-0.1-1L276.6,58.2z M273.3,62.8l1.1-0.1c1.1-0.1,1.8-0.8,1.7-1.9c-0.1-0.9-0.6-1.6-1.3-1.5
				l-2.3,0.2c-0.8,0.1-1.2,0.8-1.1,1.7C271.5,62.3,272.2,62.9,273.3,62.8z"/>
			<path d="M277.2,65.2l0.1,1l-1,0.1l0,0c0.8,0.3,1.2,0.9,1.3,1.7c0.1,1.5-1.1,2.6-3,2.7c-2,0.1-3.3-0.7-3.4-2.3
				c-0.1-0.8,0.3-1.5,1-1.9l0,0l-3.4,0.2l-0.1-1L277.2,65.2z M273.9,69.7l1.1-0.1c1.1-0.1,1.8-0.8,1.7-1.9c-0.1-0.9-0.6-1.6-1.3-1.5
				l-2.3,0.2c-0.8,0.1-1.2,0.8-1.1,1.7C272,69.2,272.8,69.8,273.9,69.7z"/>
			<path d="M274.5,71.9c2-0.1,3.3,0.9,3.4,2.6s-1.1,2.9-3,3c-2,0.1-3.3-0.9-3.4-2.6C271.4,73.3,272.6,72,274.5,71.9z M274.4,76.5
				l0.9-0.1c1.3-0.1,1.9-0.9,1.8-1.9s-0.8-1.7-2.1-1.6l-0.9,0.1c-1.3,0.1-1.9,0.9-1.8,1.9S273.1,76.6,274.4,76.5z"/>
			<path d="M272.1,80.3c0-0.7,0.3-1,0.9-1.1l7.9-0.6l0.1,1l-8,0.6l0.1,0.9l-0.8,0.1L272.1,80.3z"/>
			<path d="M272.5,87c-0.1-0.7,0.4-1,0.9-1.1v-0.1c-0.8-0.2-1.2-0.8-1.3-1.7c-0.1-1.3,0.6-2.1,1.7-2.2c1.2-0.1,1.9,0.7,2,2.5
				l0.1,1.2h0.6c0.9-0.1,1.3-0.6,1.2-1.6c-0.1-0.7-0.4-1.2-1-1.5l0.5-0.6c0.7,0.3,1.3,1,1.4,2.1c0.1,1.5-0.6,2.4-1.9,2.5l-3.4,0.2
				l0.1,0.7l-0.8,0.1L272.5,87z M274.3,85.8l1-0.1l-0.1-1.3c-0.1-1.1-0.5-1.6-1-1.5h-0.3c-0.6,0-0.9,0.5-0.9,1.3
				C273.1,85.2,273.6,85.8,274.3,85.8z"/>
		</g>
	</g>
</g>
<g class="st3">
	<path d="M238.1,299l2.4-2.4c1.1,1.3,2.6,1.9,4.2,1.9c1.8,0,2.6-0.8,2.6-2c0-0.9-0.4-1.6-1.9-1.8l-1.7-0.2c-3.5-0.5-5.1-2.2-5.1-5
		c0-3,2.4-5.1,6.3-5.1c2.5,0,4.4,0.8,5.8,2.4l-2.4,2.4c-0.8-0.9-1.9-1.6-3.6-1.6c-1.6,0-2.4,0.6-2.4,1.6c0,1.2,0.6,1.6,2,1.8
		l1.7,0.3c3.4,0.6,5.1,2.1,5.1,5c0,3.2-2.4,5.4-6.5,5.4C241.5,301.8,239.5,300.6,238.1,299z"/>
	<path d="M257.4,284.7V295c0,2.4,0.9,3.5,3,3.5s3-1.2,3-3.5v-10.3h3.6v9.9c0,4.9-1.8,7.2-6.6,7.2s-6.6-2.2-6.6-7.2v-9.9H257.4z"/>
	<path d="M274.3,301.5h-3.6v-16.8h7.9c3.1,0,5.1,2.2,5.1,5.4c0,2.3-1,4.1-3,4.8l3.3,6.6h-4.1l-2.9-6.1h-2.6L274.3,301.5L274.3,301.5
		z M278.1,292.3c1.1,0,1.8-0.6,1.8-1.7v-1.1c0-1.1-0.7-1.7-1.8-1.7h-3.8v4.4h3.8V292.3z"/>
	<path d="M290.5,301.5h-3.6v-16.8h7.9c3.1,0,5.1,2.2,5.1,5.4c0,2.3-1,4.1-3,4.8l3.3,6.6H296l-2.9-6.1h-2.6V301.5z M294.3,292.3
		c1.1,0,1.8-0.6,1.8-1.7v-1.1c0-1.1-0.7-1.7-1.8-1.7h-3.8v4.4h3.8V292.3z"/>
	<path d="M303,301.5v-16.8h11.4v3.2h-7.8v3.4h6.6v3.2h-6.6v3.6h7.8v3.2H303V301.5z"/>
	<path d="M327.9,301.5l-1.2-4h-5.6l-1.2,4h-3.7l5.5-16.8h4.5l5.4,16.8H327.9z M323.9,288h-0.1l-1.8,6.4h3.8L323.9,288z"/>
	<path d="M334,301.5v-16.8h3.6v13.5h6.4v3.2L334,301.5L334,301.5z"/>
</g>
<g class="st3">
	<path d="M278,520.8l-0.9-3h-4.2l-0.9,3h-2.8l4.1-12.6h3.4l4.1,12.6H278z M275,510.8L275,510.8l-1.5,4.8h2.9L275,510.8z"/>
	<path d="M282.4,520.8v-9.5h2.7v1.6h0.1c0.3-1,1.1-1.8,2.6-1.8c1.9,0,3,1.4,3,3.7v5.9h-2.7v-5.7c0-1.2-0.3-1.8-1.3-1.8
		c-0.9,0-1.7,0.4-1.7,1.4v6.1H282.4z"/>
	<path d="M299,519.3L299,519.3c-0.4,1-1.4,1.8-2.6,1.8c-2.4,0-3.6-1.7-3.6-5s1.2-4.9,3.6-4.9c1.2,0,2.3,0.8,2.5,1.8h0.1v-5.5h2.7
		v13.3H299V519.3z M299,517.5v-2.8c0-0.9-0.7-1.4-1.7-1.4c-1,0-1.7,0.8-1.7,2v1.6c0,1.2,0.7,2,1.7,2
		C298.2,518.9,299,518.4,299,517.5z"/>
	<path d="M304.1,520.8v-9.5h2.7v2.1h0.1c0.2-1,0.9-2.1,2.4-2.1h0.5v2.5h-0.7c-1.5,0-2.3,0.3-2.3,1.4v5.5H304.1z"/>
	<path d="M310.7,516.1c0-3,1.6-4.9,4.4-4.9c3.1,0,4.4,2.3,4.4,4.8v0.8h-6.1v0.1c0,1.2,0.7,2,2.1,2c1.1,0,1.7-0.5,2.3-1.1l1.3,1.7
		c-0.8,1-2.2,1.6-4,1.6C312.3,521.1,310.7,519.1,310.7,516.1z M313.4,515.1v0.1h3.3v-0.2c0-1.2-0.5-1.9-1.6-1.9
		S313.4,513.9,313.4,515.1z"/>
	<path d="M328.4,520.8c-1,0-1.6-0.6-1.8-1.7h-0.1c-0.3,1.2-1.3,1.9-2.8,1.9c-1.9,0-2.9-1.1-2.9-2.8c0-2,1.5-3,4.1-3h1.5v-0.6
		c0-0.9-0.5-1.5-1.6-1.5c-1.1,0-1.6,0.5-2,1.1l-1.6-1.4c0.8-1.1,1.8-1.8,3.8-1.8c2.7,0,4,1.2,4,3.5v4.1h0.9v2.1H328.4z M326.3,518
		v-1.1H325c-1,0-1.6,0.4-1.6,1.1v0.3c0,0.7,0.5,1,1.2,1C325.6,519.2,326.3,518.9,326.3,518z"/>
</g>
<g class="st3">
	<path d="M277.3,540.8h-2.7v-12.6h6c2.3,0,3.8,1.6,3.8,4c0,1.7-0.8,3-2.3,3.6l2.5,4.9h-3l-2.2-4.6h-2V540.8z M280.2,533.9
		c0.8,0,1.3-0.4,1.3-1.2v-0.8c0-0.8-0.5-1.2-1.3-1.2h-2.9v3.3H280.2z"/>
	<path d="M293.3,540.8c-1,0-1.6-0.6-1.8-1.7h-0.1c-0.3,1.2-1.3,1.9-2.8,1.9c-1.9,0-2.9-1.1-2.9-2.8c0-2,1.5-3,4.1-3h1.5v-0.6
		c0-0.9-0.5-1.5-1.6-1.5c-1.1,0-1.6,0.5-2,1.1l-1.6-1.4c0.8-1.1,1.8-1.8,3.8-1.8c2.7,0,4,1.2,4,3.5v4.1h0.9v2.1H293.3z M291.3,538
		v-1.1H290c-1,0-1.6,0.4-1.6,1.1v0.3c0,0.7,0.5,1,1.2,1C290.5,539.2,291.3,538.9,291.3,538z"/>
	<path d="M302.2,539.3L302.2,539.3c-0.4,1-1.2,1.8-2.7,1.8c-1.9,0-3-1.4-3-3.7v-5.9h2.7v5.7c0,1.2,0.4,1.8,1.4,1.8
		c0.8,0,1.7-0.5,1.7-1.4v-6.1h2.7v9.5h-2.7V539.3z"/>
	<path d="M306.7,536.1c0-3,1.6-4.9,4.4-4.9c1.9,0,3.2,0.9,3.8,2.5l-2.2,0.9c-0.2-0.7-0.7-1.3-1.6-1.3c-1.1,0-1.6,0.8-1.6,2v1.8
		c0,1.2,0.6,1.9,1.6,1.9c1.1,0,1.5-0.6,1.8-1.4l2.1,0.9c-0.6,1.8-2,2.6-3.8,2.6C308.3,541.1,306.7,539.1,306.7,536.1z"/>
	<path d="M316.6,527.5h2.7v5.5h0.1c0.3-1,1.1-1.8,2.6-1.8c1.9,0,3,1.4,3,3.7v5.9h-2.7v-5.7c0-1.2-0.3-1.8-1.3-1.8
		c-0.9,0-1.7,0.4-1.7,1.4v6.1h-2.7V527.5z"/>
</g>
<rect x="578.3" y="10.7" width="88.6" height="28.3"/>
<g class="st3">
	<path class="st4" d="M595,23.9L595,23.9l-0.5,1l-1.4,2.5l-1.3-2.5l-0.5-1.1l0,0v4.6h-1.4v-7h1.6l1.7,3.3l0,0l1.7-3.3h1.6v7H595
		V23.9z"/>
	<path class="st4" d="M597.7,28.5v-1.2h0.9v-4.6h-0.9v-1.2h3.3v1.2h-0.9v4.6h0.9v1.2H597.7z"/>
	<path class="st4" d="M603.9,24.9l-2.1-3.4h1.8l1.4,2.4l0,0l1.4-2.4h1.6l-2.1,3.4l2.3,3.6h-1.8l-1.5-2.6l0,0l-1.5,2.6h-1.6
		L603.9,24.9z"/>
	<path class="st4" d="M609.1,28.5v-7h4.7v1.3h-3.2v1.4h2.8v1.3h-2.8V27h3.2v1.3h-4.7V28.5z"/>
	<path class="st4" d="M615.1,21.5h2.6c1.8,0,3.1,1.2,3.1,3.5s-1.2,3.5-3.1,3.5h-2.6V21.5z M617.7,27.2c0.9,0,1.5-0.5,1.5-1.6v-1.1
		c0-1.1-0.6-1.6-1.5-1.6h-1.1v4.3H617.7z"/>
	<path class="st4" d="M629.7,23.9L629.7,23.9l-0.5,1l-1.4,2.5l-1.3-2.5l-0.5-1.1l0,0v4.6h-1.4v-7h1.6l1.7,3.3l0,0l1.7-3.3h1.6v7
		h-1.4L629.7,23.9L629.7,23.9z"/>
	<path class="st4" d="M632.6,28.5v-7h4.7v1.3h-3.2v1.4h2.8v1.3h-2.8V27h3.2v1.3h-4.7V28.5z"/>
	<path class="st4" d="M638.7,21.5h2.6c1.8,0,3.1,1.2,3.1,3.5s-1.2,3.5-3.1,3.5h-2.6V21.5z M641.3,27.2c0.9,0,1.5-0.5,1.5-1.6v-1.1
		c0-1.1-0.6-1.6-1.5-1.6h-1.1v4.3H641.3z"/>
	<path class="st4" d="M645.4,28.5v-1.2h0.9v-4.6h-0.9v-1.2h3.3v1.2h-0.9v4.6h0.9v1.2H645.4z"/>
	<path class="st4" d="M654.3,28.5l-0.5-1.7h-2.3l-0.5,1.7h-1.5l2.3-7h1.9l2.3,7H654.3z M652.6,22.9L652.6,22.9l-0.8,2.6h1.6
		L652.6,22.9z"/>
</g>
<rect x="578.3" y="90.7" class="st1" width="88.6" height="28.3"/>
<g class="st3">
	<path d="M587.7,107.7v-1.2h0.9V102h-0.9v-1.2h3.3v1.2h-0.9v4.6h0.9v1.2L587.7,107.7L587.7,107.7z"/>
	<path d="M592.2,107.7v-7h1.5v5.6h2.7v1.3L592.2,107.7L592.2,107.7z"/>
	<path d="M597.5,107.7v-7h1.5v5.6h2.7v1.3L597.5,107.7L597.5,107.7z"/>
	<path d="M604,100.7v4.3c0,1,0.4,1.5,1.3,1.5s1.3-0.5,1.3-1.5v-4.3h1.5v4.1c0,2.1-0.7,3-2.7,3s-2.7-0.9-2.7-3v-4.1H604z"/>
	<path d="M609.1,106.7l1-1c0.5,0.5,1.1,0.8,1.7,0.8c0.7,0,1.1-0.3,1.1-0.8c0-0.4-0.2-0.7-0.8-0.8l-0.7-0.1c-1.5-0.2-2.1-0.9-2.1-2.1
		s1-2.1,2.6-2.1c1,0,1.8,0.3,2.4,1l-1,1c-0.3-0.4-0.8-0.7-1.5-0.7s-1,0.3-1,0.7c0,0.5,0.2,0.7,0.8,0.8l0.7,0.1
		c1.4,0.2,2.1,0.9,2.1,2.1c0,1.3-1,2.3-2.7,2.3C610.5,107.8,609.7,107.4,609.1,106.7z"/>
	<path d="M618.4,102.1v5.6h-1.5v-5.6H615v-1.3h5.3v1.3H618.4z"/>
	<path d="M622.8,107.7h-1.5v-7h3.3c1.3,0,2.1,0.9,2.1,2.2c0,0.9-0.4,1.7-1.3,2l1.4,2.7h-1.7l-1.2-2.6h-1.1V107.7z M624.4,103.9
		c0.4,0,0.7-0.2,0.7-0.7v-0.4c0-0.5-0.3-0.7-0.7-0.7h-1.6v1.8C622.8,103.9,624.4,103.9,624.4,103.9z"/>
	<path d="M632.3,107.7l-0.5-1.7h-2.3l-0.5,1.7h-1.5l2.3-7h1.9l2.3,7H632.3z M630.7,102.1L630.7,102.1l-0.8,2.6h1.6L630.7,102.1z"/>
	<path d="M637.1,102.1v5.6h-1.5v-5.6h-1.9v-1.3h5.3v1.3H637.1z"/>
	<path d="M639.8,107.7v-1.2h0.9V102h-0.9v-1.2h3.3v1.2h-0.9v4.6h0.9v1.2L639.8,107.7L639.8,107.7z"/>
	<path d="M644.1,104.2c0-2.4,1.2-3.6,3.1-3.6s3.1,1.2,3.1,3.6s-1.2,3.6-3.1,3.6S644.1,106.6,644.1,104.2z M648.6,104.8v-1
		c0-1.1-0.5-1.7-1.5-1.7s-1.5,0.6-1.5,1.7v1c0,1.1,0.5,1.7,1.5,1.7S648.6,105.9,648.6,104.8z"/>
	<path d="M653.6,104.4L653,103l0,0v4.7h-1.4v-7h1.7l1.9,3.3l0.7,1.4l0,0v-4.7h1.4v7h-1.7L653.6,104.4z"/>
</g>
<rect x="578.3" y="50.7" class="st5" width="88.6" height="28.3"/>
<g class="st3">
	<path class="st4" d="M583.9,67.7v-7h3.3c1.3,0,2.1,0.9,2.1,2.2s-0.8,2.2-2.1,2.2h-1.8v2.5L583.9,67.7L583.9,67.7z M585.4,63.9h1.6
		c0.4,0,0.7-0.2,0.7-0.7v-0.4c0-0.5-0.3-0.7-0.7-0.7h-1.6V63.9z"/>
	<path class="st4" d="M594.6,64.9H592v2.9h-1.5v-7h1.5v2.8h2.7v-2.8h1.5v7h-1.5v-2.9H594.6z"/>
	<path class="st4" d="M597.4,64.2c0-2.4,1.2-3.6,3.1-3.6s3.1,1.2,3.1,3.6c0,2.4-1.2,3.6-3.1,3.6S597.4,66.6,597.4,64.2z M602,64.8
		v-1c0-1.1-0.6-1.7-1.5-1.7s-1.5,0.6-1.5,1.7v1c0,1.1,0.5,1.7,1.5,1.7S602,65.9,602,64.8z"/>
	<path class="st4" d="M607.5,62.1v5.6H606v-5.6h-1.9v-1.3h5.3v1.3H607.5z"/>
	<path class="st4" d="M609.9,64.2c0-2.4,1.2-3.6,3.1-3.6c1.8,0,3.1,1.2,3.1,3.6c0,2.4-1.2,3.6-3.1,3.6
		C611.1,67.9,609.9,66.6,609.9,64.2z M614.4,64.8v-1c0-1.1-0.5-1.7-1.5-1.7c-0.9,0-1.5,0.6-1.5,1.7v1c0,1.1,0.6,1.7,1.5,1.7
		C613.9,66.5,614.4,65.9,614.4,64.8z"/>
	<path class="st4" d="M621.8,66.6L621.8,66.6c-0.1,0.7-0.8,1.2-1.8,1.2c-1.6,0-2.9-1.2-2.9-3.6c0-2.3,1.3-3.6,3.2-3.6
		c1.2,0,2.2,0.5,2.7,1.6l-1.2,0.7c-0.2-0.5-0.6-1-1.4-1c-0.9,0-1.5,0.5-1.5,1.7v1.1c0,1.2,0.6,1.7,1.5,1.7c0.8,0,1.4-0.4,1.4-1v-0.3
		h-1.3v-1.3h2.7v3.9h-1.3v-1.1H621.8z"/>
	<path class="st4" d="M626,67.7h-1.5v-7h3.3c1.3,0,2.1,0.9,2.1,2.2c0,0.9-0.4,1.7-1.3,2l1.4,2.7h-1.7l-1.2-2.6H626V67.7z
		 M627.6,63.9c0.4,0,0.7-0.2,0.7-0.7v-0.4c0-0.5-0.3-0.7-0.7-0.7H626v1.8C626,63.9,627.6,63.9,627.6,63.9z"/>
	<path class="st4" d="M635.6,67.7l-0.5-1.7h-2.3l-0.5,1.7h-1.5l2.3-7h1.9l2.3,7H635.6z M633.9,62.1L633.9,62.1l-0.8,2.6h1.6
		L633.9,62.1z"/>
	<path class="st4" d="M638.1,67.7v-7h3.3c1.3,0,2.1,0.9,2.1,2.2s-0.8,2.2-2.1,2.2h-1.8v2.5L638.1,67.7L638.1,67.7z M639.6,63.9h1.6
		c0.4,0,0.7-0.2,0.7-0.7v-0.4c0-0.5-0.3-0.7-0.7-0.7h-1.6V63.9z"/>
	<path class="st4" d="M648.8,64.9h-2.7v2.9h-1.5v-7h1.5v2.8h2.7v-2.8h1.5v7h-1.5V64.9z"/>
	<path class="st4" d="M651.6,67.7v-1.2h0.9V62h-0.9v-1.2h3.3V62H654v4.6h0.9v1.2L651.6,67.7L651.6,67.7z"/>
	<path class="st4" d="M656,64.3c0-2.4,1.2-3.7,3.1-3.7c1.3,0,2.1,0.5,2.6,1.6l-1.3,0.7c-0.2-0.6-0.5-1-1.3-1c-0.9,0-1.5,0.6-1.5,1.7
		v1.1c0,1.1,0.6,1.7,1.5,1.7c0.7,0,1.2-0.5,1.4-1l1.2,0.7c-0.5,1.1-1.3,1.7-2.6,1.7C657.2,67.9,656,66.7,656,64.3z"/>
</g>
</svg>
